{"glyphs":{"0":{"ha":833,"x_min":7,"x_max":688,"o":"m 286 965 l 286 965 q 285 965 285 965 q 285 964 285 965 l 285 842 q 285 840 285 840 q 286 840 285 840 l 408 840 q 410 840 410 840 q 410 842 410 840 l 410 964 q 410 965 410 965 q 408 965 410 965 l 286 965 m 147 826 l 147 826 q 146 826 146 826 q 146 825 146 826 l 146 703 q 146 701 146 701 q 147 701 146 701 l 269 701 q 271 701 271 701 q 271 703 271 701 l 271 825 q 271 826 271 826 q 269 826 271 826 l 147 826 m 425 826 l 425 826 q 424 826 424 826 q 424 825 424 826 l 424 703 q 424 701 424 701 q 425 701 424 701 l 547 701 q 549 701 549 701 q 549 703 549 701 l 549 825 q 549 826 549 826 q 547 826 549 826 l 425 826 m 8 688 l 8 688 q 7 688 7 688 q 7 686 7 688 l 7 564 q 7 563 7 563 q 8 563 7 563 l 131 563 q 132 563 132 563 q 132 564 132 563 l 132 686 q 132 688 132 688 q 131 688 132 688 l 8 688 m 564 688 l 564 688 q 563 688 563 688 q 563 686 563 688 l 563 564 q 563 563 563 563 q 564 563 563 563 l 686 563 q 688 563 688 563 q 688 564 688 563 l 688 686 q 688 688 688 688 q 686 688 688 688 l 564 688 m 8 549 l 8 549 q 7 549 7 549 q 7 547 7 549 l 7 425 q 7 424 7 424 q 8 424 7 424 l 131 424 q 132 424 132 424 q 132 425 132 424 l 132 547 q 132 549 132 549 q 131 549 132 549 l 8 549 m 564 549 l 564 549 q 563 549 563 549 q 563 547 563 549 l 563 425 q 563 424 563 424 q 564 424 563 424 l 686 424 q 688 424 688 424 q 688 425 688 424 l 688 547 q 688 549 688 549 q 686 549 688 549 l 564 549 m 8 410 l 8 410 q 7 410 7 410 q 7 408 7 410 l 7 286 q 7 285 7 285 q 8 285 7 285 l 131 285 q 132 285 132 285 q 132 286 132 285 l 132 408 q 132 410 132 410 q 131 410 132 410 l 8 410 m 564 410 l 564 410 q 563 410 563 410 q 563 408 563 410 l 563 286 q 563 285 563 285 q 564 285 563 285 l 686 285 q 688 285 688 285 q 688 286 688 285 l 688 408 q 688 410 688 410 q 686 410 688 410 l 564 410 m 147 271 l 147 271 q 146 271 146 271 q 146 269 146 271 l 146 147 q 146 146 146 146 q 147 146 146 146 l 269 146 q 271 146 271 146 q 271 147 271 146 l 271 269 q 271 271 271 271 q 269 271 271 271 l 147 271 m 425 271 l 425 271 q 424 271 424 271 q 424 269 424 271 l 424 147 q 424 146 424 146 q 425 146 424 146 l 547 146 q 549 146 549 146 q 549 147 549 146 l 549 269 q 549 271 549 271 q 547 271 549 271 l 425 271 m 286 132 l 286 132 q 285 132 285 132 q 285 131 285 132 l 285 8 q 285 7 285 7 q 286 7 285 7 l 408 7 q 410 7 410 7 q 410 8 410 7 l 410 131 q 410 132 410 132 q 408 132 410 132 l 286 132 z "},"1":{"ha":833,"x_min":7,"x_max":688,"o":"m 286 965 l 286 965 q 285 965 285 965 q 285 964 285 965 l 285 842 q 285 840 285 840 q 286 840 285 840 l 408 840 q 410 840 410 840 q 410 842 410 840 l 410 964 q 410 965 410 965 q 408 965 410 965 l 286 965 m 147 826 l 147 826 q 146 826 146 826 q 146 825 146 826 l 146 703 q 146 701 146 701 q 147 701 146 701 l 269 701 q 271 701 271 701 q 271 703 271 701 l 271 825 q 271 826 271 826 q 269 826 271 826 l 147 826 m 286 826 l 286 826 q 285 826 285 826 q 285 825 285 826 l 285 703 q 285 701 285 701 q 286 701 285 701 l 408 701 q 410 701 410 701 q 410 703 410 701 l 410 825 q 410 826 410 826 q 408 826 410 826 l 286 826 m 8 688 l 8 688 q 7 688 7 688 q 7 686 7 688 l 7 564 q 7 563 7 563 q 8 563 7 563 l 131 563 q 132 563 132 563 q 132 564 132 563 l 132 686 q 132 688 132 688 q 131 688 132 688 l 8 688 m 286 688 l 286 688 q 285 688 285 688 q 285 686 285 688 l 285 564 q 285 563 285 563 q 286 563 285 563 l 408 563 q 410 563 410 563 q 410 564 410 563 l 410 686 q 410 688 410 688 q 408 688 410 688 l 286 688 m 286 549 l 286 549 q 285 549 285 549 q 285 547 285 549 l 285 425 q 285 424 285 424 q 286 424 285 424 l 408 424 q 410 424 410 424 q 410 425 410 424 l 410 547 q 410 549 410 549 q 408 549 410 549 l 286 549 m 286 410 l 286 410 q 285 410 285 410 q 285 408 285 410 l 285 286 q 285 285 285 285 q 286 285 285 285 l 408 285 q 410 285 410 285 q 410 286 410 285 l 410 408 q 410 410 410 410 q 408 410 410 410 l 286 410 m 286 271 l 286 271 q 285 271 285 271 q 285 269 285 271 l 285 147 q 285 146 285 146 q 286 146 285 146 l 408 146 q 410 146 410 146 q 410 147 410 146 l 410 269 q 410 271 410 271 q 408 271 410 271 l 286 271 m 8 132 l 8 132 q 7 132 7 132 q 7 131 7 132 l 7 8 q 7 7 7 7 q 8 7 7 7 l 131 7 q 132 7 132 7 q 132 8 132 7 l 132 131 q 132 132 132 132 q 131 132 132 132 l 8 132 m 147 132 l 147 132 q 146 132 146 132 q 146 131 146 132 l 146 8 q 146 7 146 7 q 147 7 146 7 l 269 7 q 271 7 271 7 q 271 8 271 7 l 271 131 q 271 132 271 132 q 269 132 271 132 l 147 132 m 286 132 l 286 132 q 285 132 285 132 q 285 131 285 132 l 285 8 q 285 7 285 7 q 286 7 285 7 l 408 7 q 410 7 410 7 q 410 8 410 7 l 410 131 q 410 132 410 132 q 408 132 410 132 l 286 132 m 425 132 l 425 132 q 424 132 424 132 q 424 131 424 132 l 424 8 q 424 7 424 7 q 425 7 424 7 l 547 7 q 549 7 549 7 q 549 8 549 7 l 549 131 q 549 132 549 132 q 547 132 549 132 l 425 132 m 564 132 l 564 132 q 563 132 563 132 q 563 131 563 132 l 563 8 q 563 7 563 7 q 564 7 563 7 l 686 7 q 688 7 688 7 q 688 8 688 7 l 688 131 q 688 132 688 132 q 686 132 688 132 l 564 132 z "},"2":{"ha":833,"x_min":7,"x_max":688,"o":"m 147 965 l 147 965 q 146 965 146 965 q 146 964 146 965 l 146 842 q 146 840 146 840 q 147 840 146 840 l 269 840 q 271 840 271 840 q 271 842 271 840 l 271 964 q 271 965 271 965 q 269 965 271 965 l 147 965 m 286 965 l 286 965 q 285 965 285 965 q 285 964 285 965 l 285 842 q 285 840 285 840 q 286 840 285 840 l 408 840 q 410 840 410 840 q 410 842 410 840 l 410 964 q 410 965 410 965 q 408 965 410 965 l 286 965 m 425 965 l 425 965 q 424 965 424 965 q 424 964 424 965 l 424 842 q 424 840 424 840 q 425 840 424 840 l 547 840 q 549 840 549 840 q 549 842 549 840 l 549 964 q 549 965 549 965 q 547 965 549 965 l 425 965 m 8 826 l 8 826 q 7 826 7 826 q 7 825 7 826 l 7 703 q 7 701 7 701 q 8 701 7 701 l 131 701 q 132 701 132 701 q 132 703 132 701 l 132 825 q 132 826 132 826 q 131 826 132 826 l 8 826 m 564 826 l 564 826 q 563 826 563 826 q 563 825 563 826 l 563 703 q 563 701 563 701 q 564 701 563 701 l 686 701 q 688 701 688 701 q 688 703 688 701 l 688 825 q 688 826 688 826 q 686 826 688 826 l 564 826 m 564 688 l 564 688 q 563 688 563 688 q 563 686 563 688 l 563 564 q 563 563 563 563 q 564 563 563 563 l 686 563 q 688 563 688 563 q 688 564 688 563 l 688 686 q 688 688 688 688 q 686 688 688 688 l 564 688 m 286 549 l 286 549 q 285 549 285 549 q 285 547 285 549 l 285 425 q 285 424 285 424 q 286 424 285 424 l 408 424 q 410 424 410 424 q 410 425 410 424 l 410 547 q 410 549 410 549 q 408 549 410 549 l 286 549 m 425 549 l 425 549 q 424 549 424 549 q 424 547 424 549 l 424 425 q 424 424 424 424 q 425 424 424 424 l 547 424 q 549 424 549 424 q 549 425 549 424 l 549 547 q 549 549 549 549 q 547 549 549 549 l 425 549 m 147 410 l 147 410 q 146 410 146 410 q 146 408 146 410 l 146 286 q 146 285 146 285 q 147 285 146 285 l 269 285 q 271 285 271 285 q 271 286 271 285 l 271 408 q 271 410 271 410 q 269 410 271 410 l 147 410 m 8 271 l 8 271 q 7 271 7 271 q 7 269 7 271 l 7 147 q 7 146 7 146 q 8 146 7 146 l 131 146 q 132 146 132 146 q 132 147 132 146 l 132 269 q 132 271 132 271 q 131 271 132 271 l 8 271 m 8 132 l 8 132 q 7 132 7 132 q 7 131 7 132 l 7 8 q 7 7 7 7 q 8 7 7 7 l 131 7 q 132 7 132 7 q 132 8 132 7 l 132 131 q 132 132 132 132 q 131 132 132 132 l 8 132 m 147 132 l 147 132 q 146 132 146 132 q 146 131 146 132 l 146 8 q 146 7 146 7 q 147 7 146 7 l 269 7 q 271 7 271 7 q 271 8 271 7 l 271 131 q 271 132 271 132 q 269 132 271 132 l 147 132 m 286 132 l 286 132 q 285 132 285 132 q 285 131 285 132 l 285 8 q 285 7 285 7 q 286 7 285 7 l 408 7 q 410 7 410 7 q 410 8 410 7 l 410 131 q 410 132 410 132 q 408 132 410 132 l 286 132 m 425 132 l 425 132 q 424 132 424 132 q 424 131 424 132 l 424 8 q 424 7 424 7 q 425 7 424 7 l 547 7 q 549 7 549 7 q 549 8 549 7 l 549 131 q 549 132 549 132 q 547 132 549 132 l 425 132 m 564 132 l 564 132 q 563 132 563 132 q 563 131 563 132 l 563 8 q 563 7 563 7 q 564 7 563 7 l 686 7 q 688 7 688 7 q 688 8 688 7 l 688 131 q 688 132 688 132 q 686 132 688 132 l 564 132 z "},"3":{"ha":833,"x_min":7,"x_max":688,"o":"m 8 965 l 8 965 q 7 965 7 965 q 7 964 7 965 l 7 842 q 7 840 7 840 q 8 840 7 840 l 131 840 q 132 840 132 840 q 132 842 132 840 l 132 964 q 132 965 132 965 q 131 965 132 965 l 8 965 m 147 965 l 147 965 q 146 965 146 965 q 146 964 146 965 l 146 842 q 146 840 146 840 q 147 840 146 840 l 269 840 q 271 840 271 840 q 271 842 271 840 l 271 964 q 271 965 271 965 q 269 965 271 965 l 147 965 m 286 965 l 286 965 q 285 965 285 965 q 285 964 285 965 l 285 842 q 285 840 285 840 q 286 840 285 840 l 408 840 q 410 840 410 840 q 410 842 410 840 l 410 964 q 410 965 410 965 q 408 965 410 965 l 286 965 m 425 965 l 425 965 q 424 965 424 965 q 424 964 424 965 l 424 842 q 424 840 424 840 q 425 840 424 840 l 547 840 q 549 840 549 840 q 549 842 549 840 l 549 964 q 549 965 549 965 q 547 965 549 965 l 425 965 m 564 965 l 564 965 q 563 965 563 965 q 563 964 563 965 l 563 842 q 563 840 563 840 q 564 840 563 840 l 686 840 q 688 840 688 840 q 688 842 688 840 l 688 964 q 688 965 688 965 q 686 965 688 965 l 564 965 m 564 826 l 564 826 q 563 826 563 826 q 563 825 563 826 l 563 703 q 563 701 563 701 q 564 701 563 701 l 686 701 q 688 701 688 701 q 688 703 688 701 l 688 825 q 688 826 688 826 q 686 826 688 826 l 564 826 m 425 688 l 425 688 q 424 688 424 688 q 424 686 424 688 l 424 564 q 424 563 424 563 q 425 563 424 563 l 547 563 q 549 563 549 563 q 549 564 549 563 l 549 686 q 549 688 549 688 q 547 688 549 688 l 425 688 m 286 549 l 286 549 q 285 549 285 549 q 285 547 285 549 l 285 425 q 285 424 285 424 q 286 424 285 424 l 408 424 q 410 424 410 424 q 410 425 410 424 l 410 547 q 410 549 410 549 q 408 549 410 549 l 286 549 m 425 549 l 425 549 q 424 549 424 549 q 424 547 424 549 l 424 425 q 424 424 424 424 q 425 424 424 424 l 547 424 q 549 424 549 424 q 549 425 549 424 l 549 547 q 549 549 549 549 q 547 549 549 549 l 425 549 m 564 410 l 564 410 q 563 410 563 410 q 563 408 563 410 l 563 286 q 563 285 563 285 q 564 285 563 285 l 686 285 q 688 285 688 285 q 688 286 688 285 l 688 408 q 688 410 688 410 q 686 410 688 410 l 564 410 m 8 271 l 8 271 q 7 271 7 271 q 7 269 7 271 l 7 147 q 7 146 7 146 q 8 146 7 146 l 131 146 q 132 146 132 146 q 132 147 132 146 l 132 269 q 132 271 132 271 q 131 271 132 271 l 8 271 m 564 271 l 564 271 q 563 271 563 271 q 563 269 563 271 l 563 147 q 563 146 563 146 q 564 146 563 146 l 686 146 q 688 146 688 146 q 688 147 688 146 l 688 269 q 688 271 688 271 q 686 271 688 271 l 564 271 m 147 132 l 147 132 q 146 132 146 132 q 146 131 146 132 l 146 8 q 146 7 146 7 q 147 7 146 7 l 269 7 q 271 7 271 7 q 271 8 271 7 l 271 131 q 271 132 271 132 q 269 132 271 132 l 147 132 m 286 132 l 286 132 q 285 132 285 132 q 285 131 285 132 l 285 8 q 285 7 285 7 q 286 7 285 7 l 408 7 q 410 7 410 7 q 410 8 410 7 l 410 131 q 410 132 410 132 q 408 132 410 132 l 286 132 m 425 132 l 425 132 q 424 132 424 132 q 424 131 424 132 l 424 8 q 424 7 424 7 q 425 7 424 7 l 547 7 q 549 7 549 7 q 549 8 549 7 l 549 131 q 549 132 549 132 q 547 132 549 132 l 425 132 z "},"4":{"ha":833,"x_min":7,"x_max":688,"o":"m 425 965 l 425 965 q 424 965 424 965 q 424 964 424 965 l 424 842 q 424 840 424 840 q 425 840 424 840 l 547 840 q 549 840 549 840 q 549 842 549 840 l 549 964 q 549 965 549 965 q 547 965 549 965 l 425 965 m 286 826 l 286 826 q 285 826 285 826 q 285 825 285 826 l 285 703 q 285 701 285 701 q 286 701 285 701 l 408 701 q 410 701 410 701 q 410 703 410 701 l 410 825 q 410 826 410 826 q 408 826 410 826 l 286 826 m 425 826 l 425 826 q 424 826 424 826 q 424 825 424 826 l 424 703 q 424 701 424 701 q 425 701 424 701 l 547 701 q 549 701 549 701 q 549 703 549 701 l 549 825 q 549 826 549 826 q 547 826 549 826 l 425 826 m 147 688 l 147 688 q 146 688 146 688 q 146 686 146 688 l 146 564 q 146 563 146 563 q 147 563 146 563 l 269 563 q 271 563 271 563 q 271 564 271 563 l 271 686 q 271 688 271 688 q 269 688 271 688 l 147 688 m 425 688 l 425 688 q 424 688 424 688 q 424 686 424 688 l 424 564 q 424 563 424 563 q 425 563 424 563 l 547 563 q 549 563 549 563 q 549 564 549 563 l 549 686 q 549 688 549 688 q 547 688 549 688 l 425 688 m 8 549 l 8 549 q 7 549 7 549 q 7 547 7 549 l 7 425 q 7 424 7 424 q 8 424 7 424 l 131 424 q 132 424 132 424 q 132 425 132 424 l 132 547 q 132 549 132 549 q 131 549 132 549 l 8 549 m 425 549 l 425 549 q 424 549 424 549 q 424 547 424 549 l 424 425 q 424 424 424 424 q 425 424 424 424 l 547 424 q 549 424 549 424 q 549 425 549 424 l 549 547 q 549 549 549 549 q 547 549 549 549 l 425 549 m 8 410 l 8 410 q 7 410 7 410 q 7 408 7 410 l 7 286 q 7 285 7 285 q 8 285 7 285 l 131 285 q 132 285 132 285 q 132 286 132 285 l 132 408 q 132 410 132 410 q 131 410 132 410 l 8 410 m 147 410 l 147 410 q 146 410 146 410 q 146 408 146 410 l 146 286 q 146 285 146 285 q 147 285 146 285 l 269 285 q 271 285 271 285 q 271 286 271 285 l 271 408 q 271 410 271 410 q 269 410 271 410 l 147 410 m 286 410 l 286 410 q 285 410 285 410 q 285 408 285 410 l 285 286 q 285 285 285 285 q 286 285 285 285 l 408 285 q 410 285 410 285 q 410 286 410 285 l 410 408 q 410 410 410 410 q 408 410 410 410 l 286 410 m 425 410 l 425 410 q 424 410 424 410 q 424 408 424 410 l 424 286 q 424 285 424 285 q 425 285 424 285 l 547 285 q 549 285 549 285 q 549 286 549 285 l 549 408 q 549 410 549 410 q 547 410 549 410 l 425 410 m 564 410 l 564 410 q 563 410 563 410 q 563 408 563 410 l 563 286 q 563 285 563 285 q 564 285 563 285 l 686 285 q 688 285 688 285 q 688 286 688 285 l 688 408 q 688 410 688 410 q 686 410 688 410 l 564 410 m 425 271 l 425 271 q 424 271 424 271 q 424 269 424 271 l 424 147 q 424 146 424 146 q 425 146 424 146 l 547 146 q 549 146 549 146 q 549 147 549 146 l 549 269 q 549 271 549 271 q 547 271 549 271 l 425 271 m 425 132 l 425 132 q 424 132 424 132 q 424 131 424 132 l 424 8 q 424 7 424 7 q 425 7 424 7 l 547 7 q 549 7 549 7 q 549 8 549 7 l 549 131 q 549 132 549 132 q 547 132 549 132 l 425 132 z "},"5":{"ha":833,"x_min":7,"x_max":688,"o":"m 8 965 l 8 965 q 7 965 7 965 q 7 964 7 965 l 7 842 q 7 840 7 840 q 8 840 7 840 l 131 840 q 132 840 132 840 q 132 842 132 840 l 132 964 q 132 965 132 965 q 131 965 132 965 l 8 965 m 147 965 l 147 965 q 146 965 146 965 q 146 964 146 965 l 146 842 q 146 840 146 840 q 147 840 146 840 l 269 840 q 271 840 271 840 q 271 842 271 840 l 271 964 q 271 965 271 965 q 269 965 271 965 l 147 965 m 286 965 l 286 965 q 285 965 285 965 q 285 964 285 965 l 285 842 q 285 840 285 840 q 286 840 285 840 l 408 840 q 410 840 410 840 q 410 842 410 840 l 410 964 q 410 965 410 965 q 408 965 410 965 l 286 965 m 425 965 l 425 965 q 424 965 424 965 q 424 964 424 965 l 424 842 q 424 840 424 840 q 425 840 424 840 l 547 840 q 549 840 549 840 q 549 842 549 840 l 549 964 q 549 965 549 965 q 547 965 549 965 l 425 965 m 564 965 l 564 965 q 563 965 563 965 q 563 964 563 965 l 563 842 q 563 840 563 840 q 564 840 563 840 l 686 840 q 688 840 688 840 q 688 842 688 840 l 688 964 q 688 965 688 965 q 686 965 688 965 l 564 965 m 8 826 l 8 826 q 7 826 7 826 q 7 825 7 826 l 7 703 q 7 701 7 701 q 8 701 7 701 l 131 701 q 132 701 132 701 q 132 703 132 701 l 132 825 q 132 826 132 826 q 131 826 132 826 l 8 826 m 8 688 l 8 688 q 7 688 7 688 q 7 686 7 688 l 7 564 q 7 563 7 563 q 8 563 7 563 l 131 563 q 132 563 132 563 q 132 564 132 563 l 132 686 q 132 688 132 688 q 131 688 132 688 l 8 688 m 286 688 l 286 688 q 285 688 285 688 q 285 686 285 688 l 285 564 q 285 563 285 563 q 286 563 285 563 l 408 563 q 410 563 410 563 q 410 564 410 563 l 410 686 q 410 688 410 688 q 408 688 410 688 l 286 688 m 425 688 l 425 688 q 424 688 424 688 q 424 686 424 688 l 424 564 q 424 563 424 563 q 425 563 424 563 l 547 563 q 549 563 549 563 q 549 564 549 563 l 549 686 q 549 688 549 688 q 547 688 549 688 l 425 688 m 8 549 l 8 549 q 7 549 7 549 q 7 547 7 549 l 7 425 q 7 424 7 424 q 8 424 7 424 l 131 424 q 132 424 132 424 q 132 425 132 424 l 132 547 q 132 549 132 549 q 131 549 132 549 l 8 549 m 147 549 l 147 549 q 146 549 146 549 q 146 547 146 549 l 146 425 q 146 424 146 424 q 147 424 146 424 l 269 424 q 271 424 271 424 q 271 425 271 424 l 271 547 q 271 549 271 549 q 269 549 271 549 l 147 549 m 564 549 l 564 549 q 563 549 563 549 q 563 547 563 549 l 563 425 q 563 424 563 424 q 564 424 563 424 l 686 424 q 688 424 688 424 q 688 425 688 424 l 688 547 q 688 549 688 549 q 686 549 688 549 l 564 549 m 564 410 l 564 410 q 563 410 563 410 q 563 408 563 410 l 563 286 q 563 285 563 285 q 564 285 563 285 l 686 285 q 688 285 688 285 q 688 286 688 285 l 688 408 q 688 410 688 410 q 686 410 688 410 l 564 410 m 8 271 l 8 271 q 7 271 7 271 q 7 269 7 271 l 7 147 q 7 146 7 146 q 8 146 7 146 l 131 146 q 132 146 132 146 q 132 147 132 146 l 132 269 q 132 271 132 271 q 131 271 132 271 l 8 271 m 564 271 l 564 271 q 563 271 563 271 q 563 269 563 271 l 563 147 q 563 146 563 146 q 564 146 563 146 l 686 146 q 688 146 688 146 q 688 147 688 146 l 688 269 q 688 271 688 271 q 686 271 688 271 l 564 271 m 147 132 l 147 132 q 146 132 146 132 q 146 131 146 132 l 146 8 q 146 7 146 7 q 147 7 146 7 l 269 7 q 271 7 271 7 q 271 8 271 7 l 271 131 q 271 132 271 132 q 269 132 271 132 l 147 132 m 286 132 l 286 132 q 285 132 285 132 q 285 131 285 132 l 285 8 q 285 7 285 7 q 286 7 285 7 l 408 7 q 410 7 410 7 q 410 8 410 7 l 410 131 q 410 132 410 132 q 408 132 410 132 l 286 132 m 425 132 l 425 132 q 424 132 424 132 q 424 131 424 132 l 424 8 q 424 7 424 7 q 425 7 424 7 l 547 7 q 549 7 549 7 q 549 8 549 7 l 549 131 q 549 132 549 132 q 547 132 549 132 l 425 132 z "},"6":{"ha":833,"x_min":7,"x_max":688,"o":"m 286 965 l 286 965 q 285 965 285 965 q 285 964 285 965 l 285 842 q 285 840 285 840 q 286 840 285 840 l 408 840 q 410 840 410 840 q 410 842 410 840 l 410 964 q 410 965 410 965 q 408 965 410 965 l 286 965 m 425 965 l 425 965 q 424 965 424 965 q 424 964 424 965 l 424 842 q 424 840 424 840 q 425 840 424 840 l 547 840 q 549 840 549 840 q 549 842 549 840 l 549 964 q 549 965 549 965 q 547 965 549 965 l 425 965 m 147 826 l 147 826 q 146 826 146 826 q 146 825 146 826 l 146 703 q 146 701 146 701 q 147 701 146 701 l 269 701 q 271 701 271 701 q 271 703 271 701 l 271 825 q 271 826 271 826 q 269 826 271 826 l 147 826 m 8 688 l 8 688 q 7 688 7 688 q 7 686 7 688 l 7 564 q 7 563 7 563 q 8 563 7 563 l 131 563 q 132 563 132 563 q 132 564 132 563 l 132 686 q 132 688 132 688 q 131 688 132 688 l 8 688 m 8 549 l 8 549 q 7 549 7 549 q 7 547 7 549 l 7 425 q 7 424 7 424 q 8 424 7 424 l 131 424 q 132 424 132 424 q 132 425 132 424 l 132 547 q 132 549 132 549 q 131 549 132 549 l 8 549 m 286 549 l 286 549 q 285 549 285 549 q 285 547 285 549 l 285 425 q 285 424 285 424 q 286 424 285 424 l 408 424 q 410 424 410 424 q 410 425 410 424 l 410 547 q 410 549 410 549 q 408 549 410 549 l 286 549 m 425 549 l 425 549 q 424 549 424 549 q 424 547 424 549 l 424 425 q 424 424 424 424 q 425 424 424 424 l 547 424 q 549 424 549 424 q 549 425 549 424 l 549 547 q 549 549 549 549 q 547 549 549 549 l 425 549 m 8 410 l 8 410 q 7 410 7 410 q 7 408 7 410 l 7 286 q 7 285 7 285 q 8 285 7 285 l 131 285 q 132 285 132 285 q 132 286 132 285 l 132 408 q 132 410 132 410 q 131 410 132 410 l 8 410 m 147 410 l 147 410 q 146 410 146 410 q 146 408 146 410 l 146 286 q 146 285 146 285 q 147 285 146 285 l 269 285 q 271 285 271 285 q 271 286 271 285 l 271 408 q 271 410 271 410 q 269 410 271 410 l 147 410 m 564 410 l 564 410 q 563 410 563 410 q 563 408 563 410 l 563 286 q 563 285 563 285 q 564 285 563 285 l 686 285 q 688 285 688 285 q 688 286 688 285 l 688 408 q 688 410 688 410 q 686 410 688 410 l 564 410 m 8 271 l 8 271 q 7 271 7 271 q 7 269 7 271 l 7 147 q 7 146 7 146 q 8 146 7 146 l 131 146 q 132 146 132 146 q 132 147 132 146 l 132 269 q 132 271 132 271 q 131 271 132 271 l 8 271 m 564 271 l 564 271 q 563 271 563 271 q 563 269 563 271 l 563 147 q 563 146 563 146 q 564 146 563 146 l 686 146 q 688 146 688 146 q 688 147 688 146 l 688 269 q 688 271 688 271 q 686 271 688 271 l 564 271 m 147 132 l 147 132 q 146 132 146 132 q 146 131 146 132 l 146 8 q 146 7 146 7 q 147 7 146 7 l 269 7 q 271 7 271 7 q 271 8 271 7 l 271 131 q 271 132 271 132 q 269 132 271 132 l 147 132 m 286 132 l 286 132 q 285 132 285 132 q 285 131 285 132 l 285 8 q 285 7 285 7 q 286 7 285 7 l 408 7 q 410 7 410 7 q 410 8 410 7 l 410 131 q 410 132 410 132 q 408 132 410 132 l 286 132 m 425 132 l 425 132 q 424 132 424 132 q 424 131 424 132 l 424 8 q 424 7 424 7 q 425 7 424 7 l 547 7 q 549 7 549 7 q 549 8 549 7 l 549 131 q 549 132 549 132 q 547 132 549 132 l 425 132 z "},"7":{"ha":833,"x_min":7,"x_max":688,"o":"m 8 965 l 8 965 q 7 965 7 965 q 7 964 7 965 l 7 842 q 7 840 7 840 q 8 840 7 840 l 131 840 q 132 840 132 840 q 132 842 132 840 l 132 964 q 132 965 132 965 q 131 965 132 965 l 8 965 m 147 965 l 147 965 q 146 965 146 965 q 146 964 146 965 l 146 842 q 146 840 146 840 q 147 840 146 840 l 269 840 q 271 840 271 840 q 271 842 271 840 l 271 964 q 271 965 271 965 q 269 965 271 965 l 147 965 m 286 965 l 286 965 q 285 965 285 965 q 285 964 285 965 l 285 842 q 285 840 285 840 q 286 840 285 840 l 408 840 q 410 840 410 840 q 410 842 410 840 l 410 964 q 410 965 410 965 q 408 965 410 965 l 286 965 m 425 965 l 425 965 q 424 965 424 965 q 424 964 424 965 l 424 842 q 424 840 424 840 q 425 840 424 840 l 547 840 q 549 840 549 840 q 549 842 549 840 l 549 964 q 549 965 549 965 q 547 965 549 965 l 425 965 m 564 965 l 564 965 q 563 965 563 965 q 563 964 563 965 l 563 842 q 563 840 563 840 q 564 840 563 840 l 686 840 q 688 840 688 840 q 688 842 688 840 l 688 964 q 688 965 688 965 q 686 965 688 965 l 564 965 m 564 826 l 564 826 q 563 826 563 826 q 563 825 563 826 l 563 703 q 563 701 563 701 q 564 701 563 701 l 686 701 q 688 701 688 701 q 688 703 688 701 l 688 825 q 688 826 688 826 q 686 826 688 826 l 564 826 m 425 688 l 425 688 q 424 688 424 688 q 424 686 424 688 l 424 564 q 424 563 424 563 q 425 563 424 563 l 547 563 q 549 563 549 563 q 549 564 549 563 l 549 686 q 549 688 549 688 q 547 688 549 688 l 425 688 m 425 549 l 425 549 q 424 549 424 549 q 424 547 424 549 l 424 425 q 424 424 424 424 q 425 424 424 424 l 547 424 q 549 424 549 424 q 549 425 549 424 l 549 547 q 549 549 549 549 q 547 549 549 549 l 425 549 m 286 410 l 286 410 q 285 410 285 410 q 285 408 285 410 l 285 286 q 285 285 285 285 q 286 285 285 285 l 408 285 q 410 285 410 285 q 410 286 410 285 l 410 408 q 410 410 410 410 q 408 410 410 410 l 286 410 m 147 271 l 147 271 q 146 271 146 271 q 146 269 146 271 l 146 147 q 146 146 146 146 q 147 146 146 146 l 269 146 q 271 146 271 146 q 271 147 271 146 l 271 269 q 271 271 271 271 q 269 271 271 271 l 147 271 m 147 132 l 147 132 q 146 132 146 132 q 146 131 146 132 l 146 8 q 146 7 146 7 q 147 7 146 7 l 269 7 q 271 7 271 7 q 271 8 271 7 l 271 131 q 271 132 271 132 q 269 132 271 132 l 147 132 z "},"8":{"ha":833,"x_min":7,"x_max":688,"o":"m 147 965 l 147 965 q 146 965 146 965 q 146 964 146 965 l 146 842 q 146 840 146 840 q 147 840 146 840 l 269 840 q 271 840 271 840 q 271 842 271 840 l 271 964 q 271 965 271 965 q 269 965 271 965 l 147 965 m 286 965 l 286 965 q 285 965 285 965 q 285 964 285 965 l 285 842 q 285 840 285 840 q 286 840 285 840 l 408 840 q 410 840 410 840 q 410 842 410 840 l 410 964 q 410 965 410 965 q 408 965 410 965 l 286 965 m 425 965 l 425 965 q 424 965 424 965 q 424 964 424 965 l 424 842 q 424 840 424 840 q 425 840 424 840 l 547 840 q 549 840 549 840 q 549 842 549 840 l 549 964 q 549 965 549 965 q 547 965 549 965 l 425 965 m 8 826 l 8 826 q 7 826 7 826 q 7 825 7 826 l 7 703 q 7 701 7 701 q 8 701 7 701 l 131 701 q 132 701 132 701 q 132 703 132 701 l 132 825 q 132 826 132 826 q 131 826 132 826 l 8 826 m 564 826 l 564 826 q 563 826 563 826 q 563 825 563 826 l 563 703 q 563 701 563 701 q 564 701 563 701 l 686 701 q 688 701 688 701 q 688 703 688 701 l 688 825 q 688 826 688 826 q 686 826 688 826 l 564 826 m 8 688 l 8 688 q 7 688 7 688 q 7 686 7 688 l 7 564 q 7 563 7 563 q 8 563 7 563 l 131 563 q 132 563 132 563 q 132 564 132 563 l 132 686 q 132 688 132 688 q 131 688 132 688 l 8 688 m 564 688 l 564 688 q 563 688 563 688 q 563 686 563 688 l 563 564 q 563 563 563 563 q 564 563 563 563 l 686 563 q 688 563 688 563 q 688 564 688 563 l 688 686 q 688 688 688 688 q 686 688 688 688 l 564 688 m 147 549 l 147 549 q 146 549 146 549 q 146 547 146 549 l 146 425 q 146 424 146 424 q 147 424 146 424 l 269 424 q 271 424 271 424 q 271 425 271 424 l 271 547 q 271 549 271 549 q 269 549 271 549 l 147 549 m 286 549 l 286 549 q 285 549 285 549 q 285 547 285 549 l 285 425 q 285 424 285 424 q 286 424 285 424 l 408 424 q 410 424 410 424 q 410 425 410 424 l 410 547 q 410 549 410 549 q 408 549 410 549 l 286 549 m 425 549 l 425 549 q 424 549 424 549 q 424 547 424 549 l 424 425 q 424 424 424 424 q 425 424 424 424 l 547 424 q 549 424 549 424 q 549 425 549 424 l 549 547 q 549 549 549 549 q 547 549 549 549 l 425 549 m 8 410 l 8 410 q 7 410 7 410 q 7 408 7 410 l 7 286 q 7 285 7 285 q 8 285 7 285 l 131 285 q 132 285 132 285 q 132 286 132 285 l 132 408 q 132 410 132 410 q 131 410 132 410 l 8 410 m 564 410 l 564 410 q 563 410 563 410 q 563 408 563 410 l 563 286 q 563 285 563 285 q 564 285 563 285 l 686 285 q 688 285 688 285 q 688 286 688 285 l 688 408 q 688 410 688 410 q 686 410 688 410 l 564 410 m 8 271 l 8 271 q 7 271 7 271 q 7 269 7 271 l 7 147 q 7 146 7 146 q 8 146 7 146 l 131 146 q 132 146 132 146 q 132 147 132 146 l 132 269 q 132 271 132 271 q 131 271 132 271 l 8 271 m 564 271 l 564 271 q 563 271 563 271 q 563 269 563 271 l 563 147 q 563 146 563 146 q 564 146 563 146 l 686 146 q 688 146 688 146 q 688 147 688 146 l 688 269 q 688 271 688 271 q 686 271 688 271 l 564 271 m 147 132 l 147 132 q 146 132 146 132 q 146 131 146 132 l 146 8 q 146 7 146 7 q 147 7 146 7 l 269 7 q 271 7 271 7 q 271 8 271 7 l 271 131 q 271 132 271 132 q 269 132 271 132 l 147 132 m 286 132 l 286 132 q 285 132 285 132 q 285 131 285 132 l 285 8 q 285 7 285 7 q 286 7 285 7 l 408 7 q 410 7 410 7 q 410 8 410 7 l 410 131 q 410 132 410 132 q 408 132 410 132 l 286 132 m 425 132 l 425 132 q 424 132 424 132 q 424 131 424 132 l 424 8 q 424 7 424 7 q 425 7 424 7 l 547 7 q 549 7 549 7 q 549 8 549 7 l 549 131 q 549 132 549 132 q 547 132 549 132 l 425 132 z "},"9":{"ha":833,"x_min":7,"x_max":688,"o":"m 147 965 l 147 965 q 146 965 146 965 q 146 964 146 965 l 146 842 q 146 840 146 840 q 147 840 146 840 l 269 840 q 271 840 271 840 q 271 842 271 840 l 271 964 q 271 965 271 965 q 269 965 271 965 l 147 965 m 286 965 l 286 965 q 285 965 285 965 q 285 964 285 965 l 285 842 q 285 840 285 840 q 286 840 285 840 l 408 840 q 410 840 410 840 q 410 842 410 840 l 410 964 q 410 965 410 965 q 408 965 410 965 l 286 965 m 425 965 l 425 965 q 424 965 424 965 q 424 964 424 965 l 424 842 q 424 840 424 840 q 425 840 424 840 l 547 840 q 549 840 549 840 q 549 842 549 840 l 549 964 q 549 965 549 965 q 547 965 549 965 l 425 965 m 8 826 l 8 826 q 7 826 7 826 q 7 825 7 826 l 7 703 q 7 701 7 701 q 8 701 7 701 l 131 701 q 132 701 132 701 q 132 703 132 701 l 132 825 q 132 826 132 826 q 131 826 132 826 l 8 826 m 564 826 l 564 826 q 563 826 563 826 q 563 825 563 826 l 563 703 q 563 701 563 701 q 564 701 563 701 l 686 701 q 688 701 688 701 q 688 703 688 701 l 688 825 q 688 826 688 826 q 686 826 688 826 l 564 826 m 8 688 l 8 688 q 7 688 7 688 q 7 686 7 688 l 7 564 q 7 563 7 563 q 8 563 7 563 l 131 563 q 132 563 132 563 q 132 564 132 563 l 132 686 q 132 688 132 688 q 131 688 132 688 l 8 688 m 425 688 l 425 688 q 424 688 424 688 q 424 686 424 688 l 424 564 q 424 563 424 563 q 425 563 424 563 l 547 563 q 549 563 549 563 q 549 564 549 563 l 549 686 q 549 688 549 688 q 547 688 549 688 l 425 688 m 564 688 l 564 688 q 563 688 563 688 q 563 686 563 688 l 563 564 q 563 563 563 563 q 564 563 563 563 l 686 563 q 688 563 688 563 q 688 564 688 563 l 688 686 q 688 688 688 688 q 686 688 688 688 l 564 688 m 147 549 l 147 549 q 146 549 146 549 q 146 547 146 549 l 146 425 q 146 424 146 424 q 147 424 146 424 l 269 424 q 271 424 271 424 q 271 425 271 424 l 271 547 q 271 549 271 549 q 269 549 271 549 l 147 549 m 286 549 l 286 549 q 285 549 285 549 q 285 547 285 549 l 285 425 q 285 424 285 424 q 286 424 285 424 l 408 424 q 410 424 410 424 q 410 425 410 424 l 410 547 q 410 549 410 549 q 408 549 410 549 l 286 549 m 564 549 l 564 549 q 563 549 563 549 q 563 547 563 549 l 563 425 q 563 424 563 424 q 564 424 563 424 l 686 424 q 688 424 688 424 q 688 425 688 424 l 688 547 q 688 549 688 549 q 686 549 688 549 l 564 549 m 564 410 l 564 410 q 563 410 563 410 q 563 408 563 410 l 563 286 q 563 285 563 285 q 564 285 563 285 l 686 285 q 688 285 688 285 q 688 286 688 285 l 688 408 q 688 410 688 410 q 686 410 688 410 l 564 410 m 425 271 l 425 271 q 424 271 424 271 q 424 269 424 271 l 424 147 q 424 146 424 146 q 425 146 424 146 l 547 146 q 549 146 549 146 q 549 147 549 146 l 549 269 q 549 271 549 271 q 547 271 549 271 l 425 271 m 147 132 l 147 132 q 146 132 146 132 q 146 131 146 132 l 146 8 q 146 7 146 7 q 147 7 146 7 l 269 7 q 271 7 271 7 q 271 8 271 7 l 271 131 q 271 132 271 132 q 269 132 271 132 l 147 132 m 286 132 l 286 132 q 285 132 285 132 q 285 131 285 132 l 285 8 q 285 7 285 7 q 286 7 285 7 l 408 7 q 410 7 410 7 q 410 8 410 7 l 410 131 q 410 132 410 132 q 408 132 410 132 l 286 132 z "},"A":{"ha":833,"x_min":7,"x_max":688,"o":"m 286 965 l 286 965 q 285 965 285 965 q 285 964 285 965 l 285 842 q 285 840 285 840 q 286 840 285 840 l 408 840 q 410 840 410 840 q 410 842 410 840 l 410 964 q 410 965 410 965 q 408 965 410 965 l 286 965 m 147 826 l 147 826 q 146 826 146 826 q 146 825 146 826 l 146 703 q 146 701 146 701 q 147 701 146 701 l 269 701 q 271 701 271 701 q 271 703 271 701 l 271 825 q 271 826 271 826 q 269 826 271 826 l 147 826 m 425 826 l 425 826 q 424 826 424 826 q 424 825 424 826 l 424 703 q 424 701 424 701 q 425 701 424 701 l 547 701 q 549 701 549 701 q 549 703 549 701 l 549 825 q 549 826 549 826 q 547 826 549 826 l 425 826 m 8 688 l 8 688 q 7 688 7 688 q 7 686 7 688 l 7 564 q 7 563 7 563 q 8 563 7 563 l 131 563 q 132 563 132 563 q 132 564 132 563 l 132 686 q 132 688 132 688 q 131 688 132 688 l 8 688 m 564 688 l 564 688 q 563 688 563 688 q 563 686 563 688 l 563 564 q 563 563 563 563 q 564 563 563 563 l 686 563 q 688 563 688 563 q 688 564 688 563 l 688 686 q 688 688 688 688 q 686 688 688 688 l 564 688 m 8 549 l 8 549 q 7 549 7 549 q 7 547 7 549 l 7 425 q 7 424 7 424 q 8 424 7 424 l 131 424 q 132 424 132 424 q 132 425 132 424 l 132 547 q 132 549 132 549 q 131 549 132 549 l 8 549 m 564 549 l 564 549 q 563 549 563 549 q 563 547 563 549 l 563 425 q 563 424 563 424 q 564 424 563 424 l 686 424 q 688 424 688 424 q 688 425 688 424 l 688 547 q 688 549 688 549 q 686 549 688 549 l 564 549 m 8 410 l 8 410 q 7 410 7 410 q 7 408 7 410 l 7 286 q 7 285 7 285 q 8 285 7 285 l 131 285 q 132 285 132 285 q 132 286 132 285 l 132 408 q 132 410 132 410 q 131 410 132 410 l 8 410 m 147 410 l 147 410 q 146 410 146 410 q 146 408 146 410 l 146 286 q 146 285 146 285 q 147 285 146 285 l 269 285 q 271 285 271 285 q 271 286 271 285 l 271 408 q 271 410 271 410 q 269 410 271 410 l 147 410 m 286 410 l 286 410 q 285 410 285 410 q 285 408 285 410 l 285 286 q 285 285 285 285 q 286 285 285 285 l 408 285 q 410 285 410 285 q 410 286 410 285 l 410 408 q 410 410 410 410 q 408 410 410 410 l 286 410 m 425 410 l 425 410 q 424 410 424 410 q 424 408 424 410 l 424 286 q 424 285 424 285 q 425 285 424 285 l 547 285 q 549 285 549 285 q 549 286 549 285 l 549 408 q 549 410 549 410 q 547 410 549 410 l 425 410 m 564 410 l 564 410 q 563 410 563 410 q 563 408 563 410 l 563 286 q 563 285 563 285 q 564 285 563 285 l 686 285 q 688 285 688 285 q 688 286 688 285 l 688 408 q 688 410 688 410 q 686 410 688 410 l 564 410 m 8 271 l 8 271 q 7 271 7 271 q 7 269 7 271 l 7 147 q 7 146 7 146 q 8 146 7 146 l 131 146 q 132 146 132 146 q 132 147 132 146 l 132 269 q 132 271 132 271 q 131 271 132 271 l 8 271 m 564 271 l 564 271 q 563 271 563 271 q 563 269 563 271 l 563 147 q 563 146 563 146 q 564 146 563 146 l 686 146 q 688 146 688 146 q 688 147 688 146 l 688 269 q 688 271 688 271 q 686 271 688 271 l 564 271 m 8 132 l 8 132 q 7 132 7 132 q 7 131 7 132 l 7 8 q 7 7 7 7 q 8 7 7 7 l 131 7 q 132 7 132 7 q 132 8 132 7 l 132 131 q 132 132 132 132 q 131 132 132 132 l 8 132 m 564 132 l 564 132 q 563 132 563 132 q 563 131 563 132 l 563 8 q 563 7 563 7 q 564 7 563 7 l 686 7 q 688 7 688 7 q 688 8 688 7 l 688 131 q 688 132 688 132 q 686 132 688 132 l 564 132 z "},"Æ":{"ha":833,"x_min":7,"x_max":688,"o":"m 286 965 l 286 965 q 285 965 285 965 q 285 964 285 965 l 285 842 q 285 840 285 840 q 286 840 285 840 l 408 840 q 410 840 410 840 q 410 842 410 840 l 410 964 q 410 965 410 965 q 408 965 410 965 l 286 965 m 425 965 l 425 965 q 424 965 424 965 q 424 964 424 965 l 424 842 q 424 840 424 840 q 425 840 424 840 l 547 840 q 549 840 549 840 q 549 842 549 840 l 549 964 q 549 965 549 965 q 547 965 549 965 l 425 965 m 564 965 l 564 965 q 563 965 563 965 q 563 964 563 965 l 563 842 q 563 840 563 840 q 564 840 563 840 l 686 840 q 688 840 688 840 q 688 842 688 840 l 688 964 q 688 965 688 965 q 686 965 688 965 l 564 965 m 147 826 l 147 826 q 146 826 146 826 q 146 825 146 826 l 146 703 q 146 701 146 701 q 147 701 146 701 l 269 701 q 271 701 271 701 q 271 703 271 701 l 271 825 q 271 826 271 826 q 269 826 271 826 l 147 826 m 286 826 l 286 826 q 285 826 285 826 q 285 825 285 826 l 285 703 q 285 701 285 701 q 286 701 285 701 l 408 701 q 410 701 410 701 q 410 703 410 701 l 410 825 q 410 826 410 826 q 408 826 410 826 l 286 826 m 8 688 l 8 688 q 7 688 7 688 q 7 686 7 688 l 7 564 q 7 563 7 563 q 8 563 7 563 l 131 563 q 132 563 132 563 q 132 564 132 563 l 132 686 q 132 688 132 688 q 131 688 132 688 l 8 688 m 286 688 l 286 688 q 285 688 285 688 q 285 686 285 688 l 285 564 q 285 563 285 563 q 286 563 285 563 l 408 563 q 410 563 410 563 q 410 564 410 563 l 410 686 q 410 688 410 688 q 408 688 410 688 l 286 688 m 8 549 l 8 549 q 7 549 7 549 q 7 547 7 549 l 7 425 q 7 424 7 424 q 8 424 7 424 l 131 424 q 132 424 132 424 q 132 425 132 424 l 132 547 q 132 549 132 549 q 131 549 132 549 l 8 549 m 286 549 l 286 549 q 285 549 285 549 q 285 547 285 549 l 285 425 q 285 424 285 424 q 286 424 285 424 l 408 424 q 410 424 410 424 q 410 425 410 424 l 410 547 q 410 549 410 549 q 408 549 410 549 l 286 549 m 425 549 l 425 549 q 424 549 424 549 q 424 547 424 549 l 424 425 q 424 424 424 424 q 425 424 424 424 l 547 424 q 549 424 549 424 q 549 425 549 424 l 549 547 q 549 549 549 549 q 547 549 549 549 l 425 549 m 564 549 l 564 549 q 563 549 563 549 q 563 547 563 549 l 563 425 q 563 424 563 424 q 564 424 563 424 l 686 424 q 688 424 688 424 q 688 425 688 424 l 688 547 q 688 549 688 549 q 686 549 688 549 l 564 549 m 8 410 l 8 410 q 7 410 7 410 q 7 408 7 410 l 7 286 q 7 285 7 285 q 8 285 7 285 l 131 285 q 132 285 132 285 q 132 286 132 285 l 132 408 q 132 410 132 410 q 131 410 132 410 l 8 410 m 147 410 l 147 410 q 146 410 146 410 q 146 408 146 410 l 146 286 q 146 285 146 285 q 147 285 146 285 l 269 285 q 271 285 271 285 q 271 286 271 285 l 271 408 q 271 410 271 410 q 269 410 271 410 l 147 410 m 286 410 l 286 410 q 285 410 285 410 q 285 408 285 410 l 285 286 q 285 285 285 285 q 286 285 285 285 l 408 285 q 410 285 410 285 q 410 286 410 285 l 410 408 q 410 410 410 410 q 408 410 410 410 l 286 410 m 8 271 l 8 271 q 7 271 7 271 q 7 269 7 271 l 7 147 q 7 146 7 146 q 8 146 7 146 l 131 146 q 132 146 132 146 q 132 147 132 146 l 132 269 q 132 271 132 271 q 131 271 132 271 l 8 271 m 286 271 l 286 271 q 285 271 285 271 q 285 269 285 271 l 285 147 q 285 146 285 146 q 286 146 285 146 l 408 146 q 410 146 410 146 q 410 147 410 146 l 410 269 q 410 271 410 271 q 408 271 410 271 l 286 271 m 8 132 l 8 132 q 7 132 7 132 q 7 131 7 132 l 7 8 q 7 7 7 7 q 8 7 7 7 l 131 7 q 132 7 132 7 q 132 8 132 7 l 132 131 q 132 132 132 132 q 131 132 132 132 l 8 132 m 286 132 l 286 132 q 285 132 285 132 q 285 131 285 132 l 285 8 q 285 7 285 7 q 286 7 285 7 l 408 7 q 410 7 410 7 q 410 8 410 7 l 410 131 q 410 132 410 132 q 408 132 410 132 l 286 132 m 425 132 l 425 132 q 424 132 424 132 q 424 131 424 132 l 424 8 q 424 7 424 7 q 425 7 424 7 l 547 7 q 549 7 549 7 q 549 8 549 7 l 549 131 q 549 132 549 132 q 547 132 549 132 l 425 132 m 564 132 l 564 132 q 563 132 563 132 q 563 131 563 132 l 563 8 q 563 7 563 7 q 564 7 563 7 l 686 7 q 688 7 688 7 q 688 8 688 7 l 688 131 q 688 132 688 132 q 686 132 688 132 l 564 132 z "},"Á":{"ha":833,"x_min":7,"x_max":688,"o":"m 425 1104 l 425 1104 q 424 1104 424 1104 q 424 1103 424 1104 l 424 981 q 424 979 424 979 q 425 979 424 979 l 547 979 q 549 979 549 979 q 549 981 549 979 l 549 1103 q 549 1104 549 1104 q 547 1104 549 1104 l 425 1104 m 286 965 l 286 965 q 285 965 285 965 q 285 964 285 965 l 285 842 q 285 840 285 840 q 286 840 285 840 l 408 840 q 410 840 410 840 q 410 842 410 840 l 410 964 q 410 965 410 965 q 408 965 410 965 l 286 965 m 147 826 l 147 826 q 146 826 146 826 q 146 825 146 826 l 146 703 q 146 701 146 701 q 147 701 146 701 l 269 701 q 271 701 271 701 q 271 703 271 701 l 271 825 q 271 826 271 826 q 269 826 271 826 l 147 826 m 286 826 l 286 826 q 285 826 285 826 q 285 825 285 826 l 285 703 q 285 701 285 701 q 286 701 285 701 l 408 701 q 410 701 410 701 q 410 703 410 701 l 410 825 q 410 826 410 826 q 408 826 410 826 l 286 826 m 425 826 l 425 826 q 424 826 424 826 q 424 825 424 826 l 424 703 q 424 701 424 701 q 425 701 424 701 l 547 701 q 549 701 549 701 q 549 703 549 701 l 549 825 q 549 826 549 826 q 547 826 549 826 l 425 826 m 8 688 l 8 688 q 7 688 7 688 q 7 686 7 688 l 7 564 q 7 563 7 563 q 8 563 7 563 l 131 563 q 132 563 132 563 q 132 564 132 563 l 132 686 q 132 688 132 688 q 131 688 132 688 l 8 688 m 564 688 l 564 688 q 563 688 563 688 q 563 686 563 688 l 563 564 q 563 563 563 563 q 564 563 563 563 l 686 563 q 688 563 688 563 q 688 564 688 563 l 688 686 q 688 688 688 688 q 686 688 688 688 l 564 688 m 8 549 l 8 549 q 7 549 7 549 q 7 547 7 549 l 7 425 q 7 424 7 424 q 8 424 7 424 l 131 424 q 132 424 132 424 q 132 425 132 424 l 132 547 q 132 549 132 549 q 131 549 132 549 l 8 549 m 564 549 l 564 549 q 563 549 563 549 q 563 547 563 549 l 563 425 q 563 424 563 424 q 564 424 563 424 l 686 424 q 688 424 688 424 q 688 425 688 424 l 688 547 q 688 549 688 549 q 686 549 688 549 l 564 549 m 8 410 l 8 410 q 7 410 7 410 q 7 408 7 410 l 7 286 q 7 285 7 285 q 8 285 7 285 l 131 285 q 132 285 132 285 q 132 286 132 285 l 132 408 q 132 410 132 410 q 131 410 132 410 l 8 410 m 147 410 l 147 410 q 146 410 146 410 q 146 408 146 410 l 146 286 q 146 285 146 285 q 147 285 146 285 l 269 285 q 271 285 271 285 q 271 286 271 285 l 271 408 q 271 410 271 410 q 269 410 271 410 l 147 410 m 286 410 l 286 410 q 285 410 285 410 q 285 408 285 410 l 285 286 q 285 285 285 285 q 286 285 285 285 l 408 285 q 410 285 410 285 q 410 286 410 285 l 410 408 q 410 410 410 410 q 408 410 410 410 l 286 410 m 425 410 l 425 410 q 424 410 424 410 q 424 408 424 410 l 424 286 q 424 285 424 285 q 425 285 424 285 l 547 285 q 549 285 549 285 q 549 286 549 285 l 549 408 q 549 410 549 410 q 547 410 549 410 l 425 410 m 564 410 l 564 410 q 563 410 563 410 q 563 408 563 410 l 563 286 q 563 285 563 285 q 564 285 563 285 l 686 285 q 688 285 688 285 q 688 286 688 285 l 688 408 q 688 410 688 410 q 686 410 688 410 l 564 410 m 8 271 l 8 271 q 7 271 7 271 q 7 269 7 271 l 7 147 q 7 146 7 146 q 8 146 7 146 l 131 146 q 132 146 132 146 q 132 147 132 146 l 132 269 q 132 271 132 271 q 131 271 132 271 l 8 271 m 564 271 l 564 271 q 563 271 563 271 q 563 269 563 271 l 563 147 q 563 146 563 146 q 564 146 563 146 l 686 146 q 688 146 688 146 q 688 147 688 146 l 688 269 q 688 271 688 271 q 686 271 688 271 l 564 271 m 8 132 l 8 132 q 7 132 7 132 q 7 131 7 132 l 7 8 q 7 7 7 7 q 8 7 7 7 l 131 7 q 132 7 132 7 q 132 8 132 7 l 132 131 q 132 132 132 132 q 131 132 132 132 l 8 132 m 564 132 l 564 132 q 563 132 563 132 q 563 131 563 132 l 563 8 q 563 7 563 7 q 564 7 563 7 l 686 7 q 688 7 688 7 q 688 8 688 7 l 688 131 q 688 132 688 132 q 686 132 688 132 l 564 132 z "},"Ă":{"ha":833,"x_min":7,"x_max":688,"o":"m 8 1104 l 8 1104 q 7 1104 7 1104 q 7 1103 7 1104 l 7 981 q 7 979 7 979 q 8 979 7 979 l 131 979 q 132 979 132 979 q 132 981 132 979 l 132 1103 q 132 1104 132 1104 q 131 1104 132 1104 l 8 1104 m 564 1104 l 564 1104 q 563 1104 563 1104 q 563 1103 563 1104 l 563 981 q 563 979 563 979 q 564 979 563 979 l 686 979 q 688 979 688 979 q 688 981 688 979 l 688 1103 q 688 1104 688 1104 q 686 1104 688 1104 l 564 1104 m 147 965 l 147 965 q 146 965 146 965 q 146 964 146 965 l 146 842 q 146 840 146 840 q 147 840 146 840 l 269 840 q 271 840 271 840 q 271 842 271 840 l 271 964 q 271 965 271 965 q 269 965 271 965 l 147 965 m 286 965 l 286 965 q 285 965 285 965 q 285 964 285 965 l 285 842 q 285 840 285 840 q 286 840 285 840 l 408 840 q 410 840 410 840 q 410 842 410 840 l 410 964 q 410 965 410 965 q 408 965 410 965 l 286 965 m 425 965 l 425 965 q 424 965 424 965 q 424 964 424 965 l 424 842 q 424 840 424 840 q 425 840 424 840 l 547 840 q 549 840 549 840 q 549 842 549 840 l 549 964 q 549 965 549 965 q 547 965 549 965 l 425 965 m 147 826 l 147 826 q 146 826 146 826 q 146 825 146 826 l 146 703 q 146 701 146 701 q 147 701 146 701 l 269 701 q 271 701 271 701 q 271 703 271 701 l 271 825 q 271 826 271 826 q 269 826 271 826 l 147 826 m 286 826 l 286 826 q 285 826 285 826 q 285 825 285 826 l 285 703 q 285 701 285 701 q 286 701 285 701 l 408 701 q 410 701 410 701 q 410 703 410 701 l 410 825 q 410 826 410 826 q 408 826 410 826 l 286 826 m 425 826 l 425 826 q 424 826 424 826 q 424 825 424 826 l 424 703 q 424 701 424 701 q 425 701 424 701 l 547 701 q 549 701 549 701 q 549 703 549 701 l 549 825 q 549 826 549 826 q 547 826 549 826 l 425 826 m 8 688 l 8 688 q 7 688 7 688 q 7 686 7 688 l 7 564 q 7 563 7 563 q 8 563 7 563 l 131 563 q 132 563 132 563 q 132 564 132 563 l 132 686 q 132 688 132 688 q 131 688 132 688 l 8 688 m 564 688 l 564 688 q 563 688 563 688 q 563 686 563 688 l 563 564 q 563 563 563 563 q 564 563 563 563 l 686 563 q 688 563 688 563 q 688 564 688 563 l 688 686 q 688 688 688 688 q 686 688 688 688 l 564 688 m 8 549 l 8 549 q 7 549 7 549 q 7 547 7 549 l 7 425 q 7 424 7 424 q 8 424 7 424 l 131 424 q 132 424 132 424 q 132 425 132 424 l 132 547 q 132 549 132 549 q 131 549 132 549 l 8 549 m 564 549 l 564 549 q 563 549 563 549 q 563 547 563 549 l 563 425 q 563 424 563 424 q 564 424 563 424 l 686 424 q 688 424 688 424 q 688 425 688 424 l 688 547 q 688 549 688 549 q 686 549 688 549 l 564 549 m 8 410 l 8 410 q 7 410 7 410 q 7 408 7 410 l 7 286 q 7 285 7 285 q 8 285 7 285 l 131 285 q 132 285 132 285 q 132 286 132 285 l 132 408 q 132 410 132 410 q 131 410 132 410 l 8 410 m 147 410 l 147 410 q 146 410 146 410 q 146 408 146 410 l 146 286 q 146 285 146 285 q 147 285 146 285 l 269 285 q 271 285 271 285 q 271 286 271 285 l 271 408 q 271 410 271 410 q 269 410 271 410 l 147 410 m 286 410 l 286 410 q 285 410 285 410 q 285 408 285 410 l 285 286 q 285 285 285 285 q 286 285 285 285 l 408 285 q 410 285 410 285 q 410 286 410 285 l 410 408 q 410 410 410 410 q 408 410 410 410 l 286 410 m 425 410 l 425 410 q 424 410 424 410 q 424 408 424 410 l 424 286 q 424 285 424 285 q 425 285 424 285 l 547 285 q 549 285 549 285 q 549 286 549 285 l 549 408 q 549 410 549 410 q 547 410 549 410 l 425 410 m 564 410 l 564 410 q 563 410 563 410 q 563 408 563 410 l 563 286 q 563 285 563 285 q 564 285 563 285 l 686 285 q 688 285 688 285 q 688 286 688 285 l 688 408 q 688 410 688 410 q 686 410 688 410 l 564 410 m 8 271 l 8 271 q 7 271 7 271 q 7 269 7 271 l 7 147 q 7 146 7 146 q 8 146 7 146 l 131 146 q 132 146 132 146 q 132 147 132 146 l 132 269 q 132 271 132 271 q 131 271 132 271 l 8 271 m 564 271 l 564 271 q 563 271 563 271 q 563 269 563 271 l 563 147 q 563 146 563 146 q 564 146 563 146 l 686 146 q 688 146 688 146 q 688 147 688 146 l 688 269 q 688 271 688 271 q 686 271 688 271 l 564 271 m 8 132 l 8 132 q 7 132 7 132 q 7 131 7 132 l 7 8 q 7 7 7 7 q 8 7 7 7 l 131 7 q 132 7 132 7 q 132 8 132 7 l 132 131 q 132 132 132 132 q 131 132 132 132 l 8 132 m 564 132 l 564 132 q 563 132 563 132 q 563 131 563 132 l 563 8 q 563 7 563 7 q 564 7 563 7 l 686 7 q 688 7 688 7 q 688 8 688 7 l 688 131 q 688 132 688 132 q 686 132 688 132 l 564 132 z "},"Â":{"ha":833,"x_min":7,"x_max":688,"o":"m 286 1104 l 286 1104 q 285 1104 285 1104 q 285 1103 285 1104 l 285 981 q 285 979 285 979 q 286 979 285 979 l 408 979 q 410 979 410 979 q 410 981 410 979 l 410 1103 q 410 1104 410 1104 q 408 1104 410 1104 l 286 1104 m 147 965 l 147 965 q 146 965 146 965 q 146 964 146 965 l 146 842 q 146 840 146 840 q 147 840 146 840 l 269 840 q 271 840 271 840 q 271 842 271 840 l 271 964 q 271 965 271 965 q 269 965 271 965 l 147 965 m 425 965 l 425 965 q 424 965 424 965 q 424 964 424 965 l 424 842 q 424 840 424 840 q 425 840 424 840 l 547 840 q 549 840 549 840 q 549 842 549 840 l 549 964 q 549 965 549 965 q 547 965 549 965 l 425 965 m 147 826 l 147 826 q 146 826 146 826 q 146 825 146 826 l 146 703 q 146 701 146 701 q 147 701 146 701 l 269 701 q 271 701 271 701 q 271 703 271 701 l 271 825 q 271 826 271 826 q 269 826 271 826 l 147 826 m 286 826 l 286 826 q 285 826 285 826 q 285 825 285 826 l 285 703 q 285 701 285 701 q 286 701 285 701 l 408 701 q 410 701 410 701 q 410 703 410 701 l 410 825 q 410 826 410 826 q 408 826 410 826 l 286 826 m 425 826 l 425 826 q 424 826 424 826 q 424 825 424 826 l 424 703 q 424 701 424 701 q 425 701 424 701 l 547 701 q 549 701 549 701 q 549 703 549 701 l 549 825 q 549 826 549 826 q 547 826 549 826 l 425 826 m 8 688 l 8 688 q 7 688 7 688 q 7 686 7 688 l 7 564 q 7 563 7 563 q 8 563 7 563 l 131 563 q 132 563 132 563 q 132 564 132 563 l 132 686 q 132 688 132 688 q 131 688 132 688 l 8 688 m 564 688 l 564 688 q 563 688 563 688 q 563 686 563 688 l 563 564 q 563 563 563 563 q 564 563 563 563 l 686 563 q 688 563 688 563 q 688 564 688 563 l 688 686 q 688 688 688 688 q 686 688 688 688 l 564 688 m 8 549 l 8 549 q 7 549 7 549 q 7 547 7 549 l 7 425 q 7 424 7 424 q 8 424 7 424 l 131 424 q 132 424 132 424 q 132 425 132 424 l 132 547 q 132 549 132 549 q 131 549 132 549 l 8 549 m 564 549 l 564 549 q 563 549 563 549 q 563 547 563 549 l 563 425 q 563 424 563 424 q 564 424 563 424 l 686 424 q 688 424 688 424 q 688 425 688 424 l 688 547 q 688 549 688 549 q 686 549 688 549 l 564 549 m 8 410 l 8 410 q 7 410 7 410 q 7 408 7 410 l 7 286 q 7 285 7 285 q 8 285 7 285 l 131 285 q 132 285 132 285 q 132 286 132 285 l 132 408 q 132 410 132 410 q 131 410 132 410 l 8 410 m 147 410 l 147 410 q 146 410 146 410 q 146 408 146 410 l 146 286 q 146 285 146 285 q 147 285 146 285 l 269 285 q 271 285 271 285 q 271 286 271 285 l 271 408 q 271 410 271 410 q 269 410 271 410 l 147 410 m 286 410 l 286 410 q 285 410 285 410 q 285 408 285 410 l 285 286 q 285 285 285 285 q 286 285 285 285 l 408 285 q 410 285 410 285 q 410 286 410 285 l 410 408 q 410 410 410 410 q 408 410 410 410 l 286 410 m 425 410 l 425 410 q 424 410 424 410 q 424 408 424 410 l 424 286 q 424 285 424 285 q 425 285 424 285 l 547 285 q 549 285 549 285 q 549 286 549 285 l 549 408 q 549 410 549 410 q 547 410 549 410 l 425 410 m 564 410 l 564 410 q 563 410 563 410 q 563 408 563 410 l 563 286 q 563 285 563 285 q 564 285 563 285 l 686 285 q 688 285 688 285 q 688 286 688 285 l 688 408 q 688 410 688 410 q 686 410 688 410 l 564 410 m 8 271 l 8 271 q 7 271 7 271 q 7 269 7 271 l 7 147 q 7 146 7 146 q 8 146 7 146 l 131 146 q 132 146 132 146 q 132 147 132 146 l 132 269 q 132 271 132 271 q 131 271 132 271 l 8 271 m 564 271 l 564 271 q 563 271 563 271 q 563 269 563 271 l 563 147 q 563 146 563 146 q 564 146 563 146 l 686 146 q 688 146 688 146 q 688 147 688 146 l 688 269 q 688 271 688 271 q 686 271 688 271 l 564 271 m 8 132 l 8 132 q 7 132 7 132 q 7 131 7 132 l 7 8 q 7 7 7 7 q 8 7 7 7 l 131 7 q 132 7 132 7 q 132 8 132 7 l 132 131 q 132 132 132 132 q 131 132 132 132 l 8 132 m 564 132 l 564 132 q 563 132 563 132 q 563 131 563 132 l 563 8 q 563 7 563 7 q 564 7 563 7 l 686 7 q 688 7 688 7 q 688 8 688 7 l 688 131 q 688 132 688 132 q 686 132 688 132 l 564 132 z "},"Ä":{"ha":833,"x_min":7,"x_max":688,"o":"m 147 1104 l 147 1104 q 146 1104 146 1104 q 146 1103 146 1104 l 146 981 q 146 979 146 979 q 147 979 146 979 l 269 979 q 271 979 271 979 q 271 981 271 979 l 271 1103 q 271 1104 271 1104 q 269 1104 271 1104 l 147 1104 m 425 1104 l 425 1104 q 424 1104 424 1104 q 424 1103 424 1104 l 424 981 q 424 979 424 979 q 425 979 424 979 l 547 979 q 549 979 549 979 q 549 981 549 979 l 549 1103 q 549 1104 549 1104 q 547 1104 549 1104 l 425 1104 m 147 826 l 147 826 q 146 826 146 826 q 146 825 146 826 l 146 703 q 146 701 146 701 q 147 701 146 701 l 269 701 q 271 701 271 701 q 271 703 271 701 l 271 825 q 271 826 271 826 q 269 826 271 826 l 147 826 m 286 826 l 286 826 q 285 826 285 826 q 285 825 285 826 l 285 703 q 285 701 285 701 q 286 701 285 701 l 408 701 q 410 701 410 701 q 410 703 410 701 l 410 825 q 410 826 410 826 q 408 826 410 826 l 286 826 m 425 826 l 425 826 q 424 826 424 826 q 424 825 424 826 l 424 703 q 424 701 424 701 q 425 701 424 701 l 547 701 q 549 701 549 701 q 549 703 549 701 l 549 825 q 549 826 549 826 q 547 826 549 826 l 425 826 m 8 688 l 8 688 q 7 688 7 688 q 7 686 7 688 l 7 564 q 7 563 7 563 q 8 563 7 563 l 131 563 q 132 563 132 563 q 132 564 132 563 l 132 686 q 132 688 132 688 q 131 688 132 688 l 8 688 m 564 688 l 564 688 q 563 688 563 688 q 563 686 563 688 l 563 564 q 563 563 563 563 q 564 563 563 563 l 686 563 q 688 563 688 563 q 688 564 688 563 l 688 686 q 688 688 688 688 q 686 688 688 688 l 564 688 m 8 549 l 8 549 q 7 549 7 549 q 7 547 7 549 l 7 425 q 7 424 7 424 q 8 424 7 424 l 131 424 q 132 424 132 424 q 132 425 132 424 l 132 547 q 132 549 132 549 q 131 549 132 549 l 8 549 m 564 549 l 564 549 q 563 549 563 549 q 563 547 563 549 l 563 425 q 563 424 563 424 q 564 424 563 424 l 686 424 q 688 424 688 424 q 688 425 688 424 l 688 547 q 688 549 688 549 q 686 549 688 549 l 564 549 m 8 410 l 8 410 q 7 410 7 410 q 7 408 7 410 l 7 286 q 7 285 7 285 q 8 285 7 285 l 131 285 q 132 285 132 285 q 132 286 132 285 l 132 408 q 132 410 132 410 q 131 410 132 410 l 8 410 m 147 410 l 147 410 q 146 410 146 410 q 146 408 146 410 l 146 286 q 146 285 146 285 q 147 285 146 285 l 269 285 q 271 285 271 285 q 271 286 271 285 l 271 408 q 271 410 271 410 q 269 410 271 410 l 147 410 m 286 410 l 286 410 q 285 410 285 410 q 285 408 285 410 l 285 286 q 285 285 285 285 q 286 285 285 285 l 408 285 q 410 285 410 285 q 410 286 410 285 l 410 408 q 410 410 410 410 q 408 410 410 410 l 286 410 m 425 410 l 425 410 q 424 410 424 410 q 424 408 424 410 l 424 286 q 424 285 424 285 q 425 285 424 285 l 547 285 q 549 285 549 285 q 549 286 549 285 l 549 408 q 549 410 549 410 q 547 410 549 410 l 425 410 m 564 410 l 564 410 q 563 410 563 410 q 563 408 563 410 l 563 286 q 563 285 563 285 q 564 285 563 285 l 686 285 q 688 285 688 285 q 688 286 688 285 l 688 408 q 688 410 688 410 q 686 410 688 410 l 564 410 m 8 271 l 8 271 q 7 271 7 271 q 7 269 7 271 l 7 147 q 7 146 7 146 q 8 146 7 146 l 131 146 q 132 146 132 146 q 132 147 132 146 l 132 269 q 132 271 132 271 q 131 271 132 271 l 8 271 m 564 271 l 564 271 q 563 271 563 271 q 563 269 563 271 l 563 147 q 563 146 563 146 q 564 146 563 146 l 686 146 q 688 146 688 146 q 688 147 688 146 l 688 269 q 688 271 688 271 q 686 271 688 271 l 564 271 m 8 132 l 8 132 q 7 132 7 132 q 7 131 7 132 l 7 8 q 7 7 7 7 q 8 7 7 7 l 131 7 q 132 7 132 7 q 132 8 132 7 l 132 131 q 132 132 132 132 q 131 132 132 132 l 8 132 m 564 132 l 564 132 q 563 132 563 132 q 563 131 563 132 l 563 8 q 563 7 563 7 q 564 7 563 7 l 686 7 q 688 7 688 7 q 688 8 688 7 l 688 131 q 688 132 688 132 q 686 132 688 132 l 564 132 z "},"À":{"ha":833,"x_min":7,"x_max":688,"o":"m 147 1104 l 147 1104 q 146 1104 146 1104 q 146 1103 146 1104 l 146 981 q 146 979 146 979 q 147 979 146 979 l 269 979 q 271 979 271 979 q 271 981 271 979 l 271 1103 q 271 1104 271 1104 q 269 1104 271 1104 l 147 1104 m 286 965 l 286 965 q 285 965 285 965 q 285 964 285 965 l 285 842 q 285 840 285 840 q 286 840 285 840 l 408 840 q 410 840 410 840 q 410 842 410 840 l 410 964 q 410 965 410 965 q 408 965 410 965 l 286 965 m 147 826 l 147 826 q 146 826 146 826 q 146 825 146 826 l 146 703 q 146 701 146 701 q 147 701 146 701 l 269 701 q 271 701 271 701 q 271 703 271 701 l 271 825 q 271 826 271 826 q 269 826 271 826 l 147 826 m 286 826 l 286 826 q 285 826 285 826 q 285 825 285 826 l 285 703 q 285 701 285 701 q 286 701 285 701 l 408 701 q 410 701 410 701 q 410 703 410 701 l 410 825 q 410 826 410 826 q 408 826 410 826 l 286 826 m 425 826 l 425 826 q 424 826 424 826 q 424 825 424 826 l 424 703 q 424 701 424 701 q 425 701 424 701 l 547 701 q 549 701 549 701 q 549 703 549 701 l 549 825 q 549 826 549 826 q 547 826 549 826 l 425 826 m 8 688 l 8 688 q 7 688 7 688 q 7 686 7 688 l 7 564 q 7 563 7 563 q 8 563 7 563 l 131 563 q 132 563 132 563 q 132 564 132 563 l 132 686 q 132 688 132 688 q 131 688 132 688 l 8 688 m 564 688 l 564 688 q 563 688 563 688 q 563 686 563 688 l 563 564 q 563 563 563 563 q 564 563 563 563 l 686 563 q 688 563 688 563 q 688 564 688 563 l 688 686 q 688 688 688 688 q 686 688 688 688 l 564 688 m 8 549 l 8 549 q 7 549 7 549 q 7 547 7 549 l 7 425 q 7 424 7 424 q 8 424 7 424 l 131 424 q 132 424 132 424 q 132 425 132 424 l 132 547 q 132 549 132 549 q 131 549 132 549 l 8 549 m 564 549 l 564 549 q 563 549 563 549 q 563 547 563 549 l 563 425 q 563 424 563 424 q 564 424 563 424 l 686 424 q 688 424 688 424 q 688 425 688 424 l 688 547 q 688 549 688 549 q 686 549 688 549 l 564 549 m 8 410 l 8 410 q 7 410 7 410 q 7 408 7 410 l 7 286 q 7 285 7 285 q 8 285 7 285 l 131 285 q 132 285 132 285 q 132 286 132 285 l 132 408 q 132 410 132 410 q 131 410 132 410 l 8 410 m 147 410 l 147 410 q 146 410 146 410 q 146 408 146 410 l 146 286 q 146 285 146 285 q 147 285 146 285 l 269 285 q 271 285 271 285 q 271 286 271 285 l 271 408 q 271 410 271 410 q 269 410 271 410 l 147 410 m 286 410 l 286 410 q 285 410 285 410 q 285 408 285 410 l 285 286 q 285 285 285 285 q 286 285 285 285 l 408 285 q 410 285 410 285 q 410 286 410 285 l 410 408 q 410 410 410 410 q 408 410 410 410 l 286 410 m 425 410 l 425 410 q 424 410 424 410 q 424 408 424 410 l 424 286 q 424 285 424 285 q 425 285 424 285 l 547 285 q 549 285 549 285 q 549 286 549 285 l 549 408 q 549 410 549 410 q 547 410 549 410 l 425 410 m 564 410 l 564 410 q 563 410 563 410 q 563 408 563 410 l 563 286 q 563 285 563 285 q 564 285 563 285 l 686 285 q 688 285 688 285 q 688 286 688 285 l 688 408 q 688 410 688 410 q 686 410 688 410 l 564 410 m 8 271 l 8 271 q 7 271 7 271 q 7 269 7 271 l 7 147 q 7 146 7 146 q 8 146 7 146 l 131 146 q 132 146 132 146 q 132 147 132 146 l 132 269 q 132 271 132 271 q 131 271 132 271 l 8 271 m 564 271 l 564 271 q 563 271 563 271 q 563 269 563 271 l 563 147 q 563 146 563 146 q 564 146 563 146 l 686 146 q 688 146 688 146 q 688 147 688 146 l 688 269 q 688 271 688 271 q 686 271 688 271 l 564 271 m 8 132 l 8 132 q 7 132 7 132 q 7 131 7 132 l 7 8 q 7 7 7 7 q 8 7 7 7 l 131 7 q 132 7 132 7 q 132 8 132 7 l 132 131 q 132 132 132 132 q 131 132 132 132 l 8 132 m 564 132 l 564 132 q 563 132 563 132 q 563 131 563 132 l 563 8 q 563 7 563 7 q 564 7 563 7 l 686 7 q 688 7 688 7 q 688 8 688 7 l 688 131 q 688 132 688 132 q 686 132 688 132 l 564 132 z "},"Ā":{"ha":833,"x_min":7,"x_max":688,"o":"m 147 1104 l 147 1104 q 146 1104 146 1104 q 146 1103 146 1104 l 146 981 q 146 979 146 979 q 147 979 146 979 l 269 979 q 271 979 271 979 q 271 981 271 979 l 271 1103 q 271 1104 271 1104 q 269 1104 271 1104 l 147 1104 m 286 1104 l 286 1104 q 285 1104 285 1104 q 285 1103 285 1104 l 285 981 q 285 979 285 979 q 286 979 285 979 l 408 979 q 410 979 410 979 q 410 981 410 979 l 410 1103 q 410 1104 410 1104 q 408 1104 410 1104 l 286 1104 m 425 1104 l 425 1104 q 424 1104 424 1104 q 424 1103 424 1104 l 424 981 q 424 979 424 979 q 425 979 424 979 l 547 979 q 549 979 549 979 q 549 981 549 979 l 549 1103 q 549 1104 549 1104 q 547 1104 549 1104 l 425 1104 m 147 826 l 147 826 q 146 826 146 826 q 146 825 146 826 l 146 703 q 146 701 146 701 q 147 701 146 701 l 269 701 q 271 701 271 701 q 271 703 271 701 l 271 825 q 271 826 271 826 q 269 826 271 826 l 147 826 m 286 826 l 286 826 q 285 826 285 826 q 285 825 285 826 l 285 703 q 285 701 285 701 q 286 701 285 701 l 408 701 q 410 701 410 701 q 410 703 410 701 l 410 825 q 410 826 410 826 q 408 826 410 826 l 286 826 m 425 826 l 425 826 q 424 826 424 826 q 424 825 424 826 l 424 703 q 424 701 424 701 q 425 701 424 701 l 547 701 q 549 701 549 701 q 549 703 549 701 l 549 825 q 549 826 549 826 q 547 826 549 826 l 425 826 m 8 688 l 8 688 q 7 688 7 688 q 7 686 7 688 l 7 564 q 7 563 7 563 q 8 563 7 563 l 131 563 q 132 563 132 563 q 132 564 132 563 l 132 686 q 132 688 132 688 q 131 688 132 688 l 8 688 m 564 688 l 564 688 q 563 688 563 688 q 563 686 563 688 l 563 564 q 563 563 563 563 q 564 563 563 563 l 686 563 q 688 563 688 563 q 688 564 688 563 l 688 686 q 688 688 688 688 q 686 688 688 688 l 564 688 m 8 549 l 8 549 q 7 549 7 549 q 7 547 7 549 l 7 425 q 7 424 7 424 q 8 424 7 424 l 131 424 q 132 424 132 424 q 132 425 132 424 l 132 547 q 132 549 132 549 q 131 549 132 549 l 8 549 m 564 549 l 564 549 q 563 549 563 549 q 563 547 563 549 l 563 425 q 563 424 563 424 q 564 424 563 424 l 686 424 q 688 424 688 424 q 688 425 688 424 l 688 547 q 688 549 688 549 q 686 549 688 549 l 564 549 m 8 410 l 8 410 q 7 410 7 410 q 7 408 7 410 l 7 286 q 7 285 7 285 q 8 285 7 285 l 131 285 q 132 285 132 285 q 132 286 132 285 l 132 408 q 132 410 132 410 q 131 410 132 410 l 8 410 m 147 410 l 147 410 q 146 410 146 410 q 146 408 146 410 l 146 286 q 146 285 146 285 q 147 285 146 285 l 269 285 q 271 285 271 285 q 271 286 271 285 l 271 408 q 271 410 271 410 q 269 410 271 410 l 147 410 m 286 410 l 286 410 q 285 410 285 410 q 285 408 285 410 l 285 286 q 285 285 285 285 q 286 285 285 285 l 408 285 q 410 285 410 285 q 410 286 410 285 l 410 408 q 410 410 410 410 q 408 410 410 410 l 286 410 m 425 410 l 425 410 q 424 410 424 410 q 424 408 424 410 l 424 286 q 424 285 424 285 q 425 285 424 285 l 547 285 q 549 285 549 285 q 549 286 549 285 l 549 408 q 549 410 549 410 q 547 410 549 410 l 425 410 m 564 410 l 564 410 q 563 410 563 410 q 563 408 563 410 l 563 286 q 563 285 563 285 q 564 285 563 285 l 686 285 q 688 285 688 285 q 688 286 688 285 l 688 408 q 688 410 688 410 q 686 410 688 410 l 564 410 m 8 271 l 8 271 q 7 271 7 271 q 7 269 7 271 l 7 147 q 7 146 7 146 q 8 146 7 146 l 131 146 q 132 146 132 146 q 132 147 132 146 l 132 269 q 132 271 132 271 q 131 271 132 271 l 8 271 m 564 271 l 564 271 q 563 271 563 271 q 563 269 563 271 l 563 147 q 563 146 563 146 q 564 146 563 146 l 686 146 q 688 146 688 146 q 688 147 688 146 l 688 269 q 688 271 688 271 q 686 271 688 271 l 564 271 m 8 132 l 8 132 q 7 132 7 132 q 7 131 7 132 l 7 8 q 7 7 7 7 q 8 7 7 7 l 131 7 q 132 7 132 7 q 132 8 132 7 l 132 131 q 132 132 132 132 q 131 132 132 132 l 8 132 m 564 132 l 564 132 q 563 132 563 132 q 563 131 563 132 l 563 8 q 563 7 563 7 q 564 7 563 7 l 686 7 q 688 7 688 7 q 688 8 688 7 l 688 131 q 688 132 688 132 q 686 132 688 132 l 564 132 z "},"Ą":{"ha":833,"x_min":7,"x_max":688,"o":"m 286 965 l 286 965 q 285 965 285 965 q 285 964 285 965 l 285 842 q 285 840 285 840 q 286 840 285 840 l 408 840 q 410 840 410 840 q 410 842 410 840 l 410 964 q 410 965 410 965 q 408 965 410 965 l 286 965 m 147 826 l 147 826 q 146 826 146 826 q 146 825 146 826 l 146 703 q 146 701 146 701 q 147 701 146 701 l 269 701 q 271 701 271 701 q 271 703 271 701 l 271 825 q 271 826 271 826 q 269 826 271 826 l 147 826 m 425 826 l 425 826 q 424 826 424 826 q 424 825 424 826 l 424 703 q 424 701 424 701 q 425 701 424 701 l 547 701 q 549 701 549 701 q 549 703 549 701 l 549 825 q 549 826 549 826 q 547 826 549 826 l 425 826 m 8 688 l 8 688 q 7 688 7 688 q 7 686 7 688 l 7 564 q 7 563 7 563 q 8 563 7 563 l 131 563 q 132 563 132 563 q 132 564 132 563 l 132 686 q 132 688 132 688 q 131 688 132 688 l 8 688 m 564 688 l 564 688 q 563 688 563 688 q 563 686 563 688 l 563 564 q 563 563 563 563 q 564 563 563 563 l 686 563 q 688 563 688 563 q 688 564 688 563 l 688 686 q 688 688 688 688 q 686 688 688 688 l 564 688 m 8 549 l 8 549 q 7 549 7 549 q 7 547 7 549 l 7 425 q 7 424 7 424 q 8 424 7 424 l 131 424 q 132 424 132 424 q 132 425 132 424 l 132 547 q 132 549 132 549 q 131 549 132 549 l 8 549 m 564 549 l 564 549 q 563 549 563 549 q 563 547 563 549 l 563 425 q 563 424 563 424 q 564 424 563 424 l 686 424 q 688 424 688 424 q 688 425 688 424 l 688 547 q 688 549 688 549 q 686 549 688 549 l 564 549 m 8 410 l 8 410 q 7 410 7 410 q 7 408 7 410 l 7 286 q 7 285 7 285 q 8 285 7 285 l 131 285 q 132 285 132 285 q 132 286 132 285 l 132 408 q 132 410 132 410 q 131 410 132 410 l 8 410 m 147 410 l 147 410 q 146 410 146 410 q 146 408 146 410 l 146 286 q 146 285 146 285 q 147 285 146 285 l 269 285 q 271 285 271 285 q 271 286 271 285 l 271 408 q 271 410 271 410 q 269 410 271 410 l 147 410 m 286 410 l 286 410 q 285 410 285 410 q 285 408 285 410 l 285 286 q 285 285 285 285 q 286 285 285 285 l 408 285 q 410 285 410 285 q 410 286 410 285 l 410 408 q 410 410 410 410 q 408 410 410 410 l 286 410 m 425 410 l 425 410 q 424 410 424 410 q 424 408 424 410 l 424 286 q 424 285 424 285 q 425 285 424 285 l 547 285 q 549 285 549 285 q 549 286 549 285 l 549 408 q 549 410 549 410 q 547 410 549 410 l 425 410 m 564 410 l 564 410 q 563 410 563 410 q 563 408 563 410 l 563 286 q 563 285 563 285 q 564 285 563 285 l 686 285 q 688 285 688 285 q 688 286 688 285 l 688 408 q 688 410 688 410 q 686 410 688 410 l 564 410 m 8 271 l 8 271 q 7 271 7 271 q 7 269 7 271 l 7 147 q 7 146 7 146 q 8 146 7 146 l 131 146 q 132 146 132 146 q 132 147 132 146 l 132 269 q 132 271 132 271 q 131 271 132 271 l 8 271 m 564 271 l 564 271 q 563 271 563 271 q 563 269 563 271 l 563 147 q 563 146 563 146 q 564 146 563 146 l 686 146 q 688 146 688 146 q 688 147 688 146 l 688 269 q 688 271 688 271 q 686 271 688 271 l 564 271 m 8 132 l 8 132 q 7 132 7 132 q 7 131 7 132 l 7 8 q 7 7 7 7 q 8 7 7 7 l 131 7 q 132 7 132 7 q 132 8 132 7 l 132 131 q 132 132 132 132 q 131 132 132 132 l 8 132 m 564 132 l 564 132 q 563 132 563 132 q 563 131 563 132 l 563 8 q 563 7 563 7 q 564 7 563 7 l 686 7 q 688 7 688 7 q 688 8 688 7 l 688 131 q 688 132 688 132 q 686 132 688 132 l 564 132 m 425 -7 l 425 -7 q 424 -7 424 -7 q 424 -8 424 -7 l 424 -131 q 424 -132 424 -132 q 425 -132 424 -132 l 547 -132 q 549 -132 549 -132 q 549 -131 549 -132 l 549 -8 q 549 -7 549 -7 q 547 -7 549 -7 l 425 -7 m 425 -146 l 425 -146 q 424 -146 424 -146 q 424 -147 424 -146 l 424 -269 q 424 -271 424 -271 q 425 -271 424 -271 l 547 -271 q 549 -271 549 -271 q 549 -269 549 -271 l 549 -147 q 549 -146 549 -146 q 547 -146 549 -146 l 425 -146 m 564 -146 l 564 -146 q 563 -146 563 -146 q 563 -147 563 -146 l 563 -269 q 563 -271 563 -271 q 564 -271 563 -271 l 686 -271 q 688 -271 688 -271 q 688 -269 688 -271 l 688 -147 q 688 -146 688 -146 q 686 -146 688 -146 l 564 -146 z "},"Å":{"ha":833,"x_min":7,"x_max":688,"o":"m 286 1104 l 286 1104 q 285 1104 285 1104 q 285 1103 285 1104 l 285 981 q 285 979 285 979 q 286 979 285 979 l 408 979 q 410 979 410 979 q 410 981 410 979 l 410 1103 q 410 1104 410 1104 q 408 1104 410 1104 l 286 1104 m 147 965 l 147 965 q 146 965 146 965 q 146 964 146 965 l 146 842 q 146 840 146 840 q 147 840 146 840 l 269 840 q 271 840 271 840 q 271 842 271 840 l 271 964 q 271 965 271 965 q 269 965 271 965 l 147 965 m 425 965 l 425 965 q 424 965 424 965 q 424 964 424 965 l 424 842 q 424 840 424 840 q 425 840 424 840 l 547 840 q 549 840 549 840 q 549 842 549 840 l 549 964 q 549 965 549 965 q 547 965 549 965 l 425 965 m 147 826 l 147 826 q 146 826 146 826 q 146 825 146 826 l 146 703 q 146 701 146 701 q 147 701 146 701 l 269 701 q 271 701 271 701 q 271 703 271 701 l 271 825 q 271 826 271 826 q 269 826 271 826 l 147 826 m 286 826 l 286 826 q 285 826 285 826 q 285 825 285 826 l 285 703 q 285 701 285 701 q 286 701 285 701 l 408 701 q 410 701 410 701 q 410 703 410 701 l 410 825 q 410 826 410 826 q 408 826 410 826 l 286 826 m 425 826 l 425 826 q 424 826 424 826 q 424 825 424 826 l 424 703 q 424 701 424 701 q 425 701 424 701 l 547 701 q 549 701 549 701 q 549 703 549 701 l 549 825 q 549 826 549 826 q 547 826 549 826 l 425 826 m 8 688 l 8 688 q 7 688 7 688 q 7 686 7 688 l 7 564 q 7 563 7 563 q 8 563 7 563 l 131 563 q 132 563 132 563 q 132 564 132 563 l 132 686 q 132 688 132 688 q 131 688 132 688 l 8 688 m 564 688 l 564 688 q 563 688 563 688 q 563 686 563 688 l 563 564 q 563 563 563 563 q 564 563 563 563 l 686 563 q 688 563 688 563 q 688 564 688 563 l 688 686 q 688 688 688 688 q 686 688 688 688 l 564 688 m 8 549 l 8 549 q 7 549 7 549 q 7 547 7 549 l 7 425 q 7 424 7 424 q 8 424 7 424 l 131 424 q 132 424 132 424 q 132 425 132 424 l 132 547 q 132 549 132 549 q 131 549 132 549 l 8 549 m 564 549 l 564 549 q 563 549 563 549 q 563 547 563 549 l 563 425 q 563 424 563 424 q 564 424 563 424 l 686 424 q 688 424 688 424 q 688 425 688 424 l 688 547 q 688 549 688 549 q 686 549 688 549 l 564 549 m 8 410 l 8 410 q 7 410 7 410 q 7 408 7 410 l 7 286 q 7 285 7 285 q 8 285 7 285 l 131 285 q 132 285 132 285 q 132 286 132 285 l 132 408 q 132 410 132 410 q 131 410 132 410 l 8 410 m 147 410 l 147 410 q 146 410 146 410 q 146 408 146 410 l 146 286 q 146 285 146 285 q 147 285 146 285 l 269 285 q 271 285 271 285 q 271 286 271 285 l 271 408 q 271 410 271 410 q 269 410 271 410 l 147 410 m 286 410 l 286 410 q 285 410 285 410 q 285 408 285 410 l 285 286 q 285 285 285 285 q 286 285 285 285 l 408 285 q 410 285 410 285 q 410 286 410 285 l 410 408 q 410 410 410 410 q 408 410 410 410 l 286 410 m 425 410 l 425 410 q 424 410 424 410 q 424 408 424 410 l 424 286 q 424 285 424 285 q 425 285 424 285 l 547 285 q 549 285 549 285 q 549 286 549 285 l 549 408 q 549 410 549 410 q 547 410 549 410 l 425 410 m 564 410 l 564 410 q 563 410 563 410 q 563 408 563 410 l 563 286 q 563 285 563 285 q 564 285 563 285 l 686 285 q 688 285 688 285 q 688 286 688 285 l 688 408 q 688 410 688 410 q 686 410 688 410 l 564 410 m 8 271 l 8 271 q 7 271 7 271 q 7 269 7 271 l 7 147 q 7 146 7 146 q 8 146 7 146 l 131 146 q 132 146 132 146 q 132 147 132 146 l 132 269 q 132 271 132 271 q 131 271 132 271 l 8 271 m 564 271 l 564 271 q 563 271 563 271 q 563 269 563 271 l 563 147 q 563 146 563 146 q 564 146 563 146 l 686 146 q 688 146 688 146 q 688 147 688 146 l 688 269 q 688 271 688 271 q 686 271 688 271 l 564 271 m 8 132 l 8 132 q 7 132 7 132 q 7 131 7 132 l 7 8 q 7 7 7 7 q 8 7 7 7 l 131 7 q 132 7 132 7 q 132 8 132 7 l 132 131 q 132 132 132 132 q 131 132 132 132 l 8 132 m 564 132 l 564 132 q 563 132 563 132 q 563 131 563 132 l 563 8 q 563 7 563 7 q 564 7 563 7 l 686 7 q 688 7 688 7 q 688 8 688 7 l 688 131 q 688 132 688 132 q 686 132 688 132 l 564 132 z "},"Ã":{"ha":833,"x_min":7,"x_max":688,"o":"m 147 1104 l 147 1104 q 146 1104 146 1104 q 146 1103 146 1104 l 146 981 q 146 979 146 979 q 147 979 146 979 l 269 979 q 271 979 271 979 q 271 981 271 979 l 271 1103 q 271 1104 271 1104 q 269 1104 271 1104 l 147 1104 m 564 1104 l 564 1104 q 563 1104 563 1104 q 563 1103 563 1104 l 563 981 q 563 979 563 979 q 564 979 563 979 l 686 979 q 688 979 688 979 q 688 981 688 979 l 688 1103 q 688 1104 688 1104 q 686 1104 688 1104 l 564 1104 m 8 965 l 8 965 q 7 965 7 965 q 7 964 7 965 l 7 842 q 7 840 7 840 q 8 840 7 840 l 131 840 q 132 840 132 840 q 132 842 132 840 l 132 964 q 132 965 132 965 q 131 965 132 965 l 8 965 m 286 965 l 286 965 q 285 965 285 965 q 285 964 285 965 l 285 842 q 285 840 285 840 q 286 840 285 840 l 408 840 q 410 840 410 840 q 410 842 410 840 l 410 964 q 410 965 410 965 q 408 965 410 965 l 286 965 m 425 965 l 425 965 q 424 965 424 965 q 424 964 424 965 l 424 842 q 424 840 424 840 q 425 840 424 840 l 547 840 q 549 840 549 840 q 549 842 549 840 l 549 964 q 549 965 549 965 q 547 965 549 965 l 425 965 m 147 826 l 147 826 q 146 826 146 826 q 146 825 146 826 l 146 703 q 146 701 146 701 q 147 701 146 701 l 269 701 q 271 701 271 701 q 271 703 271 701 l 271 825 q 271 826 271 826 q 269 826 271 826 l 147 826 m 286 826 l 286 826 q 285 826 285 826 q 285 825 285 826 l 285 703 q 285 701 285 701 q 286 701 285 701 l 408 701 q 410 701 410 701 q 410 703 410 701 l 410 825 q 410 826 410 826 q 408 826 410 826 l 286 826 m 425 826 l 425 826 q 424 826 424 826 q 424 825 424 826 l 424 703 q 424 701 424 701 q 425 701 424 701 l 547 701 q 549 701 549 701 q 549 703 549 701 l 549 825 q 549 826 549 826 q 547 826 549 826 l 425 826 m 8 688 l 8 688 q 7 688 7 688 q 7 686 7 688 l 7 564 q 7 563 7 563 q 8 563 7 563 l 131 563 q 132 563 132 563 q 132 564 132 563 l 132 686 q 132 688 132 688 q 131 688 132 688 l 8 688 m 564 688 l 564 688 q 563 688 563 688 q 563 686 563 688 l 563 564 q 563 563 563 563 q 564 563 563 563 l 686 563 q 688 563 688 563 q 688 564 688 563 l 688 686 q 688 688 688 688 q 686 688 688 688 l 564 688 m 8 549 l 8 549 q 7 549 7 549 q 7 547 7 549 l 7 425 q 7 424 7 424 q 8 424 7 424 l 131 424 q 132 424 132 424 q 132 425 132 424 l 132 547 q 132 549 132 549 q 131 549 132 549 l 8 549 m 564 549 l 564 549 q 563 549 563 549 q 563 547 563 549 l 563 425 q 563 424 563 424 q 564 424 563 424 l 686 424 q 688 424 688 424 q 688 425 688 424 l 688 547 q 688 549 688 549 q 686 549 688 549 l 564 549 m 8 410 l 8 410 q 7 410 7 410 q 7 408 7 410 l 7 286 q 7 285 7 285 q 8 285 7 285 l 131 285 q 132 285 132 285 q 132 286 132 285 l 132 408 q 132 410 132 410 q 131 410 132 410 l 8 410 m 147 410 l 147 410 q 146 410 146 410 q 146 408 146 410 l 146 286 q 146 285 146 285 q 147 285 146 285 l 269 285 q 271 285 271 285 q 271 286 271 285 l 271 408 q 271 410 271 410 q 269 410 271 410 l 147 410 m 286 410 l 286 410 q 285 410 285 410 q 285 408 285 410 l 285 286 q 285 285 285 285 q 286 285 285 285 l 408 285 q 410 285 410 285 q 410 286 410 285 l 410 408 q 410 410 410 410 q 408 410 410 410 l 286 410 m 425 410 l 425 410 q 424 410 424 410 q 424 408 424 410 l 424 286 q 424 285 424 285 q 425 285 424 285 l 547 285 q 549 285 549 285 q 549 286 549 285 l 549 408 q 549 410 549 410 q 547 410 549 410 l 425 410 m 564 410 l 564 410 q 563 410 563 410 q 563 408 563 410 l 563 286 q 563 285 563 285 q 564 285 563 285 l 686 285 q 688 285 688 285 q 688 286 688 285 l 688 408 q 688 410 688 410 q 686 410 688 410 l 564 410 m 8 271 l 8 271 q 7 271 7 271 q 7 269 7 271 l 7 147 q 7 146 7 146 q 8 146 7 146 l 131 146 q 132 146 132 146 q 132 147 132 146 l 132 269 q 132 271 132 271 q 131 271 132 271 l 8 271 m 564 271 l 564 271 q 563 271 563 271 q 563 269 563 271 l 563 147 q 563 146 563 146 q 564 146 563 146 l 686 146 q 688 146 688 146 q 688 147 688 146 l 688 269 q 688 271 688 271 q 686 271 688 271 l 564 271 m 8 132 l 8 132 q 7 132 7 132 q 7 131 7 132 l 7 8 q 7 7 7 7 q 8 7 7 7 l 131 7 q 132 7 132 7 q 132 8 132 7 l 132 131 q 132 132 132 132 q 131 132 132 132 l 8 132 m 564 132 l 564 132 q 563 132 563 132 q 563 131 563 132 l 563 8 q 563 7 563 7 q 564 7 563 7 l 686 7 q 688 7 688 7 q 688 8 688 7 l 688 131 q 688 132 688 132 q 686 132 688 132 l 564 132 z "},"B":{"ha":833,"x_min":7,"x_max":688,"o":"m 8 965 l 8 965 q 7 965 7 965 q 7 964 7 965 l 7 842 q 7 840 7 840 q 8 840 7 840 l 131 840 q 132 840 132 840 q 132 842 132 840 l 132 964 q 132 965 132 965 q 131 965 132 965 l 8 965 m 147 965 l 147 965 q 146 965 146 965 q 146 964 146 965 l 146 842 q 146 840 146 840 q 147 840 146 840 l 269 840 q 271 840 271 840 q 271 842 271 840 l 271 964 q 271 965 271 965 q 269 965 271 965 l 147 965 m 286 965 l 286 965 q 285 965 285 965 q 285 964 285 965 l 285 842 q 285 840 285 840 q 286 840 285 840 l 408 840 q 410 840 410 840 q 410 842 410 840 l 410 964 q 410 965 410 965 q 408 965 410 965 l 286 965 m 425 965 l 425 965 q 424 965 424 965 q 424 964 424 965 l 424 842 q 424 840 424 840 q 425 840 424 840 l 547 840 q 549 840 549 840 q 549 842 549 840 l 549 964 q 549 965 549 965 q 547 965 549 965 l 425 965 m 147 826 l 147 826 q 146 826 146 826 q 146 825 146 826 l 146 703 q 146 701 146 701 q 147 701 146 701 l 269 701 q 271 701 271 701 q 271 703 271 701 l 271 825 q 271 826 271 826 q 269 826 271 826 l 147 826 m 564 826 l 564 826 q 563 826 563 826 q 563 825 563 826 l 563 703 q 563 701 563 701 q 564 701 563 701 l 686 701 q 688 701 688 701 q 688 703 688 701 l 688 825 q 688 826 688 826 q 686 826 688 826 l 564 826 m 147 688 l 147 688 q 146 688 146 688 q 146 686 146 688 l 146 564 q 146 563 146 563 q 147 563 146 563 l 269 563 q 271 563 271 563 q 271 564 271 563 l 271 686 q 271 688 271 688 q 269 688 271 688 l 147 688 m 564 688 l 564 688 q 563 688 563 688 q 563 686 563 688 l 563 564 q 563 563 563 563 q 564 563 563 563 l 686 563 q 688 563 688 563 q 688 564 688 563 l 688 686 q 688 688 688 688 q 686 688 688 688 l 564 688 m 147 549 l 147 549 q 146 549 146 549 q 146 547 146 549 l 146 425 q 146 424 146 424 q 147 424 146 424 l 269 424 q 271 424 271 424 q 271 425 271 424 l 271 547 q 271 549 271 549 q 269 549 271 549 l 147 549 m 286 549 l 286 549 q 285 549 285 549 q 285 547 285 549 l 285 425 q 285 424 285 424 q 286 424 285 424 l 408 424 q 410 424 410 424 q 410 425 410 424 l 410 547 q 410 549 410 549 q 408 549 410 549 l 286 549 m 425 549 l 425 549 q 424 549 424 549 q 424 547 424 549 l 424 425 q 424 424 424 424 q 425 424 424 424 l 547 424 q 549 424 549 424 q 549 425 549 424 l 549 547 q 549 549 549 549 q 547 549 549 549 l 425 549 m 147 410 l 147 410 q 146 410 146 410 q 146 408 146 410 l 146 286 q 146 285 146 285 q 147 285 146 285 l 269 285 q 271 285 271 285 q 271 286 271 285 l 271 408 q 271 410 271 410 q 269 410 271 410 l 147 410 m 564 410 l 564 410 q 563 410 563 410 q 563 408 563 410 l 563 286 q 563 285 563 285 q 564 285 563 285 l 686 285 q 688 285 688 285 q 688 286 688 285 l 688 408 q 688 410 688 410 q 686 410 688 410 l 564 410 m 147 271 l 147 271 q 146 271 146 271 q 146 269 146 271 l 146 147 q 146 146 146 146 q 147 146 146 146 l 269 146 q 271 146 271 146 q 271 147 271 146 l 271 269 q 271 271 271 271 q 269 271 271 271 l 147 271 m 564 271 l 564 271 q 563 271 563 271 q 563 269 563 271 l 563 147 q 563 146 563 146 q 564 146 563 146 l 686 146 q 688 146 688 146 q 688 147 688 146 l 688 269 q 688 271 688 271 q 686 271 688 271 l 564 271 m 8 132 l 8 132 q 7 132 7 132 q 7 131 7 132 l 7 8 q 7 7 7 7 q 8 7 7 7 l 131 7 q 132 7 132 7 q 132 8 132 7 l 132 131 q 132 132 132 132 q 131 132 132 132 l 8 132 m 147 132 l 147 132 q 146 132 146 132 q 146 131 146 132 l 146 8 q 146 7 146 7 q 147 7 146 7 l 269 7 q 271 7 271 7 q 271 8 271 7 l 271 131 q 271 132 271 132 q 269 132 271 132 l 147 132 m 286 132 l 286 132 q 285 132 285 132 q 285 131 285 132 l 285 8 q 285 7 285 7 q 286 7 285 7 l 408 7 q 410 7 410 7 q 410 8 410 7 l 410 131 q 410 132 410 132 q 408 132 410 132 l 286 132 m 425 132 l 425 132 q 424 132 424 132 q 424 131 424 132 l 424 8 q 424 7 424 7 q 425 7 424 7 l 547 7 q 549 7 549 7 q 549 8 549 7 l 549 131 q 549 132 549 132 q 547 132 549 132 l 425 132 z "},"C":{"ha":833,"x_min":7,"x_max":688,"o":"m 147 965 l 147 965 q 146 965 146 965 q 146 964 146 965 l 146 842 q 146 840 146 840 q 147 840 146 840 l 269 840 q 271 840 271 840 q 271 842 271 840 l 271 964 q 271 965 271 965 q 269 965 271 965 l 147 965 m 286 965 l 286 965 q 285 965 285 965 q 285 964 285 965 l 285 842 q 285 840 285 840 q 286 840 285 840 l 408 840 q 410 840 410 840 q 410 842 410 840 l 410 964 q 410 965 410 965 q 408 965 410 965 l 286 965 m 425 965 l 425 965 q 424 965 424 965 q 424 964 424 965 l 424 842 q 424 840 424 840 q 425 840 424 840 l 547 840 q 549 840 549 840 q 549 842 549 840 l 549 964 q 549 965 549 965 q 547 965 549 965 l 425 965 m 8 826 l 8 826 q 7 826 7 826 q 7 825 7 826 l 7 703 q 7 701 7 701 q 8 701 7 701 l 131 701 q 132 701 132 701 q 132 703 132 701 l 132 825 q 132 826 132 826 q 131 826 132 826 l 8 826 m 564 826 l 564 826 q 563 826 563 826 q 563 825 563 826 l 563 703 q 563 701 563 701 q 564 701 563 701 l 686 701 q 688 701 688 701 q 688 703 688 701 l 688 825 q 688 826 688 826 q 686 826 688 826 l 564 826 m 8 688 l 8 688 q 7 688 7 688 q 7 686 7 688 l 7 564 q 7 563 7 563 q 8 563 7 563 l 131 563 q 132 563 132 563 q 132 564 132 563 l 132 686 q 132 688 132 688 q 131 688 132 688 l 8 688 m 8 549 l 8 549 q 7 549 7 549 q 7 547 7 549 l 7 425 q 7 424 7 424 q 8 424 7 424 l 131 424 q 132 424 132 424 q 132 425 132 424 l 132 547 q 132 549 132 549 q 131 549 132 549 l 8 549 m 8 410 l 8 410 q 7 410 7 410 q 7 408 7 410 l 7 286 q 7 285 7 285 q 8 285 7 285 l 131 285 q 132 285 132 285 q 132 286 132 285 l 132 408 q 132 410 132 410 q 131 410 132 410 l 8 410 m 8 271 l 8 271 q 7 271 7 271 q 7 269 7 271 l 7 147 q 7 146 7 146 q 8 146 7 146 l 131 146 q 132 146 132 146 q 132 147 132 146 l 132 269 q 132 271 132 271 q 131 271 132 271 l 8 271 m 564 271 l 564 271 q 563 271 563 271 q 563 269 563 271 l 563 147 q 563 146 563 146 q 564 146 563 146 l 686 146 q 688 146 688 146 q 688 147 688 146 l 688 269 q 688 271 688 271 q 686 271 688 271 l 564 271 m 147 132 l 147 132 q 146 132 146 132 q 146 131 146 132 l 146 8 q 146 7 146 7 q 147 7 146 7 l 269 7 q 271 7 271 7 q 271 8 271 7 l 271 131 q 271 132 271 132 q 269 132 271 132 l 147 132 m 286 132 l 286 132 q 285 132 285 132 q 285 131 285 132 l 285 8 q 285 7 285 7 q 286 7 285 7 l 408 7 q 410 7 410 7 q 410 8 410 7 l 410 131 q 410 132 410 132 q 408 132 410 132 l 286 132 m 425 132 l 425 132 q 424 132 424 132 q 424 131 424 132 l 424 8 q 424 7 424 7 q 425 7 424 7 l 547 7 q 549 7 549 7 q 549 8 549 7 l 549 131 q 549 132 549 132 q 547 132 549 132 l 425 132 z "},"Ć":{"ha":833,"x_min":7,"x_max":688,"o":"m 425 1104 l 425 1104 q 424 1104 424 1104 q 424 1103 424 1104 l 424 981 q 424 979 424 979 q 425 979 424 979 l 547 979 q 549 979 549 979 q 549 981 549 979 l 549 1103 q 549 1104 549 1104 q 547 1104 549 1104 l 425 1104 m 286 965 l 286 965 q 285 965 285 965 q 285 964 285 965 l 285 842 q 285 840 285 840 q 286 840 285 840 l 408 840 q 410 840 410 840 q 410 842 410 840 l 410 964 q 410 965 410 965 q 408 965 410 965 l 286 965 m 147 826 l 147 826 q 146 826 146 826 q 146 825 146 826 l 146 703 q 146 701 146 701 q 147 701 146 701 l 269 701 q 271 701 271 701 q 271 703 271 701 l 271 825 q 271 826 271 826 q 269 826 271 826 l 147 826 m 286 826 l 286 826 q 285 826 285 826 q 285 825 285 826 l 285 703 q 285 701 285 701 q 286 701 285 701 l 408 701 q 410 701 410 701 q 410 703 410 701 l 410 825 q 410 826 410 826 q 408 826 410 826 l 286 826 m 425 826 l 425 826 q 424 826 424 826 q 424 825 424 826 l 424 703 q 424 701 424 701 q 425 701 424 701 l 547 701 q 549 701 549 701 q 549 703 549 701 l 549 825 q 549 826 549 826 q 547 826 549 826 l 425 826 m 8 688 l 8 688 q 7 688 7 688 q 7 686 7 688 l 7 564 q 7 563 7 563 q 8 563 7 563 l 131 563 q 132 563 132 563 q 132 564 132 563 l 132 686 q 132 688 132 688 q 131 688 132 688 l 8 688 m 564 688 l 564 688 q 563 688 563 688 q 563 686 563 688 l 563 564 q 563 563 563 563 q 564 563 563 563 l 686 563 q 688 563 688 563 q 688 564 688 563 l 688 686 q 688 688 688 688 q 686 688 688 688 l 564 688 m 8 549 l 8 549 q 7 549 7 549 q 7 547 7 549 l 7 425 q 7 424 7 424 q 8 424 7 424 l 131 424 q 132 424 132 424 q 132 425 132 424 l 132 547 q 132 549 132 549 q 131 549 132 549 l 8 549 m 8 410 l 8 410 q 7 410 7 410 q 7 408 7 410 l 7 286 q 7 285 7 285 q 8 285 7 285 l 131 285 q 132 285 132 285 q 132 286 132 285 l 132 408 q 132 410 132 410 q 131 410 132 410 l 8 410 m 8 271 l 8 271 q 7 271 7 271 q 7 269 7 271 l 7 147 q 7 146 7 146 q 8 146 7 146 l 131 146 q 132 146 132 146 q 132 147 132 146 l 132 269 q 132 271 132 271 q 131 271 132 271 l 8 271 m 564 271 l 564 271 q 563 271 563 271 q 563 269 563 271 l 563 147 q 563 146 563 146 q 564 146 563 146 l 686 146 q 688 146 688 146 q 688 147 688 146 l 688 269 q 688 271 688 271 q 686 271 688 271 l 564 271 m 147 132 l 147 132 q 146 132 146 132 q 146 131 146 132 l 146 8 q 146 7 146 7 q 147 7 146 7 l 269 7 q 271 7 271 7 q 271 8 271 7 l 271 131 q 271 132 271 132 q 269 132 271 132 l 147 132 m 286 132 l 286 132 q 285 132 285 132 q 285 131 285 132 l 285 8 q 285 7 285 7 q 286 7 285 7 l 408 7 q 410 7 410 7 q 410 8 410 7 l 410 131 q 410 132 410 132 q 408 132 410 132 l 286 132 m 425 132 l 425 132 q 424 132 424 132 q 424 131 424 132 l 424 8 q 424 7 424 7 q 425 7 424 7 l 547 7 q 549 7 549 7 q 549 8 549 7 l 549 131 q 549 132 549 132 q 547 132 549 132 l 425 132 z "},"Č":{"ha":833,"x_min":7,"x_max":688,"o":"m 147 1104 l 147 1104 q 146 1104 146 1104 q 146 1103 146 1104 l 146 981 q 146 979 146 979 q 147 979 146 979 l 269 979 q 271 979 271 979 q 271 981 271 979 l 271 1103 q 271 1104 271 1104 q 269 1104 271 1104 l 147 1104 m 425 1104 l 425 1104 q 424 1104 424 1104 q 424 1103 424 1104 l 424 981 q 424 979 424 979 q 425 979 424 979 l 547 979 q 549 979 549 979 q 549 981 549 979 l 549 1103 q 549 1104 549 1104 q 547 1104 549 1104 l 425 1104 m 286 965 l 286 965 q 285 965 285 965 q 285 964 285 965 l 285 842 q 285 840 285 840 q 286 840 285 840 l 408 840 q 410 840 410 840 q 410 842 410 840 l 410 964 q 410 965 410 965 q 408 965 410 965 l 286 965 m 147 826 l 147 826 q 146 826 146 826 q 146 825 146 826 l 146 703 q 146 701 146 701 q 147 701 146 701 l 269 701 q 271 701 271 701 q 271 703 271 701 l 271 825 q 271 826 271 826 q 269 826 271 826 l 147 826 m 286 826 l 286 826 q 285 826 285 826 q 285 825 285 826 l 285 703 q 285 701 285 701 q 286 701 285 701 l 408 701 q 410 701 410 701 q 410 703 410 701 l 410 825 q 410 826 410 826 q 408 826 410 826 l 286 826 m 425 826 l 425 826 q 424 826 424 826 q 424 825 424 826 l 424 703 q 424 701 424 701 q 425 701 424 701 l 547 701 q 549 701 549 701 q 549 703 549 701 l 549 825 q 549 826 549 826 q 547 826 549 826 l 425 826 m 8 688 l 8 688 q 7 688 7 688 q 7 686 7 688 l 7 564 q 7 563 7 563 q 8 563 7 563 l 131 563 q 132 563 132 563 q 132 564 132 563 l 132 686 q 132 688 132 688 q 131 688 132 688 l 8 688 m 564 688 l 564 688 q 563 688 563 688 q 563 686 563 688 l 563 564 q 563 563 563 563 q 564 563 563 563 l 686 563 q 688 563 688 563 q 688 564 688 563 l 688 686 q 688 688 688 688 q 686 688 688 688 l 564 688 m 8 549 l 8 549 q 7 549 7 549 q 7 547 7 549 l 7 425 q 7 424 7 424 q 8 424 7 424 l 131 424 q 132 424 132 424 q 132 425 132 424 l 132 547 q 132 549 132 549 q 131 549 132 549 l 8 549 m 8 410 l 8 410 q 7 410 7 410 q 7 408 7 410 l 7 286 q 7 285 7 285 q 8 285 7 285 l 131 285 q 132 285 132 285 q 132 286 132 285 l 132 408 q 132 410 132 410 q 131 410 132 410 l 8 410 m 8 271 l 8 271 q 7 271 7 271 q 7 269 7 271 l 7 147 q 7 146 7 146 q 8 146 7 146 l 131 146 q 132 146 132 146 q 132 147 132 146 l 132 269 q 132 271 132 271 q 131 271 132 271 l 8 271 m 564 271 l 564 271 q 563 271 563 271 q 563 269 563 271 l 563 147 q 563 146 563 146 q 564 146 563 146 l 686 146 q 688 146 688 146 q 688 147 688 146 l 688 269 q 688 271 688 271 q 686 271 688 271 l 564 271 m 147 132 l 147 132 q 146 132 146 132 q 146 131 146 132 l 146 8 q 146 7 146 7 q 147 7 146 7 l 269 7 q 271 7 271 7 q 271 8 271 7 l 271 131 q 271 132 271 132 q 269 132 271 132 l 147 132 m 286 132 l 286 132 q 285 132 285 132 q 285 131 285 132 l 285 8 q 285 7 285 7 q 286 7 285 7 l 408 7 q 410 7 410 7 q 410 8 410 7 l 410 131 q 410 132 410 132 q 408 132 410 132 l 286 132 m 425 132 l 425 132 q 424 132 424 132 q 424 131 424 132 l 424 8 q 424 7 424 7 q 425 7 424 7 l 547 7 q 549 7 549 7 q 549 8 549 7 l 549 131 q 549 132 549 132 q 547 132 549 132 l 425 132 z "},"Ç":{"ha":833,"x_min":7,"x_max":688,"o":"m 147 965 l 147 965 q 146 965 146 965 q 146 964 146 965 l 146 842 q 146 840 146 840 q 147 840 146 840 l 269 840 q 271 840 271 840 q 271 842 271 840 l 271 964 q 271 965 271 965 q 269 965 271 965 l 147 965 m 286 965 l 286 965 q 285 965 285 965 q 285 964 285 965 l 285 842 q 285 840 285 840 q 286 840 285 840 l 408 840 q 410 840 410 840 q 410 842 410 840 l 410 964 q 410 965 410 965 q 408 965 410 965 l 286 965 m 425 965 l 425 965 q 424 965 424 965 q 424 964 424 965 l 424 842 q 424 840 424 840 q 425 840 424 840 l 547 840 q 549 840 549 840 q 549 842 549 840 l 549 964 q 549 965 549 965 q 547 965 549 965 l 425 965 m 8 826 l 8 826 q 7 826 7 826 q 7 825 7 826 l 7 703 q 7 701 7 701 q 8 701 7 701 l 131 701 q 132 701 132 701 q 132 703 132 701 l 132 825 q 132 826 132 826 q 131 826 132 826 l 8 826 m 564 826 l 564 826 q 563 826 563 826 q 563 825 563 826 l 563 703 q 563 701 563 701 q 564 701 563 701 l 686 701 q 688 701 688 701 q 688 703 688 701 l 688 825 q 688 826 688 826 q 686 826 688 826 l 564 826 m 8 688 l 8 688 q 7 688 7 688 q 7 686 7 688 l 7 564 q 7 563 7 563 q 8 563 7 563 l 131 563 q 132 563 132 563 q 132 564 132 563 l 132 686 q 132 688 132 688 q 131 688 132 688 l 8 688 m 8 549 l 8 549 q 7 549 7 549 q 7 547 7 549 l 7 425 q 7 424 7 424 q 8 424 7 424 l 131 424 q 132 424 132 424 q 132 425 132 424 l 132 547 q 132 549 132 549 q 131 549 132 549 l 8 549 m 8 410 l 8 410 q 7 410 7 410 q 7 408 7 410 l 7 286 q 7 285 7 285 q 8 285 7 285 l 131 285 q 132 285 132 285 q 132 286 132 285 l 132 408 q 132 410 132 410 q 131 410 132 410 l 8 410 m 8 271 l 8 271 q 7 271 7 271 q 7 269 7 271 l 7 147 q 7 146 7 146 q 8 146 7 146 l 131 146 q 132 146 132 146 q 132 147 132 146 l 132 269 q 132 271 132 271 q 131 271 132 271 l 8 271 m 564 271 l 564 271 q 563 271 563 271 q 563 269 563 271 l 563 147 q 563 146 563 146 q 564 146 563 146 l 686 146 q 688 146 688 146 q 688 147 688 146 l 688 269 q 688 271 688 271 q 686 271 688 271 l 564 271 m 147 132 l 147 132 q 146 132 146 132 q 146 131 146 132 l 146 8 q 146 7 146 7 q 147 7 146 7 l 269 7 q 271 7 271 7 q 271 8 271 7 l 271 131 q 271 132 271 132 q 269 132 271 132 l 147 132 m 286 132 l 286 132 q 285 132 285 132 q 285 131 285 132 l 285 8 q 285 7 285 7 q 286 7 285 7 l 408 7 q 410 7 410 7 q 410 8 410 7 l 410 131 q 410 132 410 132 q 408 132 410 132 l 286 132 m 425 132 l 425 132 q 424 132 424 132 q 424 131 424 132 l 424 8 q 424 7 424 7 q 425 7 424 7 l 547 7 q 549 7 549 7 q 549 8 549 7 l 549 131 q 549 132 549 132 q 547 132 549 132 l 425 132 m 286 -7 l 286 -7 q 285 -7 285 -7 q 285 -8 285 -7 l 285 -131 q 285 -132 285 -132 q 286 -132 285 -132 l 408 -132 q 410 -132 410 -132 q 410 -131 410 -132 l 410 -8 q 410 -7 410 -7 q 408 -7 410 -7 l 286 -7 m 147 -146 l 147 -146 q 146 -146 146 -146 q 146 -147 146 -146 l 146 -269 q 146 -271 146 -271 q 147 -271 146 -271 l 269 -271 q 271 -271 271 -271 q 271 -269 271 -271 l 271 -147 q 271 -146 271 -146 q 269 -146 271 -146 l 147 -146 z "},"Ċ":{"ha":833,"x_min":7,"x_max":688,"o":"m 286 1104 l 286 1104 q 285 1104 285 1104 q 285 1103 285 1104 l 285 981 q 285 979 285 979 q 286 979 285 979 l 408 979 q 410 979 410 979 q 410 981 410 979 l 410 1103 q 410 1104 410 1104 q 408 1104 410 1104 l 286 1104 m 147 826 l 147 826 q 146 826 146 826 q 146 825 146 826 l 146 703 q 146 701 146 701 q 147 701 146 701 l 269 701 q 271 701 271 701 q 271 703 271 701 l 271 825 q 271 826 271 826 q 269 826 271 826 l 147 826 m 286 826 l 286 826 q 285 826 285 826 q 285 825 285 826 l 285 703 q 285 701 285 701 q 286 701 285 701 l 408 701 q 410 701 410 701 q 410 703 410 701 l 410 825 q 410 826 410 826 q 408 826 410 826 l 286 826 m 425 826 l 425 826 q 424 826 424 826 q 424 825 424 826 l 424 703 q 424 701 424 701 q 425 701 424 701 l 547 701 q 549 701 549 701 q 549 703 549 701 l 549 825 q 549 826 549 826 q 547 826 549 826 l 425 826 m 8 688 l 8 688 q 7 688 7 688 q 7 686 7 688 l 7 564 q 7 563 7 563 q 8 563 7 563 l 131 563 q 132 563 132 563 q 132 564 132 563 l 132 686 q 132 688 132 688 q 131 688 132 688 l 8 688 m 564 688 l 564 688 q 563 688 563 688 q 563 686 563 688 l 563 564 q 563 563 563 563 q 564 563 563 563 l 686 563 q 688 563 688 563 q 688 564 688 563 l 688 686 q 688 688 688 688 q 686 688 688 688 l 564 688 m 8 549 l 8 549 q 7 549 7 549 q 7 547 7 549 l 7 425 q 7 424 7 424 q 8 424 7 424 l 131 424 q 132 424 132 424 q 132 425 132 424 l 132 547 q 132 549 132 549 q 131 549 132 549 l 8 549 m 8 410 l 8 410 q 7 410 7 410 q 7 408 7 410 l 7 286 q 7 285 7 285 q 8 285 7 285 l 131 285 q 132 285 132 285 q 132 286 132 285 l 132 408 q 132 410 132 410 q 131 410 132 410 l 8 410 m 8 271 l 8 271 q 7 271 7 271 q 7 269 7 271 l 7 147 q 7 146 7 146 q 8 146 7 146 l 131 146 q 132 146 132 146 q 132 147 132 146 l 132 269 q 132 271 132 271 q 131 271 132 271 l 8 271 m 564 271 l 564 271 q 563 271 563 271 q 563 269 563 271 l 563 147 q 563 146 563 146 q 564 146 563 146 l 686 146 q 688 146 688 146 q 688 147 688 146 l 688 269 q 688 271 688 271 q 686 271 688 271 l 564 271 m 147 132 l 147 132 q 146 132 146 132 q 146 131 146 132 l 146 8 q 146 7 146 7 q 147 7 146 7 l 269 7 q 271 7 271 7 q 271 8 271 7 l 271 131 q 271 132 271 132 q 269 132 271 132 l 147 132 m 286 132 l 286 132 q 285 132 285 132 q 285 131 285 132 l 285 8 q 285 7 285 7 q 286 7 285 7 l 408 7 q 410 7 410 7 q 410 8 410 7 l 410 131 q 410 132 410 132 q 408 132 410 132 l 286 132 m 425 132 l 425 132 q 424 132 424 132 q 424 131 424 132 l 424 8 q 424 7 424 7 q 425 7 424 7 l 547 7 q 549 7 549 7 q 549 8 549 7 l 549 131 q 549 132 549 132 q 547 132 549 132 l 425 132 z "},"D":{"ha":833,"x_min":7,"x_max":688,"o":"m 8 965 l 8 965 q 7 965 7 965 q 7 964 7 965 l 7 842 q 7 840 7 840 q 8 840 7 840 l 131 840 q 132 840 132 840 q 132 842 132 840 l 132 964 q 132 965 132 965 q 131 965 132 965 l 8 965 m 147 965 l 147 965 q 146 965 146 965 q 146 964 146 965 l 146 842 q 146 840 146 840 q 147 840 146 840 l 269 840 q 271 840 271 840 q 271 842 271 840 l 271 964 q 271 965 271 965 q 269 965 271 965 l 147 965 m 286 965 l 286 965 q 285 965 285 965 q 285 964 285 965 l 285 842 q 285 840 285 840 q 286 840 285 840 l 408 840 q 410 840 410 840 q 410 842 410 840 l 410 964 q 410 965 410 965 q 408 965 410 965 l 286 965 m 425 965 l 425 965 q 424 965 424 965 q 424 964 424 965 l 424 842 q 424 840 424 840 q 425 840 424 840 l 547 840 q 549 840 549 840 q 549 842 549 840 l 549 964 q 549 965 549 965 q 547 965 549 965 l 425 965 m 147 826 l 147 826 q 146 826 146 826 q 146 825 146 826 l 146 703 q 146 701 146 701 q 147 701 146 701 l 269 701 q 271 701 271 701 q 271 703 271 701 l 271 825 q 271 826 271 826 q 269 826 271 826 l 147 826 m 564 826 l 564 826 q 563 826 563 826 q 563 825 563 826 l 563 703 q 563 701 563 701 q 564 701 563 701 l 686 701 q 688 701 688 701 q 688 703 688 701 l 688 825 q 688 826 688 826 q 686 826 688 826 l 564 826 m 147 688 l 147 688 q 146 688 146 688 q 146 686 146 688 l 146 564 q 146 563 146 563 q 147 563 146 563 l 269 563 q 271 563 271 563 q 271 564 271 563 l 271 686 q 271 688 271 688 q 269 688 271 688 l 147 688 m 564 688 l 564 688 q 563 688 563 688 q 563 686 563 688 l 563 564 q 563 563 563 563 q 564 563 563 563 l 686 563 q 688 563 688 563 q 688 564 688 563 l 688 686 q 688 688 688 688 q 686 688 688 688 l 564 688 m 147 549 l 147 549 q 146 549 146 549 q 146 547 146 549 l 146 425 q 146 424 146 424 q 147 424 146 424 l 269 424 q 271 424 271 424 q 271 425 271 424 l 271 547 q 271 549 271 549 q 269 549 271 549 l 147 549 m 564 549 l 564 549 q 563 549 563 549 q 563 547 563 549 l 563 425 q 563 424 563 424 q 564 424 563 424 l 686 424 q 688 424 688 424 q 688 425 688 424 l 688 547 q 688 549 688 549 q 686 549 688 549 l 564 549 m 147 410 l 147 410 q 146 410 146 410 q 146 408 146 410 l 146 286 q 146 285 146 285 q 147 285 146 285 l 269 285 q 271 285 271 285 q 271 286 271 285 l 271 408 q 271 410 271 410 q 269 410 271 410 l 147 410 m 564 410 l 564 410 q 563 410 563 410 q 563 408 563 410 l 563 286 q 563 285 563 285 q 564 285 563 285 l 686 285 q 688 285 688 285 q 688 286 688 285 l 688 408 q 688 410 688 410 q 686 410 688 410 l 564 410 m 147 271 l 147 271 q 146 271 146 271 q 146 269 146 271 l 146 147 q 146 146 146 146 q 147 146 146 146 l 269 146 q 271 146 271 146 q 271 147 271 146 l 271 269 q 271 271 271 271 q 269 271 271 271 l 147 271 m 564 271 l 564 271 q 563 271 563 271 q 563 269 563 271 l 563 147 q 563 146 563 146 q 564 146 563 146 l 686 146 q 688 146 688 146 q 688 147 688 146 l 688 269 q 688 271 688 271 q 686 271 688 271 l 564 271 m 8 132 l 8 132 q 7 132 7 132 q 7 131 7 132 l 7 8 q 7 7 7 7 q 8 7 7 7 l 131 7 q 132 7 132 7 q 132 8 132 7 l 132 131 q 132 132 132 132 q 131 132 132 132 l 8 132 m 147 132 l 147 132 q 146 132 146 132 q 146 131 146 132 l 146 8 q 146 7 146 7 q 147 7 146 7 l 269 7 q 271 7 271 7 q 271 8 271 7 l 271 131 q 271 132 271 132 q 269 132 271 132 l 147 132 m 286 132 l 286 132 q 285 132 285 132 q 285 131 285 132 l 285 8 q 285 7 285 7 q 286 7 285 7 l 408 7 q 410 7 410 7 q 410 8 410 7 l 410 131 q 410 132 410 132 q 408 132 410 132 l 286 132 m 425 132 l 425 132 q 424 132 424 132 q 424 131 424 132 l 424 8 q 424 7 424 7 q 425 7 424 7 l 547 7 q 549 7 549 7 q 549 8 549 7 l 549 131 q 549 132 549 132 q 547 132 549 132 l 425 132 z "},"Ď":{"ha":833,"x_min":7,"x_max":688,"o":"m 147 1104 l 147 1104 q 146 1104 146 1104 q 146 1103 146 1104 l 146 981 q 146 979 146 979 q 147 979 146 979 l 269 979 q 271 979 271 979 q 271 981 271 979 l 271 1103 q 271 1104 271 1104 q 269 1104 271 1104 l 147 1104 m 425 1104 l 425 1104 q 424 1104 424 1104 q 424 1103 424 1104 l 424 981 q 424 979 424 979 q 425 979 424 979 l 547 979 q 549 979 549 979 q 549 981 549 979 l 549 1103 q 549 1104 549 1104 q 547 1104 549 1104 l 425 1104 m 286 965 l 286 965 q 285 965 285 965 q 285 964 285 965 l 285 842 q 285 840 285 840 q 286 840 285 840 l 408 840 q 410 840 410 840 q 410 842 410 840 l 410 964 q 410 965 410 965 q 408 965 410 965 l 286 965 m 8 826 l 8 826 q 7 826 7 826 q 7 825 7 826 l 7 703 q 7 701 7 701 q 8 701 7 701 l 131 701 q 132 701 132 701 q 132 703 132 701 l 132 825 q 132 826 132 826 q 131 826 132 826 l 8 826 m 147 826 l 147 826 q 146 826 146 826 q 146 825 146 826 l 146 703 q 146 701 146 701 q 147 701 146 701 l 269 701 q 271 701 271 701 q 271 703 271 701 l 271 825 q 271 826 271 826 q 269 826 271 826 l 147 826 m 286 826 l 286 826 q 285 826 285 826 q 285 825 285 826 l 285 703 q 285 701 285 701 q 286 701 285 701 l 408 701 q 410 701 410 701 q 410 703 410 701 l 410 825 q 410 826 410 826 q 408 826 410 826 l 286 826 m 425 826 l 425 826 q 424 826 424 826 q 424 825 424 826 l 424 703 q 424 701 424 701 q 425 701 424 701 l 547 701 q 549 701 549 701 q 549 703 549 701 l 549 825 q 549 826 549 826 q 547 826 549 826 l 425 826 m 8 688 l 8 688 q 7 688 7 688 q 7 686 7 688 l 7 564 q 7 563 7 563 q 8 563 7 563 l 131 563 q 132 563 132 563 q 132 564 132 563 l 132 686 q 132 688 132 688 q 131 688 132 688 l 8 688 m 564 688 l 564 688 q 563 688 563 688 q 563 686 563 688 l 563 564 q 563 563 563 563 q 564 563 563 563 l 686 563 q 688 563 688 563 q 688 564 688 563 l 688 686 q 688 688 688 688 q 686 688 688 688 l 564 688 m 8 549 l 8 549 q 7 549 7 549 q 7 547 7 549 l 7 425 q 7 424 7 424 q 8 424 7 424 l 131 424 q 132 424 132 424 q 132 425 132 424 l 132 547 q 132 549 132 549 q 131 549 132 549 l 8 549 m 564 549 l 564 549 q 563 549 563 549 q 563 547 563 549 l 563 425 q 563 424 563 424 q 564 424 563 424 l 686 424 q 688 424 688 424 q 688 425 688 424 l 688 547 q 688 549 688 549 q 686 549 688 549 l 564 549 m 8 410 l 8 410 q 7 410 7 410 q 7 408 7 410 l 7 286 q 7 285 7 285 q 8 285 7 285 l 131 285 q 132 285 132 285 q 132 286 132 285 l 132 408 q 132 410 132 410 q 131 410 132 410 l 8 410 m 564 410 l 564 410 q 563 410 563 410 q 563 408 563 410 l 563 286 q 563 285 563 285 q 564 285 563 285 l 686 285 q 688 285 688 285 q 688 286 688 285 l 688 408 q 688 410 688 410 q 686 410 688 410 l 564 410 m 8 271 l 8 271 q 7 271 7 271 q 7 269 7 271 l 7 147 q 7 146 7 146 q 8 146 7 146 l 131 146 q 132 146 132 146 q 132 147 132 146 l 132 269 q 132 271 132 271 q 131 271 132 271 l 8 271 m 564 271 l 564 271 q 563 271 563 271 q 563 269 563 271 l 563 147 q 563 146 563 146 q 564 146 563 146 l 686 146 q 688 146 688 146 q 688 147 688 146 l 688 269 q 688 271 688 271 q 686 271 688 271 l 564 271 m 8 132 l 8 132 q 7 132 7 132 q 7 131 7 132 l 7 8 q 7 7 7 7 q 8 7 7 7 l 131 7 q 132 7 132 7 q 132 8 132 7 l 132 131 q 132 132 132 132 q 131 132 132 132 l 8 132 m 147 132 l 147 132 q 146 132 146 132 q 146 131 146 132 l 146 8 q 146 7 146 7 q 147 7 146 7 l 269 7 q 271 7 271 7 q 271 8 271 7 l 271 131 q 271 132 271 132 q 269 132 271 132 l 147 132 m 286 132 l 286 132 q 285 132 285 132 q 285 131 285 132 l 285 8 q 285 7 285 7 q 286 7 285 7 l 408 7 q 410 7 410 7 q 410 8 410 7 l 410 131 q 410 132 410 132 q 408 132 410 132 l 286 132 m 425 132 l 425 132 q 424 132 424 132 q 424 131 424 132 l 424 8 q 424 7 424 7 q 425 7 424 7 l 547 7 q 549 7 549 7 q 549 8 549 7 l 549 131 q 549 132 549 132 q 547 132 549 132 l 425 132 z "},"Đ":{"ha":833,"x_min":7,"x_max":688,"o":"m 147 965 l 147 965 q 146 965 146 965 q 146 964 146 965 l 146 842 q 146 840 146 840 q 147 840 146 840 l 269 840 q 271 840 271 840 q 271 842 271 840 l 271 964 q 271 965 271 965 q 269 965 271 965 l 147 965 m 286 965 l 286 965 q 285 965 285 965 q 285 964 285 965 l 285 842 q 285 840 285 840 q 286 840 285 840 l 408 840 q 410 840 410 840 q 410 842 410 840 l 410 964 q 410 965 410 965 q 408 965 410 965 l 286 965 m 425 965 l 425 965 q 424 965 424 965 q 424 964 424 965 l 424 842 q 424 840 424 840 q 425 840 424 840 l 547 840 q 549 840 549 840 q 549 842 549 840 l 549 964 q 549 965 549 965 q 547 965 549 965 l 425 965 m 147 826 l 147 826 q 146 826 146 826 q 146 825 146 826 l 146 703 q 146 701 146 701 q 147 701 146 701 l 269 701 q 271 701 271 701 q 271 703 271 701 l 271 825 q 271 826 271 826 q 269 826 271 826 l 147 826 m 564 826 l 564 826 q 563 826 563 826 q 563 825 563 826 l 563 703 q 563 701 563 701 q 564 701 563 701 l 686 701 q 688 701 688 701 q 688 703 688 701 l 688 825 q 688 826 688 826 q 686 826 688 826 l 564 826 m 147 688 l 147 688 q 146 688 146 688 q 146 686 146 688 l 146 564 q 146 563 146 563 q 147 563 146 563 l 269 563 q 271 563 271 563 q 271 564 271 563 l 271 686 q 271 688 271 688 q 269 688 271 688 l 147 688 m 564 688 l 564 688 q 563 688 563 688 q 563 686 563 688 l 563 564 q 563 563 563 563 q 564 563 563 563 l 686 563 q 688 563 688 563 q 688 564 688 563 l 688 686 q 688 688 688 688 q 686 688 688 688 l 564 688 m 8 549 l 8 549 q 7 549 7 549 q 7 547 7 549 l 7 425 q 7 424 7 424 q 8 424 7 424 l 131 424 q 132 424 132 424 q 132 425 132 424 l 132 547 q 132 549 132 549 q 131 549 132 549 l 8 549 m 147 549 l 147 549 q 146 549 146 549 q 146 547 146 549 l 146 425 q 146 424 146 424 q 147 424 146 424 l 269 424 q 271 424 271 424 q 271 425 271 424 l 271 547 q 271 549 271 549 q 269 549 271 549 l 147 549 m 286 549 l 286 549 q 285 549 285 549 q 285 547 285 549 l 285 425 q 285 424 285 424 q 286 424 285 424 l 408 424 q 410 424 410 424 q 410 425 410 424 l 410 547 q 410 549 410 549 q 408 549 410 549 l 286 549 m 564 549 l 564 549 q 563 549 563 549 q 563 547 563 549 l 563 425 q 563 424 563 424 q 564 424 563 424 l 686 424 q 688 424 688 424 q 688 425 688 424 l 688 547 q 688 549 688 549 q 686 549 688 549 l 564 549 m 147 410 l 147 410 q 146 410 146 410 q 146 408 146 410 l 146 286 q 146 285 146 285 q 147 285 146 285 l 269 285 q 271 285 271 285 q 271 286 271 285 l 271 408 q 271 410 271 410 q 269 410 271 410 l 147 410 m 564 410 l 564 410 q 563 410 563 410 q 563 408 563 410 l 563 286 q 563 285 563 285 q 564 285 563 285 l 686 285 q 688 285 688 285 q 688 286 688 285 l 688 408 q 688 410 688 410 q 686 410 688 410 l 564 410 m 147 271 l 147 271 q 146 271 146 271 q 146 269 146 271 l 146 147 q 146 146 146 146 q 147 146 146 146 l 269 146 q 271 146 271 146 q 271 147 271 146 l 271 269 q 271 271 271 271 q 269 271 271 271 l 147 271 m 564 271 l 564 271 q 563 271 563 271 q 563 269 563 271 l 563 147 q 563 146 563 146 q 564 146 563 146 l 686 146 q 688 146 688 146 q 688 147 688 146 l 688 269 q 688 271 688 271 q 686 271 688 271 l 564 271 m 147 132 l 147 132 q 146 132 146 132 q 146 131 146 132 l 146 8 q 146 7 146 7 q 147 7 146 7 l 269 7 q 271 7 271 7 q 271 8 271 7 l 271 131 q 271 132 271 132 q 269 132 271 132 l 147 132 m 286 132 l 286 132 q 285 132 285 132 q 285 131 285 132 l 285 8 q 285 7 285 7 q 286 7 285 7 l 408 7 q 410 7 410 7 q 410 8 410 7 l 410 131 q 410 132 410 132 q 408 132 410 132 l 286 132 m 425 132 l 425 132 q 424 132 424 132 q 424 131 424 132 l 424 8 q 424 7 424 7 q 425 7 424 7 l 547 7 q 549 7 549 7 q 549 8 549 7 l 549 131 q 549 132 549 132 q 547 132 549 132 l 425 132 z "},"E":{"ha":833,"x_min":7,"x_max":688,"o":"m 8 965 l 8 965 q 7 965 7 965 q 7 964 7 965 l 7 842 q 7 840 7 840 q 8 840 7 840 l 131 840 q 132 840 132 840 q 132 842 132 840 l 132 964 q 132 965 132 965 q 131 965 132 965 l 8 965 m 147 965 l 147 965 q 146 965 146 965 q 146 964 146 965 l 146 842 q 146 840 146 840 q 147 840 146 840 l 269 840 q 271 840 271 840 q 271 842 271 840 l 271 964 q 271 965 271 965 q 269 965 271 965 l 147 965 m 286 965 l 286 965 q 285 965 285 965 q 285 964 285 965 l 285 842 q 285 840 285 840 q 286 840 285 840 l 408 840 q 410 840 410 840 q 410 842 410 840 l 410 964 q 410 965 410 965 q 408 965 410 965 l 286 965 m 425 965 l 425 965 q 424 965 424 965 q 424 964 424 965 l 424 842 q 424 840 424 840 q 425 840 424 840 l 547 840 q 549 840 549 840 q 549 842 549 840 l 549 964 q 549 965 549 965 q 547 965 549 965 l 425 965 m 564 965 l 564 965 q 563 965 563 965 q 563 964 563 965 l 563 842 q 563 840 563 840 q 564 840 563 840 l 686 840 q 688 840 688 840 q 688 842 688 840 l 688 964 q 688 965 688 965 q 686 965 688 965 l 564 965 m 8 826 l 8 826 q 7 826 7 826 q 7 825 7 826 l 7 703 q 7 701 7 701 q 8 701 7 701 l 131 701 q 132 701 132 701 q 132 703 132 701 l 132 825 q 132 826 132 826 q 131 826 132 826 l 8 826 m 8 688 l 8 688 q 7 688 7 688 q 7 686 7 688 l 7 564 q 7 563 7 563 q 8 563 7 563 l 131 563 q 132 563 132 563 q 132 564 132 563 l 132 686 q 132 688 132 688 q 131 688 132 688 l 8 688 m 8 549 l 8 549 q 7 549 7 549 q 7 547 7 549 l 7 425 q 7 424 7 424 q 8 424 7 424 l 131 424 q 132 424 132 424 q 132 425 132 424 l 132 547 q 132 549 132 549 q 131 549 132 549 l 8 549 m 147 549 l 147 549 q 146 549 146 549 q 146 547 146 549 l 146 425 q 146 424 146 424 q 147 424 146 424 l 269 424 q 271 424 271 424 q 271 425 271 424 l 271 547 q 271 549 271 549 q 269 549 271 549 l 147 549 m 286 549 l 286 549 q 285 549 285 549 q 285 547 285 549 l 285 425 q 285 424 285 424 q 286 424 285 424 l 408 424 q 410 424 410 424 q 410 425 410 424 l 410 547 q 410 549 410 549 q 408 549 410 549 l 286 549 m 425 549 l 425 549 q 424 549 424 549 q 424 547 424 549 l 424 425 q 424 424 424 424 q 425 424 424 424 l 547 424 q 549 424 549 424 q 549 425 549 424 l 549 547 q 549 549 549 549 q 547 549 549 549 l 425 549 m 8 410 l 8 410 q 7 410 7 410 q 7 408 7 410 l 7 286 q 7 285 7 285 q 8 285 7 285 l 131 285 q 132 285 132 285 q 132 286 132 285 l 132 408 q 132 410 132 410 q 131 410 132 410 l 8 410 m 8 271 l 8 271 q 7 271 7 271 q 7 269 7 271 l 7 147 q 7 146 7 146 q 8 146 7 146 l 131 146 q 132 146 132 146 q 132 147 132 146 l 132 269 q 132 271 132 271 q 131 271 132 271 l 8 271 m 8 132 l 8 132 q 7 132 7 132 q 7 131 7 132 l 7 8 q 7 7 7 7 q 8 7 7 7 l 131 7 q 132 7 132 7 q 132 8 132 7 l 132 131 q 132 132 132 132 q 131 132 132 132 l 8 132 m 147 132 l 147 132 q 146 132 146 132 q 146 131 146 132 l 146 8 q 146 7 146 7 q 147 7 146 7 l 269 7 q 271 7 271 7 q 271 8 271 7 l 271 131 q 271 132 271 132 q 269 132 271 132 l 147 132 m 286 132 l 286 132 q 285 132 285 132 q 285 131 285 132 l 285 8 q 285 7 285 7 q 286 7 285 7 l 408 7 q 410 7 410 7 q 410 8 410 7 l 410 131 q 410 132 410 132 q 408 132 410 132 l 286 132 m 425 132 l 425 132 q 424 132 424 132 q 424 131 424 132 l 424 8 q 424 7 424 7 q 425 7 424 7 l 547 7 q 549 7 549 7 q 549 8 549 7 l 549 131 q 549 132 549 132 q 547 132 549 132 l 425 132 m 564 132 l 564 132 q 563 132 563 132 q 563 131 563 132 l 563 8 q 563 7 563 7 q 564 7 563 7 l 686 7 q 688 7 688 7 q 688 8 688 7 l 688 131 q 688 132 688 132 q 686 132 688 132 l 564 132 z "},"É":{"ha":833,"x_min":7,"x_max":688,"o":"m 425 1104 l 425 1104 q 424 1104 424 1104 q 424 1103 424 1104 l 424 981 q 424 979 424 979 q 425 979 424 979 l 547 979 q 549 979 549 979 q 549 981 549 979 l 549 1103 q 549 1104 549 1104 q 547 1104 549 1104 l 425 1104 m 8 965 l 8 965 q 7 965 7 965 q 7 964 7 965 l 7 842 q 7 840 7 840 q 8 840 7 840 l 131 840 q 132 840 132 840 q 132 842 132 840 l 132 964 q 132 965 132 965 q 131 965 132 965 l 8 965 m 147 965 l 147 965 q 146 965 146 965 q 146 964 146 965 l 146 842 q 146 840 146 840 q 147 840 146 840 l 269 840 q 271 840 271 840 q 271 842 271 840 l 271 964 q 271 965 271 965 q 269 965 271 965 l 147 965 m 286 965 l 286 965 q 285 965 285 965 q 285 964 285 965 l 285 842 q 285 840 285 840 q 286 840 285 840 l 408 840 q 410 840 410 840 q 410 842 410 840 l 410 964 q 410 965 410 965 q 408 965 410 965 l 286 965 m 425 965 l 425 965 q 424 965 424 965 q 424 964 424 965 l 424 842 q 424 840 424 840 q 425 840 424 840 l 547 840 q 549 840 549 840 q 549 842 549 840 l 549 964 q 549 965 549 965 q 547 965 549 965 l 425 965 m 564 965 l 564 965 q 563 965 563 965 q 563 964 563 965 l 563 842 q 563 840 563 840 q 564 840 563 840 l 686 840 q 688 840 688 840 q 688 842 688 840 l 688 964 q 688 965 688 965 q 686 965 688 965 l 564 965 m 8 826 l 8 826 q 7 826 7 826 q 7 825 7 826 l 7 703 q 7 701 7 701 q 8 701 7 701 l 131 701 q 132 701 132 701 q 132 703 132 701 l 132 825 q 132 826 132 826 q 131 826 132 826 l 8 826 m 8 688 l 8 688 q 7 688 7 688 q 7 686 7 688 l 7 564 q 7 563 7 563 q 8 563 7 563 l 131 563 q 132 563 132 563 q 132 564 132 563 l 132 686 q 132 688 132 688 q 131 688 132 688 l 8 688 m 8 549 l 8 549 q 7 549 7 549 q 7 547 7 549 l 7 425 q 7 424 7 424 q 8 424 7 424 l 131 424 q 132 424 132 424 q 132 425 132 424 l 132 547 q 132 549 132 549 q 131 549 132 549 l 8 549 m 147 549 l 147 549 q 146 549 146 549 q 146 547 146 549 l 146 425 q 146 424 146 424 q 147 424 146 424 l 269 424 q 271 424 271 424 q 271 425 271 424 l 271 547 q 271 549 271 549 q 269 549 271 549 l 147 549 m 286 549 l 286 549 q 285 549 285 549 q 285 547 285 549 l 285 425 q 285 424 285 424 q 286 424 285 424 l 408 424 q 410 424 410 424 q 410 425 410 424 l 410 547 q 410 549 410 549 q 408 549 410 549 l 286 549 m 425 549 l 425 549 q 424 549 424 549 q 424 547 424 549 l 424 425 q 424 424 424 424 q 425 424 424 424 l 547 424 q 549 424 549 424 q 549 425 549 424 l 549 547 q 549 549 549 549 q 547 549 549 549 l 425 549 m 8 410 l 8 410 q 7 410 7 410 q 7 408 7 410 l 7 286 q 7 285 7 285 q 8 285 7 285 l 131 285 q 132 285 132 285 q 132 286 132 285 l 132 408 q 132 410 132 410 q 131 410 132 410 l 8 410 m 8 271 l 8 271 q 7 271 7 271 q 7 269 7 271 l 7 147 q 7 146 7 146 q 8 146 7 146 l 131 146 q 132 146 132 146 q 132 147 132 146 l 132 269 q 132 271 132 271 q 131 271 132 271 l 8 271 m 8 132 l 8 132 q 7 132 7 132 q 7 131 7 132 l 7 8 q 7 7 7 7 q 8 7 7 7 l 131 7 q 132 7 132 7 q 132 8 132 7 l 132 131 q 132 132 132 132 q 131 132 132 132 l 8 132 m 147 132 l 147 132 q 146 132 146 132 q 146 131 146 132 l 146 8 q 146 7 146 7 q 147 7 146 7 l 269 7 q 271 7 271 7 q 271 8 271 7 l 271 131 q 271 132 271 132 q 269 132 271 132 l 147 132 m 286 132 l 286 132 q 285 132 285 132 q 285 131 285 132 l 285 8 q 285 7 285 7 q 286 7 285 7 l 408 7 q 410 7 410 7 q 410 8 410 7 l 410 131 q 410 132 410 132 q 408 132 410 132 l 286 132 m 425 132 l 425 132 q 424 132 424 132 q 424 131 424 132 l 424 8 q 424 7 424 7 q 425 7 424 7 l 547 7 q 549 7 549 7 q 549 8 549 7 l 549 131 q 549 132 549 132 q 547 132 549 132 l 425 132 m 564 132 l 564 132 q 563 132 563 132 q 563 131 563 132 l 563 8 q 563 7 563 7 q 564 7 563 7 l 686 7 q 688 7 688 7 q 688 8 688 7 l 688 131 q 688 132 688 132 q 686 132 688 132 l 564 132 z "},"Ě":{"ha":833,"x_min":7,"x_max":688,"o":"m 147 1104 l 147 1104 q 146 1104 146 1104 q 146 1103 146 1104 l 146 981 q 146 979 146 979 q 147 979 146 979 l 269 979 q 271 979 271 979 q 271 981 271 979 l 271 1103 q 271 1104 271 1104 q 269 1104 271 1104 l 147 1104 m 425 1104 l 425 1104 q 424 1104 424 1104 q 424 1103 424 1104 l 424 981 q 424 979 424 979 q 425 979 424 979 l 547 979 q 549 979 549 979 q 549 981 549 979 l 549 1103 q 549 1104 549 1104 q 547 1104 549 1104 l 425 1104 m 286 965 l 286 965 q 285 965 285 965 q 285 964 285 965 l 285 842 q 285 840 285 840 q 286 840 285 840 l 408 840 q 410 840 410 840 q 410 842 410 840 l 410 964 q 410 965 410 965 q 408 965 410 965 l 286 965 m 8 826 l 8 826 q 7 826 7 826 q 7 825 7 826 l 7 703 q 7 701 7 701 q 8 701 7 701 l 131 701 q 132 701 132 701 q 132 703 132 701 l 132 825 q 132 826 132 826 q 131 826 132 826 l 8 826 m 147 826 l 147 826 q 146 826 146 826 q 146 825 146 826 l 146 703 q 146 701 146 701 q 147 701 146 701 l 269 701 q 271 701 271 701 q 271 703 271 701 l 271 825 q 271 826 271 826 q 269 826 271 826 l 147 826 m 286 826 l 286 826 q 285 826 285 826 q 285 825 285 826 l 285 703 q 285 701 285 701 q 286 701 285 701 l 408 701 q 410 701 410 701 q 410 703 410 701 l 410 825 q 410 826 410 826 q 408 826 410 826 l 286 826 m 425 826 l 425 826 q 424 826 424 826 q 424 825 424 826 l 424 703 q 424 701 424 701 q 425 701 424 701 l 547 701 q 549 701 549 701 q 549 703 549 701 l 549 825 q 549 826 549 826 q 547 826 549 826 l 425 826 m 564 826 l 564 826 q 563 826 563 826 q 563 825 563 826 l 563 703 q 563 701 563 701 q 564 701 563 701 l 686 701 q 688 701 688 701 q 688 703 688 701 l 688 825 q 688 826 688 826 q 686 826 688 826 l 564 826 m 8 688 l 8 688 q 7 688 7 688 q 7 686 7 688 l 7 564 q 7 563 7 563 q 8 563 7 563 l 131 563 q 132 563 132 563 q 132 564 132 563 l 132 686 q 132 688 132 688 q 131 688 132 688 l 8 688 m 8 549 l 8 549 q 7 549 7 549 q 7 547 7 549 l 7 425 q 7 424 7 424 q 8 424 7 424 l 131 424 q 132 424 132 424 q 132 425 132 424 l 132 547 q 132 549 132 549 q 131 549 132 549 l 8 549 m 147 549 l 147 549 q 146 549 146 549 q 146 547 146 549 l 146 425 q 146 424 146 424 q 147 424 146 424 l 269 424 q 271 424 271 424 q 271 425 271 424 l 271 547 q 271 549 271 549 q 269 549 271 549 l 147 549 m 286 549 l 286 549 q 285 549 285 549 q 285 547 285 549 l 285 425 q 285 424 285 424 q 286 424 285 424 l 408 424 q 410 424 410 424 q 410 425 410 424 l 410 547 q 410 549 410 549 q 408 549 410 549 l 286 549 m 425 549 l 425 549 q 424 549 424 549 q 424 547 424 549 l 424 425 q 424 424 424 424 q 425 424 424 424 l 547 424 q 549 424 549 424 q 549 425 549 424 l 549 547 q 549 549 549 549 q 547 549 549 549 l 425 549 m 8 410 l 8 410 q 7 410 7 410 q 7 408 7 410 l 7 286 q 7 285 7 285 q 8 285 7 285 l 131 285 q 132 285 132 285 q 132 286 132 285 l 132 408 q 132 410 132 410 q 131 410 132 410 l 8 410 m 8 271 l 8 271 q 7 271 7 271 q 7 269 7 271 l 7 147 q 7 146 7 146 q 8 146 7 146 l 131 146 q 132 146 132 146 q 132 147 132 146 l 132 269 q 132 271 132 271 q 131 271 132 271 l 8 271 m 8 132 l 8 132 q 7 132 7 132 q 7 131 7 132 l 7 8 q 7 7 7 7 q 8 7 7 7 l 131 7 q 132 7 132 7 q 132 8 132 7 l 132 131 q 132 132 132 132 q 131 132 132 132 l 8 132 m 147 132 l 147 132 q 146 132 146 132 q 146 131 146 132 l 146 8 q 146 7 146 7 q 147 7 146 7 l 269 7 q 271 7 271 7 q 271 8 271 7 l 271 131 q 271 132 271 132 q 269 132 271 132 l 147 132 m 286 132 l 286 132 q 285 132 285 132 q 285 131 285 132 l 285 8 q 285 7 285 7 q 286 7 285 7 l 408 7 q 410 7 410 7 q 410 8 410 7 l 410 131 q 410 132 410 132 q 408 132 410 132 l 286 132 m 425 132 l 425 132 q 424 132 424 132 q 424 131 424 132 l 424 8 q 424 7 424 7 q 425 7 424 7 l 547 7 q 549 7 549 7 q 549 8 549 7 l 549 131 q 549 132 549 132 q 547 132 549 132 l 425 132 m 564 132 l 564 132 q 563 132 563 132 q 563 131 563 132 l 563 8 q 563 7 563 7 q 564 7 563 7 l 686 7 q 688 7 688 7 q 688 8 688 7 l 688 131 q 688 132 688 132 q 686 132 688 132 l 564 132 z "},"Ê":{"ha":833,"x_min":7,"x_max":688,"o":"m 286 1104 l 286 1104 q 285 1104 285 1104 q 285 1103 285 1104 l 285 981 q 285 979 285 979 q 286 979 285 979 l 408 979 q 410 979 410 979 q 410 981 410 979 l 410 1103 q 410 1104 410 1104 q 408 1104 410 1104 l 286 1104 m 8 965 l 8 965 q 7 965 7 965 q 7 964 7 965 l 7 842 q 7 840 7 840 q 8 840 7 840 l 131 840 q 132 840 132 840 q 132 842 132 840 l 132 964 q 132 965 132 965 q 131 965 132 965 l 8 965 m 147 965 l 147 965 q 146 965 146 965 q 146 964 146 965 l 146 842 q 146 840 146 840 q 147 840 146 840 l 269 840 q 271 840 271 840 q 271 842 271 840 l 271 964 q 271 965 271 965 q 269 965 271 965 l 147 965 m 286 965 l 286 965 q 285 965 285 965 q 285 964 285 965 l 285 842 q 285 840 285 840 q 286 840 285 840 l 408 840 q 410 840 410 840 q 410 842 410 840 l 410 964 q 410 965 410 965 q 408 965 410 965 l 286 965 m 425 965 l 425 965 q 424 965 424 965 q 424 964 424 965 l 424 842 q 424 840 424 840 q 425 840 424 840 l 547 840 q 549 840 549 840 q 549 842 549 840 l 549 964 q 549 965 549 965 q 547 965 549 965 l 425 965 m 564 965 l 564 965 q 563 965 563 965 q 563 964 563 965 l 563 842 q 563 840 563 840 q 564 840 563 840 l 686 840 q 688 840 688 840 q 688 842 688 840 l 688 964 q 688 965 688 965 q 686 965 688 965 l 564 965 m 8 826 l 8 826 q 7 826 7 826 q 7 825 7 826 l 7 703 q 7 701 7 701 q 8 701 7 701 l 131 701 q 132 701 132 701 q 132 703 132 701 l 132 825 q 132 826 132 826 q 131 826 132 826 l 8 826 m 8 688 l 8 688 q 7 688 7 688 q 7 686 7 688 l 7 564 q 7 563 7 563 q 8 563 7 563 l 131 563 q 132 563 132 563 q 132 564 132 563 l 132 686 q 132 688 132 688 q 131 688 132 688 l 8 688 m 8 549 l 8 549 q 7 549 7 549 q 7 547 7 549 l 7 425 q 7 424 7 424 q 8 424 7 424 l 131 424 q 132 424 132 424 q 132 425 132 424 l 132 547 q 132 549 132 549 q 131 549 132 549 l 8 549 m 147 549 l 147 549 q 146 549 146 549 q 146 547 146 549 l 146 425 q 146 424 146 424 q 147 424 146 424 l 269 424 q 271 424 271 424 q 271 425 271 424 l 271 547 q 271 549 271 549 q 269 549 271 549 l 147 549 m 286 549 l 286 549 q 285 549 285 549 q 285 547 285 549 l 285 425 q 285 424 285 424 q 286 424 285 424 l 408 424 q 410 424 410 424 q 410 425 410 424 l 410 547 q 410 549 410 549 q 408 549 410 549 l 286 549 m 425 549 l 425 549 q 424 549 424 549 q 424 547 424 549 l 424 425 q 424 424 424 424 q 425 424 424 424 l 547 424 q 549 424 549 424 q 549 425 549 424 l 549 547 q 549 549 549 549 q 547 549 549 549 l 425 549 m 8 410 l 8 410 q 7 410 7 410 q 7 408 7 410 l 7 286 q 7 285 7 285 q 8 285 7 285 l 131 285 q 132 285 132 285 q 132 286 132 285 l 132 408 q 132 410 132 410 q 131 410 132 410 l 8 410 m 8 271 l 8 271 q 7 271 7 271 q 7 269 7 271 l 7 147 q 7 146 7 146 q 8 146 7 146 l 131 146 q 132 146 132 146 q 132 147 132 146 l 132 269 q 132 271 132 271 q 131 271 132 271 l 8 271 m 8 132 l 8 132 q 7 132 7 132 q 7 131 7 132 l 7 8 q 7 7 7 7 q 8 7 7 7 l 131 7 q 132 7 132 7 q 132 8 132 7 l 132 131 q 132 132 132 132 q 131 132 132 132 l 8 132 m 147 132 l 147 132 q 146 132 146 132 q 146 131 146 132 l 146 8 q 146 7 146 7 q 147 7 146 7 l 269 7 q 271 7 271 7 q 271 8 271 7 l 271 131 q 271 132 271 132 q 269 132 271 132 l 147 132 m 286 132 l 286 132 q 285 132 285 132 q 285 131 285 132 l 285 8 q 285 7 285 7 q 286 7 285 7 l 408 7 q 410 7 410 7 q 410 8 410 7 l 410 131 q 410 132 410 132 q 408 132 410 132 l 286 132 m 425 132 l 425 132 q 424 132 424 132 q 424 131 424 132 l 424 8 q 424 7 424 7 q 425 7 424 7 l 547 7 q 549 7 549 7 q 549 8 549 7 l 549 131 q 549 132 549 132 q 547 132 549 132 l 425 132 m 564 132 l 564 132 q 563 132 563 132 q 563 131 563 132 l 563 8 q 563 7 563 7 q 564 7 563 7 l 686 7 q 688 7 688 7 q 688 8 688 7 l 688 131 q 688 132 688 132 q 686 132 688 132 l 564 132 z "},"Ë":{"ha":833,"x_min":7,"x_max":688,"o":"m 147 1104 l 147 1104 q 146 1104 146 1104 q 146 1103 146 1104 l 146 981 q 146 979 146 979 q 147 979 146 979 l 269 979 q 271 979 271 979 q 271 981 271 979 l 271 1103 q 271 1104 271 1104 q 269 1104 271 1104 l 147 1104 m 425 1104 l 425 1104 q 424 1104 424 1104 q 424 1103 424 1104 l 424 981 q 424 979 424 979 q 425 979 424 979 l 547 979 q 549 979 549 979 q 549 981 549 979 l 549 1103 q 549 1104 549 1104 q 547 1104 549 1104 l 425 1104 m 8 965 l 8 965 q 7 965 7 965 q 7 964 7 965 l 7 842 q 7 840 7 840 q 8 840 7 840 l 131 840 q 132 840 132 840 q 132 842 132 840 l 132 964 q 132 965 132 965 q 131 965 132 965 l 8 965 m 147 965 l 147 965 q 146 965 146 965 q 146 964 146 965 l 146 842 q 146 840 146 840 q 147 840 146 840 l 269 840 q 271 840 271 840 q 271 842 271 840 l 271 964 q 271 965 271 965 q 269 965 271 965 l 147 965 m 286 965 l 286 965 q 285 965 285 965 q 285 964 285 965 l 285 842 q 285 840 285 840 q 286 840 285 840 l 408 840 q 410 840 410 840 q 410 842 410 840 l 410 964 q 410 965 410 965 q 408 965 410 965 l 286 965 m 425 965 l 425 965 q 424 965 424 965 q 424 964 424 965 l 424 842 q 424 840 424 840 q 425 840 424 840 l 547 840 q 549 840 549 840 q 549 842 549 840 l 549 964 q 549 965 549 965 q 547 965 549 965 l 425 965 m 564 965 l 564 965 q 563 965 563 965 q 563 964 563 965 l 563 842 q 563 840 563 840 q 564 840 563 840 l 686 840 q 688 840 688 840 q 688 842 688 840 l 688 964 q 688 965 688 965 q 686 965 688 965 l 564 965 m 8 826 l 8 826 q 7 826 7 826 q 7 825 7 826 l 7 703 q 7 701 7 701 q 8 701 7 701 l 131 701 q 132 701 132 701 q 132 703 132 701 l 132 825 q 132 826 132 826 q 131 826 132 826 l 8 826 m 8 688 l 8 688 q 7 688 7 688 q 7 686 7 688 l 7 564 q 7 563 7 563 q 8 563 7 563 l 131 563 q 132 563 132 563 q 132 564 132 563 l 132 686 q 132 688 132 688 q 131 688 132 688 l 8 688 m 8 549 l 8 549 q 7 549 7 549 q 7 547 7 549 l 7 425 q 7 424 7 424 q 8 424 7 424 l 131 424 q 132 424 132 424 q 132 425 132 424 l 132 547 q 132 549 132 549 q 131 549 132 549 l 8 549 m 147 549 l 147 549 q 146 549 146 549 q 146 547 146 549 l 146 425 q 146 424 146 424 q 147 424 146 424 l 269 424 q 271 424 271 424 q 271 425 271 424 l 271 547 q 271 549 271 549 q 269 549 271 549 l 147 549 m 286 549 l 286 549 q 285 549 285 549 q 285 547 285 549 l 285 425 q 285 424 285 424 q 286 424 285 424 l 408 424 q 410 424 410 424 q 410 425 410 424 l 410 547 q 410 549 410 549 q 408 549 410 549 l 286 549 m 425 549 l 425 549 q 424 549 424 549 q 424 547 424 549 l 424 425 q 424 424 424 424 q 425 424 424 424 l 547 424 q 549 424 549 424 q 549 425 549 424 l 549 547 q 549 549 549 549 q 547 549 549 549 l 425 549 m 8 410 l 8 410 q 7 410 7 410 q 7 408 7 410 l 7 286 q 7 285 7 285 q 8 285 7 285 l 131 285 q 132 285 132 285 q 132 286 132 285 l 132 408 q 132 410 132 410 q 131 410 132 410 l 8 410 m 8 271 l 8 271 q 7 271 7 271 q 7 269 7 271 l 7 147 q 7 146 7 146 q 8 146 7 146 l 131 146 q 132 146 132 146 q 132 147 132 146 l 132 269 q 132 271 132 271 q 131 271 132 271 l 8 271 m 8 132 l 8 132 q 7 132 7 132 q 7 131 7 132 l 7 8 q 7 7 7 7 q 8 7 7 7 l 131 7 q 132 7 132 7 q 132 8 132 7 l 132 131 q 132 132 132 132 q 131 132 132 132 l 8 132 m 147 132 l 147 132 q 146 132 146 132 q 146 131 146 132 l 146 8 q 146 7 146 7 q 147 7 146 7 l 269 7 q 271 7 271 7 q 271 8 271 7 l 271 131 q 271 132 271 132 q 269 132 271 132 l 147 132 m 286 132 l 286 132 q 285 132 285 132 q 285 131 285 132 l 285 8 q 285 7 285 7 q 286 7 285 7 l 408 7 q 410 7 410 7 q 410 8 410 7 l 410 131 q 410 132 410 132 q 408 132 410 132 l 286 132 m 425 132 l 425 132 q 424 132 424 132 q 424 131 424 132 l 424 8 q 424 7 424 7 q 425 7 424 7 l 547 7 q 549 7 549 7 q 549 8 549 7 l 549 131 q 549 132 549 132 q 547 132 549 132 l 425 132 m 564 132 l 564 132 q 563 132 563 132 q 563 131 563 132 l 563 8 q 563 7 563 7 q 564 7 563 7 l 686 7 q 688 7 688 7 q 688 8 688 7 l 688 131 q 688 132 688 132 q 686 132 688 132 l 564 132 z "},"Ė":{"ha":833,"x_min":7,"x_max":688,"o":"m 286 1104 l 286 1104 q 285 1104 285 1104 q 285 1103 285 1104 l 285 981 q 285 979 285 979 q 286 979 285 979 l 408 979 q 410 979 410 979 q 410 981 410 979 l 410 1103 q 410 1104 410 1104 q 408 1104 410 1104 l 286 1104 m 8 826 l 8 826 q 7 826 7 826 q 7 825 7 826 l 7 703 q 7 701 7 701 q 8 701 7 701 l 131 701 q 132 701 132 701 q 132 703 132 701 l 132 825 q 132 826 132 826 q 131 826 132 826 l 8 826 m 147 826 l 147 826 q 146 826 146 826 q 146 825 146 826 l 146 703 q 146 701 146 701 q 147 701 146 701 l 269 701 q 271 701 271 701 q 271 703 271 701 l 271 825 q 271 826 271 826 q 269 826 271 826 l 147 826 m 286 826 l 286 826 q 285 826 285 826 q 285 825 285 826 l 285 703 q 285 701 285 701 q 286 701 285 701 l 408 701 q 410 701 410 701 q 410 703 410 701 l 410 825 q 410 826 410 826 q 408 826 410 826 l 286 826 m 425 826 l 425 826 q 424 826 424 826 q 424 825 424 826 l 424 703 q 424 701 424 701 q 425 701 424 701 l 547 701 q 549 701 549 701 q 549 703 549 701 l 549 825 q 549 826 549 826 q 547 826 549 826 l 425 826 m 564 826 l 564 826 q 563 826 563 826 q 563 825 563 826 l 563 703 q 563 701 563 701 q 564 701 563 701 l 686 701 q 688 701 688 701 q 688 703 688 701 l 688 825 q 688 826 688 826 q 686 826 688 826 l 564 826 m 8 688 l 8 688 q 7 688 7 688 q 7 686 7 688 l 7 564 q 7 563 7 563 q 8 563 7 563 l 131 563 q 132 563 132 563 q 132 564 132 563 l 132 686 q 132 688 132 688 q 131 688 132 688 l 8 688 m 8 549 l 8 549 q 7 549 7 549 q 7 547 7 549 l 7 425 q 7 424 7 424 q 8 424 7 424 l 131 424 q 132 424 132 424 q 132 425 132 424 l 132 547 q 132 549 132 549 q 131 549 132 549 l 8 549 m 147 549 l 147 549 q 146 549 146 549 q 146 547 146 549 l 146 425 q 146 424 146 424 q 147 424 146 424 l 269 424 q 271 424 271 424 q 271 425 271 424 l 271 547 q 271 549 271 549 q 269 549 271 549 l 147 549 m 286 549 l 286 549 q 285 549 285 549 q 285 547 285 549 l 285 425 q 285 424 285 424 q 286 424 285 424 l 408 424 q 410 424 410 424 q 410 425 410 424 l 410 547 q 410 549 410 549 q 408 549 410 549 l 286 549 m 425 549 l 425 549 q 424 549 424 549 q 424 547 424 549 l 424 425 q 424 424 424 424 q 425 424 424 424 l 547 424 q 549 424 549 424 q 549 425 549 424 l 549 547 q 549 549 549 549 q 547 549 549 549 l 425 549 m 8 410 l 8 410 q 7 410 7 410 q 7 408 7 410 l 7 286 q 7 285 7 285 q 8 285 7 285 l 131 285 q 132 285 132 285 q 132 286 132 285 l 132 408 q 132 410 132 410 q 131 410 132 410 l 8 410 m 8 271 l 8 271 q 7 271 7 271 q 7 269 7 271 l 7 147 q 7 146 7 146 q 8 146 7 146 l 131 146 q 132 146 132 146 q 132 147 132 146 l 132 269 q 132 271 132 271 q 131 271 132 271 l 8 271 m 8 132 l 8 132 q 7 132 7 132 q 7 131 7 132 l 7 8 q 7 7 7 7 q 8 7 7 7 l 131 7 q 132 7 132 7 q 132 8 132 7 l 132 131 q 132 132 132 132 q 131 132 132 132 l 8 132 m 147 132 l 147 132 q 146 132 146 132 q 146 131 146 132 l 146 8 q 146 7 146 7 q 147 7 146 7 l 269 7 q 271 7 271 7 q 271 8 271 7 l 271 131 q 271 132 271 132 q 269 132 271 132 l 147 132 m 286 132 l 286 132 q 285 132 285 132 q 285 131 285 132 l 285 8 q 285 7 285 7 q 286 7 285 7 l 408 7 q 410 7 410 7 q 410 8 410 7 l 410 131 q 410 132 410 132 q 408 132 410 132 l 286 132 m 425 132 l 425 132 q 424 132 424 132 q 424 131 424 132 l 424 8 q 424 7 424 7 q 425 7 424 7 l 547 7 q 549 7 549 7 q 549 8 549 7 l 549 131 q 549 132 549 132 q 547 132 549 132 l 425 132 m 564 132 l 564 132 q 563 132 563 132 q 563 131 563 132 l 563 8 q 563 7 563 7 q 564 7 563 7 l 686 7 q 688 7 688 7 q 688 8 688 7 l 688 131 q 688 132 688 132 q 686 132 688 132 l 564 132 z "},"È":{"ha":833,"x_min":7,"x_max":688,"o":"m 147 1104 l 147 1104 q 146 1104 146 1104 q 146 1103 146 1104 l 146 981 q 146 979 146 979 q 147 979 146 979 l 269 979 q 271 979 271 979 q 271 981 271 979 l 271 1103 q 271 1104 271 1104 q 269 1104 271 1104 l 147 1104 m 8 965 l 8 965 q 7 965 7 965 q 7 964 7 965 l 7 842 q 7 840 7 840 q 8 840 7 840 l 131 840 q 132 840 132 840 q 132 842 132 840 l 132 964 q 132 965 132 965 q 131 965 132 965 l 8 965 m 147 965 l 147 965 q 146 965 146 965 q 146 964 146 965 l 146 842 q 146 840 146 840 q 147 840 146 840 l 269 840 q 271 840 271 840 q 271 842 271 840 l 271 964 q 271 965 271 965 q 269 965 271 965 l 147 965 m 286 965 l 286 965 q 285 965 285 965 q 285 964 285 965 l 285 842 q 285 840 285 840 q 286 840 285 840 l 408 840 q 410 840 410 840 q 410 842 410 840 l 410 964 q 410 965 410 965 q 408 965 410 965 l 286 965 m 425 965 l 425 965 q 424 965 424 965 q 424 964 424 965 l 424 842 q 424 840 424 840 q 425 840 424 840 l 547 840 q 549 840 549 840 q 549 842 549 840 l 549 964 q 549 965 549 965 q 547 965 549 965 l 425 965 m 564 965 l 564 965 q 563 965 563 965 q 563 964 563 965 l 563 842 q 563 840 563 840 q 564 840 563 840 l 686 840 q 688 840 688 840 q 688 842 688 840 l 688 964 q 688 965 688 965 q 686 965 688 965 l 564 965 m 8 826 l 8 826 q 7 826 7 826 q 7 825 7 826 l 7 703 q 7 701 7 701 q 8 701 7 701 l 131 701 q 132 701 132 701 q 132 703 132 701 l 132 825 q 132 826 132 826 q 131 826 132 826 l 8 826 m 8 688 l 8 688 q 7 688 7 688 q 7 686 7 688 l 7 564 q 7 563 7 563 q 8 563 7 563 l 131 563 q 132 563 132 563 q 132 564 132 563 l 132 686 q 132 688 132 688 q 131 688 132 688 l 8 688 m 8 549 l 8 549 q 7 549 7 549 q 7 547 7 549 l 7 425 q 7 424 7 424 q 8 424 7 424 l 131 424 q 132 424 132 424 q 132 425 132 424 l 132 547 q 132 549 132 549 q 131 549 132 549 l 8 549 m 147 549 l 147 549 q 146 549 146 549 q 146 547 146 549 l 146 425 q 146 424 146 424 q 147 424 146 424 l 269 424 q 271 424 271 424 q 271 425 271 424 l 271 547 q 271 549 271 549 q 269 549 271 549 l 147 549 m 286 549 l 286 549 q 285 549 285 549 q 285 547 285 549 l 285 425 q 285 424 285 424 q 286 424 285 424 l 408 424 q 410 424 410 424 q 410 425 410 424 l 410 547 q 410 549 410 549 q 408 549 410 549 l 286 549 m 425 549 l 425 549 q 424 549 424 549 q 424 547 424 549 l 424 425 q 424 424 424 424 q 425 424 424 424 l 547 424 q 549 424 549 424 q 549 425 549 424 l 549 547 q 549 549 549 549 q 547 549 549 549 l 425 549 m 8 410 l 8 410 q 7 410 7 410 q 7 408 7 410 l 7 286 q 7 285 7 285 q 8 285 7 285 l 131 285 q 132 285 132 285 q 132 286 132 285 l 132 408 q 132 410 132 410 q 131 410 132 410 l 8 410 m 8 271 l 8 271 q 7 271 7 271 q 7 269 7 271 l 7 147 q 7 146 7 146 q 8 146 7 146 l 131 146 q 132 146 132 146 q 132 147 132 146 l 132 269 q 132 271 132 271 q 131 271 132 271 l 8 271 m 8 132 l 8 132 q 7 132 7 132 q 7 131 7 132 l 7 8 q 7 7 7 7 q 8 7 7 7 l 131 7 q 132 7 132 7 q 132 8 132 7 l 132 131 q 132 132 132 132 q 131 132 132 132 l 8 132 m 147 132 l 147 132 q 146 132 146 132 q 146 131 146 132 l 146 8 q 146 7 146 7 q 147 7 146 7 l 269 7 q 271 7 271 7 q 271 8 271 7 l 271 131 q 271 132 271 132 q 269 132 271 132 l 147 132 m 286 132 l 286 132 q 285 132 285 132 q 285 131 285 132 l 285 8 q 285 7 285 7 q 286 7 285 7 l 408 7 q 410 7 410 7 q 410 8 410 7 l 410 131 q 410 132 410 132 q 408 132 410 132 l 286 132 m 425 132 l 425 132 q 424 132 424 132 q 424 131 424 132 l 424 8 q 424 7 424 7 q 425 7 424 7 l 547 7 q 549 7 549 7 q 549 8 549 7 l 549 131 q 549 132 549 132 q 547 132 549 132 l 425 132 m 564 132 l 564 132 q 563 132 563 132 q 563 131 563 132 l 563 8 q 563 7 563 7 q 564 7 563 7 l 686 7 q 688 7 688 7 q 688 8 688 7 l 688 131 q 688 132 688 132 q 686 132 688 132 l 564 132 z "},"Ē":{"ha":833,"x_min":7,"x_max":688,"o":"m 147 1104 l 147 1104 q 146 1104 146 1104 q 146 1103 146 1104 l 146 981 q 146 979 146 979 q 147 979 146 979 l 269 979 q 271 979 271 979 q 271 981 271 979 l 271 1103 q 271 1104 271 1104 q 269 1104 271 1104 l 147 1104 m 286 1104 l 286 1104 q 285 1104 285 1104 q 285 1103 285 1104 l 285 981 q 285 979 285 979 q 286 979 285 979 l 408 979 q 410 979 410 979 q 410 981 410 979 l 410 1103 q 410 1104 410 1104 q 408 1104 410 1104 l 286 1104 m 425 1104 l 425 1104 q 424 1104 424 1104 q 424 1103 424 1104 l 424 981 q 424 979 424 979 q 425 979 424 979 l 547 979 q 549 979 549 979 q 549 981 549 979 l 549 1103 q 549 1104 549 1104 q 547 1104 549 1104 l 425 1104 m 8 826 l 8 826 q 7 826 7 826 q 7 825 7 826 l 7 703 q 7 701 7 701 q 8 701 7 701 l 131 701 q 132 701 132 701 q 132 703 132 701 l 132 825 q 132 826 132 826 q 131 826 132 826 l 8 826 m 147 826 l 147 826 q 146 826 146 826 q 146 825 146 826 l 146 703 q 146 701 146 701 q 147 701 146 701 l 269 701 q 271 701 271 701 q 271 703 271 701 l 271 825 q 271 826 271 826 q 269 826 271 826 l 147 826 m 286 826 l 286 826 q 285 826 285 826 q 285 825 285 826 l 285 703 q 285 701 285 701 q 286 701 285 701 l 408 701 q 410 701 410 701 q 410 703 410 701 l 410 825 q 410 826 410 826 q 408 826 410 826 l 286 826 m 425 826 l 425 826 q 424 826 424 826 q 424 825 424 826 l 424 703 q 424 701 424 701 q 425 701 424 701 l 547 701 q 549 701 549 701 q 549 703 549 701 l 549 825 q 549 826 549 826 q 547 826 549 826 l 425 826 m 564 826 l 564 826 q 563 826 563 826 q 563 825 563 826 l 563 703 q 563 701 563 701 q 564 701 563 701 l 686 701 q 688 701 688 701 q 688 703 688 701 l 688 825 q 688 826 688 826 q 686 826 688 826 l 564 826 m 8 688 l 8 688 q 7 688 7 688 q 7 686 7 688 l 7 564 q 7 563 7 563 q 8 563 7 563 l 131 563 q 132 563 132 563 q 132 564 132 563 l 132 686 q 132 688 132 688 q 131 688 132 688 l 8 688 m 8 549 l 8 549 q 7 549 7 549 q 7 547 7 549 l 7 425 q 7 424 7 424 q 8 424 7 424 l 131 424 q 132 424 132 424 q 132 425 132 424 l 132 547 q 132 549 132 549 q 131 549 132 549 l 8 549 m 147 549 l 147 549 q 146 549 146 549 q 146 547 146 549 l 146 425 q 146 424 146 424 q 147 424 146 424 l 269 424 q 271 424 271 424 q 271 425 271 424 l 271 547 q 271 549 271 549 q 269 549 271 549 l 147 549 m 286 549 l 286 549 q 285 549 285 549 q 285 547 285 549 l 285 425 q 285 424 285 424 q 286 424 285 424 l 408 424 q 410 424 410 424 q 410 425 410 424 l 410 547 q 410 549 410 549 q 408 549 410 549 l 286 549 m 425 549 l 425 549 q 424 549 424 549 q 424 547 424 549 l 424 425 q 424 424 424 424 q 425 424 424 424 l 547 424 q 549 424 549 424 q 549 425 549 424 l 549 547 q 549 549 549 549 q 547 549 549 549 l 425 549 m 8 410 l 8 410 q 7 410 7 410 q 7 408 7 410 l 7 286 q 7 285 7 285 q 8 285 7 285 l 131 285 q 132 285 132 285 q 132 286 132 285 l 132 408 q 132 410 132 410 q 131 410 132 410 l 8 410 m 8 271 l 8 271 q 7 271 7 271 q 7 269 7 271 l 7 147 q 7 146 7 146 q 8 146 7 146 l 131 146 q 132 146 132 146 q 132 147 132 146 l 132 269 q 132 271 132 271 q 131 271 132 271 l 8 271 m 8 132 l 8 132 q 7 132 7 132 q 7 131 7 132 l 7 8 q 7 7 7 7 q 8 7 7 7 l 131 7 q 132 7 132 7 q 132 8 132 7 l 132 131 q 132 132 132 132 q 131 132 132 132 l 8 132 m 147 132 l 147 132 q 146 132 146 132 q 146 131 146 132 l 146 8 q 146 7 146 7 q 147 7 146 7 l 269 7 q 271 7 271 7 q 271 8 271 7 l 271 131 q 271 132 271 132 q 269 132 271 132 l 147 132 m 286 132 l 286 132 q 285 132 285 132 q 285 131 285 132 l 285 8 q 285 7 285 7 q 286 7 285 7 l 408 7 q 410 7 410 7 q 410 8 410 7 l 410 131 q 410 132 410 132 q 408 132 410 132 l 286 132 m 425 132 l 425 132 q 424 132 424 132 q 424 131 424 132 l 424 8 q 424 7 424 7 q 425 7 424 7 l 547 7 q 549 7 549 7 q 549 8 549 7 l 549 131 q 549 132 549 132 q 547 132 549 132 l 425 132 m 564 132 l 564 132 q 563 132 563 132 q 563 131 563 132 l 563 8 q 563 7 563 7 q 564 7 563 7 l 686 7 q 688 7 688 7 q 688 8 688 7 l 688 131 q 688 132 688 132 q 686 132 688 132 l 564 132 z "},"Ę":{"ha":833,"x_min":7,"x_max":688,"o":"m 8 965 l 8 965 q 7 965 7 965 q 7 964 7 965 l 7 842 q 7 840 7 840 q 8 840 7 840 l 131 840 q 132 840 132 840 q 132 842 132 840 l 132 964 q 132 965 132 965 q 131 965 132 965 l 8 965 m 147 965 l 147 965 q 146 965 146 965 q 146 964 146 965 l 146 842 q 146 840 146 840 q 147 840 146 840 l 269 840 q 271 840 271 840 q 271 842 271 840 l 271 964 q 271 965 271 965 q 269 965 271 965 l 147 965 m 286 965 l 286 965 q 285 965 285 965 q 285 964 285 965 l 285 842 q 285 840 285 840 q 286 840 285 840 l 408 840 q 410 840 410 840 q 410 842 410 840 l 410 964 q 410 965 410 965 q 408 965 410 965 l 286 965 m 425 965 l 425 965 q 424 965 424 965 q 424 964 424 965 l 424 842 q 424 840 424 840 q 425 840 424 840 l 547 840 q 549 840 549 840 q 549 842 549 840 l 549 964 q 549 965 549 965 q 547 965 549 965 l 425 965 m 564 965 l 564 965 q 563 965 563 965 q 563 964 563 965 l 563 842 q 563 840 563 840 q 564 840 563 840 l 686 840 q 688 840 688 840 q 688 842 688 840 l 688 964 q 688 965 688 965 q 686 965 688 965 l 564 965 m 8 826 l 8 826 q 7 826 7 826 q 7 825 7 826 l 7 703 q 7 701 7 701 q 8 701 7 701 l 131 701 q 132 701 132 701 q 132 703 132 701 l 132 825 q 132 826 132 826 q 131 826 132 826 l 8 826 m 8 688 l 8 688 q 7 688 7 688 q 7 686 7 688 l 7 564 q 7 563 7 563 q 8 563 7 563 l 131 563 q 132 563 132 563 q 132 564 132 563 l 132 686 q 132 688 132 688 q 131 688 132 688 l 8 688 m 8 549 l 8 549 q 7 549 7 549 q 7 547 7 549 l 7 425 q 7 424 7 424 q 8 424 7 424 l 131 424 q 132 424 132 424 q 132 425 132 424 l 132 547 q 132 549 132 549 q 131 549 132 549 l 8 549 m 147 549 l 147 549 q 146 549 146 549 q 146 547 146 549 l 146 425 q 146 424 146 424 q 147 424 146 424 l 269 424 q 271 424 271 424 q 271 425 271 424 l 271 547 q 271 549 271 549 q 269 549 271 549 l 147 549 m 286 549 l 286 549 q 285 549 285 549 q 285 547 285 549 l 285 425 q 285 424 285 424 q 286 424 285 424 l 408 424 q 410 424 410 424 q 410 425 410 424 l 410 547 q 410 549 410 549 q 408 549 410 549 l 286 549 m 425 549 l 425 549 q 424 549 424 549 q 424 547 424 549 l 424 425 q 424 424 424 424 q 425 424 424 424 l 547 424 q 549 424 549 424 q 549 425 549 424 l 549 547 q 549 549 549 549 q 547 549 549 549 l 425 549 m 8 410 l 8 410 q 7 410 7 410 q 7 408 7 410 l 7 286 q 7 285 7 285 q 8 285 7 285 l 131 285 q 132 285 132 285 q 132 286 132 285 l 132 408 q 132 410 132 410 q 131 410 132 410 l 8 410 m 8 271 l 8 271 q 7 271 7 271 q 7 269 7 271 l 7 147 q 7 146 7 146 q 8 146 7 146 l 131 146 q 132 146 132 146 q 132 147 132 146 l 132 269 q 132 271 132 271 q 131 271 132 271 l 8 271 m 8 132 l 8 132 q 7 132 7 132 q 7 131 7 132 l 7 8 q 7 7 7 7 q 8 7 7 7 l 131 7 q 132 7 132 7 q 132 8 132 7 l 132 131 q 132 132 132 132 q 131 132 132 132 l 8 132 m 147 132 l 147 132 q 146 132 146 132 q 146 131 146 132 l 146 8 q 146 7 146 7 q 147 7 146 7 l 269 7 q 271 7 271 7 q 271 8 271 7 l 271 131 q 271 132 271 132 q 269 132 271 132 l 147 132 m 286 132 l 286 132 q 285 132 285 132 q 285 131 285 132 l 285 8 q 285 7 285 7 q 286 7 285 7 l 408 7 q 410 7 410 7 q 410 8 410 7 l 410 131 q 410 132 410 132 q 408 132 410 132 l 286 132 m 425 132 l 425 132 q 424 132 424 132 q 424 131 424 132 l 424 8 q 424 7 424 7 q 425 7 424 7 l 547 7 q 549 7 549 7 q 549 8 549 7 l 549 131 q 549 132 549 132 q 547 132 549 132 l 425 132 m 564 132 l 564 132 q 563 132 563 132 q 563 131 563 132 l 563 8 q 563 7 563 7 q 564 7 563 7 l 686 7 q 688 7 688 7 q 688 8 688 7 l 688 131 q 688 132 688 132 q 686 132 688 132 l 564 132 m 286 -7 l 286 -7 q 285 -7 285 -7 q 285 -8 285 -7 l 285 -131 q 285 -132 285 -132 q 286 -132 285 -132 l 408 -132 q 410 -132 410 -132 q 410 -131 410 -132 l 410 -8 q 410 -7 410 -7 q 408 -7 410 -7 l 286 -7 m 286 -146 l 286 -146 q 285 -146 285 -146 q 285 -147 285 -146 l 285 -269 q 285 -271 285 -271 q 286 -271 285 -271 l 408 -271 q 410 -271 410 -271 q 410 -269 410 -271 l 410 -147 q 410 -146 410 -146 q 408 -146 410 -146 l 286 -146 m 425 -146 l 425 -146 q 424 -146 424 -146 q 424 -147 424 -146 l 424 -269 q 424 -271 424 -271 q 425 -271 424 -271 l 547 -271 q 549 -271 549 -271 q 549 -269 549 -271 l 549 -147 q 549 -146 549 -146 q 547 -146 549 -146 l 425 -146 z "},"Ð":{"ha":833,"x_min":7,"x_max":688,"o":"m 8 965 l 8 965 q 7 965 7 965 q 7 964 7 965 l 7 842 q 7 840 7 840 q 8 840 7 840 l 131 840 q 132 840 132 840 q 132 842 132 840 l 132 964 q 132 965 132 965 q 131 965 132 965 l 8 965 m 147 965 l 147 965 q 146 965 146 965 q 146 964 146 965 l 146 842 q 146 840 146 840 q 147 840 146 840 l 269 840 q 271 840 271 840 q 271 842 271 840 l 271 964 q 271 965 271 965 q 269 965 271 965 l 147 965 m 286 965 l 286 965 q 285 965 285 965 q 285 964 285 965 l 285 842 q 285 840 285 840 q 286 840 285 840 l 408 840 q 410 840 410 840 q 410 842 410 840 l 410 964 q 410 965 410 965 q 408 965 410 965 l 286 965 m 425 965 l 425 965 q 424 965 424 965 q 424 964 424 965 l 424 842 q 424 840 424 840 q 425 840 424 840 l 547 840 q 549 840 549 840 q 549 842 549 840 l 549 964 q 549 965 549 965 q 547 965 549 965 l 425 965 m 147 826 l 147 826 q 146 826 146 826 q 146 825 146 826 l 146 703 q 146 701 146 701 q 147 701 146 701 l 269 701 q 271 701 271 701 q 271 703 271 701 l 271 825 q 271 826 271 826 q 269 826 271 826 l 147 826 m 564 826 l 564 826 q 563 826 563 826 q 563 825 563 826 l 563 703 q 563 701 563 701 q 564 701 563 701 l 686 701 q 688 701 688 701 q 688 703 688 701 l 688 825 q 688 826 688 826 q 686 826 688 826 l 564 826 m 147 688 l 147 688 q 146 688 146 688 q 146 686 146 688 l 146 564 q 146 563 146 563 q 147 563 146 563 l 269 563 q 271 563 271 563 q 271 564 271 563 l 271 686 q 271 688 271 688 q 269 688 271 688 l 147 688 m 564 688 l 564 688 q 563 688 563 688 q 563 686 563 688 l 563 564 q 563 563 563 563 q 564 563 563 563 l 686 563 q 688 563 688 563 q 688 564 688 563 l 688 686 q 688 688 688 688 q 686 688 688 688 l 564 688 m 8 549 l 8 549 q 7 549 7 549 q 7 547 7 549 l 7 425 q 7 424 7 424 q 8 424 7 424 l 131 424 q 132 424 132 424 q 132 425 132 424 l 132 547 q 132 549 132 549 q 131 549 132 549 l 8 549 m 147 549 l 147 549 q 146 549 146 549 q 146 547 146 549 l 146 425 q 146 424 146 424 q 147 424 146 424 l 269 424 q 271 424 271 424 q 271 425 271 424 l 271 547 q 271 549 271 549 q 269 549 271 549 l 147 549 m 286 549 l 286 549 q 285 549 285 549 q 285 547 285 549 l 285 425 q 285 424 285 424 q 286 424 285 424 l 408 424 q 410 424 410 424 q 410 425 410 424 l 410 547 q 410 549 410 549 q 408 549 410 549 l 286 549 m 564 549 l 564 549 q 563 549 563 549 q 563 547 563 549 l 563 425 q 563 424 563 424 q 564 424 563 424 l 686 424 q 688 424 688 424 q 688 425 688 424 l 688 547 q 688 549 688 549 q 686 549 688 549 l 564 549 m 147 410 l 147 410 q 146 410 146 410 q 146 408 146 410 l 146 286 q 146 285 146 285 q 147 285 146 285 l 269 285 q 271 285 271 285 q 271 286 271 285 l 271 408 q 271 410 271 410 q 269 410 271 410 l 147 410 m 564 410 l 564 410 q 563 410 563 410 q 563 408 563 410 l 563 286 q 563 285 563 285 q 564 285 563 285 l 686 285 q 688 285 688 285 q 688 286 688 285 l 688 408 q 688 410 688 410 q 686 410 688 410 l 564 410 m 147 271 l 147 271 q 146 271 146 271 q 146 269 146 271 l 146 147 q 146 146 146 146 q 147 146 146 146 l 269 146 q 271 146 271 146 q 271 147 271 146 l 271 269 q 271 271 271 271 q 269 271 271 271 l 147 271 m 564 271 l 564 271 q 563 271 563 271 q 563 269 563 271 l 563 147 q 563 146 563 146 q 564 146 563 146 l 686 146 q 688 146 688 146 q 688 147 688 146 l 688 269 q 688 271 688 271 q 686 271 688 271 l 564 271 m 8 132 l 8 132 q 7 132 7 132 q 7 131 7 132 l 7 8 q 7 7 7 7 q 8 7 7 7 l 131 7 q 132 7 132 7 q 132 8 132 7 l 132 131 q 132 132 132 132 q 131 132 132 132 l 8 132 m 147 132 l 147 132 q 146 132 146 132 q 146 131 146 132 l 146 8 q 146 7 146 7 q 147 7 146 7 l 269 7 q 271 7 271 7 q 271 8 271 7 l 271 131 q 271 132 271 132 q 269 132 271 132 l 147 132 m 286 132 l 286 132 q 285 132 285 132 q 285 131 285 132 l 285 8 q 285 7 285 7 q 286 7 285 7 l 408 7 q 410 7 410 7 q 410 8 410 7 l 410 131 q 410 132 410 132 q 408 132 410 132 l 286 132 m 425 132 l 425 132 q 424 132 424 132 q 424 131 424 132 l 424 8 q 424 7 424 7 q 425 7 424 7 l 547 7 q 549 7 549 7 q 549 8 549 7 l 549 131 q 549 132 549 132 q 547 132 549 132 l 425 132 z "},"€":{"ha":833,"x_min":7,"x_max":688,"o":"m 286 965 l 286 965 q 285 965 285 965 q 285 964 285 965 l 285 842 q 285 840 285 840 q 286 840 285 840 l 408 840 q 410 840 410 840 q 410 842 410 840 l 410 964 q 410 965 410 965 q 408 965 410 965 l 286 965 m 425 965 l 425 965 q 424 965 424 965 q 424 964 424 965 l 424 842 q 424 840 424 840 q 425 840 424 840 l 547 840 q 549 840 549 840 q 549 842 549 840 l 549 964 q 549 965 549 965 q 547 965 549 965 l 425 965 m 147 826 l 147 826 q 146 826 146 826 q 146 825 146 826 l 146 703 q 146 701 146 701 q 147 701 146 701 l 269 701 q 271 701 271 701 q 271 703 271 701 l 271 825 q 271 826 271 826 q 269 826 271 826 l 147 826 m 564 826 l 564 826 q 563 826 563 826 q 563 825 563 826 l 563 703 q 563 701 563 701 q 564 701 563 701 l 686 701 q 688 701 688 701 q 688 703 688 701 l 688 825 q 688 826 688 826 q 686 826 688 826 l 564 826 m 8 688 l 8 688 q 7 688 7 688 q 7 686 7 688 l 7 564 q 7 563 7 563 q 8 563 7 563 l 131 563 q 132 563 132 563 q 132 564 132 563 l 132 686 q 132 688 132 688 q 131 688 132 688 l 8 688 m 147 688 l 147 688 q 146 688 146 688 q 146 686 146 688 l 146 564 q 146 563 146 563 q 147 563 146 563 l 269 563 q 271 563 271 563 q 271 564 271 563 l 271 686 q 271 688 271 688 q 269 688 271 688 l 147 688 m 286 688 l 286 688 q 285 688 285 688 q 285 686 285 688 l 285 564 q 285 563 285 563 q 286 563 285 563 l 408 563 q 410 563 410 563 q 410 564 410 563 l 410 686 q 410 688 410 688 q 408 688 410 688 l 286 688 m 147 549 l 147 549 q 146 549 146 549 q 146 547 146 549 l 146 425 q 146 424 146 424 q 147 424 146 424 l 269 424 q 271 424 271 424 q 271 425 271 424 l 271 547 q 271 549 271 549 q 269 549 271 549 l 147 549 m 8 410 l 8 410 q 7 410 7 410 q 7 408 7 410 l 7 286 q 7 285 7 285 q 8 285 7 285 l 131 285 q 132 285 132 285 q 132 286 132 285 l 132 408 q 132 410 132 410 q 131 410 132 410 l 8 410 m 147 410 l 147 410 q 146 410 146 410 q 146 408 146 410 l 146 286 q 146 285 146 285 q 147 285 146 285 l 269 285 q 271 285 271 285 q 271 286 271 285 l 271 408 q 271 410 271 410 q 269 410 271 410 l 147 410 m 286 410 l 286 410 q 285 410 285 410 q 285 408 285 410 l 285 286 q 285 285 285 285 q 286 285 285 285 l 408 285 q 410 285 410 285 q 410 286 410 285 l 410 408 q 410 410 410 410 q 408 410 410 410 l 286 410 m 147 271 l 147 271 q 146 271 146 271 q 146 269 146 271 l 146 147 q 146 146 146 146 q 147 146 146 146 l 269 146 q 271 146 271 146 q 271 147 271 146 l 271 269 q 271 271 271 271 q 269 271 271 271 l 147 271 m 564 271 l 564 271 q 563 271 563 271 q 563 269 563 271 l 563 147 q 563 146 563 146 q 564 146 563 146 l 686 146 q 688 146 688 146 q 688 147 688 146 l 688 269 q 688 271 688 271 q 686 271 688 271 l 564 271 m 286 132 l 286 132 q 285 132 285 132 q 285 131 285 132 l 285 8 q 285 7 285 7 q 286 7 285 7 l 408 7 q 410 7 410 7 q 410 8 410 7 l 410 131 q 410 132 410 132 q 408 132 410 132 l 286 132 m 425 132 l 425 132 q 424 132 424 132 q 424 131 424 132 l 424 8 q 424 7 424 7 q 425 7 424 7 l 547 7 q 549 7 549 7 q 549 8 549 7 l 549 131 q 549 132 549 132 q 547 132 549 132 l 425 132 z "},"F":{"ha":833,"x_min":7,"x_max":688,"o":"m 8 965 l 8 965 q 7 965 7 965 q 7 964 7 965 l 7 842 q 7 840 7 840 q 8 840 7 840 l 131 840 q 132 840 132 840 q 132 842 132 840 l 132 964 q 132 965 132 965 q 131 965 132 965 l 8 965 m 147 965 l 147 965 q 146 965 146 965 q 146 964 146 965 l 146 842 q 146 840 146 840 q 147 840 146 840 l 269 840 q 271 840 271 840 q 271 842 271 840 l 271 964 q 271 965 271 965 q 269 965 271 965 l 147 965 m 286 965 l 286 965 q 285 965 285 965 q 285 964 285 965 l 285 842 q 285 840 285 840 q 286 840 285 840 l 408 840 q 410 840 410 840 q 410 842 410 840 l 410 964 q 410 965 410 965 q 408 965 410 965 l 286 965 m 425 965 l 425 965 q 424 965 424 965 q 424 964 424 965 l 424 842 q 424 840 424 840 q 425 840 424 840 l 547 840 q 549 840 549 840 q 549 842 549 840 l 549 964 q 549 965 549 965 q 547 965 549 965 l 425 965 m 564 965 l 564 965 q 563 965 563 965 q 563 964 563 965 l 563 842 q 563 840 563 840 q 564 840 563 840 l 686 840 q 688 840 688 840 q 688 842 688 840 l 688 964 q 688 965 688 965 q 686 965 688 965 l 564 965 m 8 826 l 8 826 q 7 826 7 826 q 7 825 7 826 l 7 703 q 7 701 7 701 q 8 701 7 701 l 131 701 q 132 701 132 701 q 132 703 132 701 l 132 825 q 132 826 132 826 q 131 826 132 826 l 8 826 m 8 688 l 8 688 q 7 688 7 688 q 7 686 7 688 l 7 564 q 7 563 7 563 q 8 563 7 563 l 131 563 q 132 563 132 563 q 132 564 132 563 l 132 686 q 132 688 132 688 q 131 688 132 688 l 8 688 m 8 549 l 8 549 q 7 549 7 549 q 7 547 7 549 l 7 425 q 7 424 7 424 q 8 424 7 424 l 131 424 q 132 424 132 424 q 132 425 132 424 l 132 547 q 132 549 132 549 q 131 549 132 549 l 8 549 m 147 549 l 147 549 q 146 549 146 549 q 146 547 146 549 l 146 425 q 146 424 146 424 q 147 424 146 424 l 269 424 q 271 424 271 424 q 271 425 271 424 l 271 547 q 271 549 271 549 q 269 549 271 549 l 147 549 m 286 549 l 286 549 q 285 549 285 549 q 285 547 285 549 l 285 425 q 285 424 285 424 q 286 424 285 424 l 408 424 q 410 424 410 424 q 410 425 410 424 l 410 547 q 410 549 410 549 q 408 549 410 549 l 286 549 m 425 549 l 425 549 q 424 549 424 549 q 424 547 424 549 l 424 425 q 424 424 424 424 q 425 424 424 424 l 547 424 q 549 424 549 424 q 549 425 549 424 l 549 547 q 549 549 549 549 q 547 549 549 549 l 425 549 m 8 410 l 8 410 q 7 410 7 410 q 7 408 7 410 l 7 286 q 7 285 7 285 q 8 285 7 285 l 131 285 q 132 285 132 285 q 132 286 132 285 l 132 408 q 132 410 132 410 q 131 410 132 410 l 8 410 m 8 271 l 8 271 q 7 271 7 271 q 7 269 7 271 l 7 147 q 7 146 7 146 q 8 146 7 146 l 131 146 q 132 146 132 146 q 132 147 132 146 l 132 269 q 132 271 132 271 q 131 271 132 271 l 8 271 m 8 132 l 8 132 q 7 132 7 132 q 7 131 7 132 l 7 8 q 7 7 7 7 q 8 7 7 7 l 131 7 q 132 7 132 7 q 132 8 132 7 l 132 131 q 132 132 132 132 q 131 132 132 132 l 8 132 z "},"G":{"ha":833,"x_min":7,"x_max":688,"o":"m 147 965 l 147 965 q 146 965 146 965 q 146 964 146 965 l 146 842 q 146 840 146 840 q 147 840 146 840 l 269 840 q 271 840 271 840 q 271 842 271 840 l 271 964 q 271 965 271 965 q 269 965 271 965 l 147 965 m 286 965 l 286 965 q 285 965 285 965 q 285 964 285 965 l 285 842 q 285 840 285 840 q 286 840 285 840 l 408 840 q 410 840 410 840 q 410 842 410 840 l 410 964 q 410 965 410 965 q 408 965 410 965 l 286 965 m 425 965 l 425 965 q 424 965 424 965 q 424 964 424 965 l 424 842 q 424 840 424 840 q 425 840 424 840 l 547 840 q 549 840 549 840 q 549 842 549 840 l 549 964 q 549 965 549 965 q 547 965 549 965 l 425 965 m 8 826 l 8 826 q 7 826 7 826 q 7 825 7 826 l 7 703 q 7 701 7 701 q 8 701 7 701 l 131 701 q 132 701 132 701 q 132 703 132 701 l 132 825 q 132 826 132 826 q 131 826 132 826 l 8 826 m 564 826 l 564 826 q 563 826 563 826 q 563 825 563 826 l 563 703 q 563 701 563 701 q 564 701 563 701 l 686 701 q 688 701 688 701 q 688 703 688 701 l 688 825 q 688 826 688 826 q 686 826 688 826 l 564 826 m 8 688 l 8 688 q 7 688 7 688 q 7 686 7 688 l 7 564 q 7 563 7 563 q 8 563 7 563 l 131 563 q 132 563 132 563 q 132 564 132 563 l 132 686 q 132 688 132 688 q 131 688 132 688 l 8 688 m 8 549 l 8 549 q 7 549 7 549 q 7 547 7 549 l 7 425 q 7 424 7 424 q 8 424 7 424 l 131 424 q 132 424 132 424 q 132 425 132 424 l 132 547 q 132 549 132 549 q 131 549 132 549 l 8 549 m 8 410 l 8 410 q 7 410 7 410 q 7 408 7 410 l 7 286 q 7 285 7 285 q 8 285 7 285 l 131 285 q 132 285 132 285 q 132 286 132 285 l 132 408 q 132 410 132 410 q 131 410 132 410 l 8 410 m 425 410 l 425 410 q 424 410 424 410 q 424 408 424 410 l 424 286 q 424 285 424 285 q 425 285 424 285 l 547 285 q 549 285 549 285 q 549 286 549 285 l 549 408 q 549 410 549 410 q 547 410 549 410 l 425 410 m 564 410 l 564 410 q 563 410 563 410 q 563 408 563 410 l 563 286 q 563 285 563 285 q 564 285 563 285 l 686 285 q 688 285 688 285 q 688 286 688 285 l 688 408 q 688 410 688 410 q 686 410 688 410 l 564 410 m 8 271 l 8 271 q 7 271 7 271 q 7 269 7 271 l 7 147 q 7 146 7 146 q 8 146 7 146 l 131 146 q 132 146 132 146 q 132 147 132 146 l 132 269 q 132 271 132 271 q 131 271 132 271 l 8 271 m 564 271 l 564 271 q 563 271 563 271 q 563 269 563 271 l 563 147 q 563 146 563 146 q 564 146 563 146 l 686 146 q 688 146 688 146 q 688 147 688 146 l 688 269 q 688 271 688 271 q 686 271 688 271 l 564 271 m 147 132 l 147 132 q 146 132 146 132 q 146 131 146 132 l 146 8 q 146 7 146 7 q 147 7 146 7 l 269 7 q 271 7 271 7 q 271 8 271 7 l 271 131 q 271 132 271 132 q 269 132 271 132 l 147 132 m 286 132 l 286 132 q 285 132 285 132 q 285 131 285 132 l 285 8 q 285 7 285 7 q 286 7 285 7 l 408 7 q 410 7 410 7 q 410 8 410 7 l 410 131 q 410 132 410 132 q 408 132 410 132 l 286 132 m 425 132 l 425 132 q 424 132 424 132 q 424 131 424 132 l 424 8 q 424 7 424 7 q 425 7 424 7 l 547 7 q 549 7 549 7 q 549 8 549 7 l 549 131 q 549 132 549 132 q 547 132 549 132 l 425 132 z "},"Ğ":{"ha":833,"x_min":7,"x_max":688,"o":"m 8 1104 l 8 1104 q 7 1104 7 1104 q 7 1103 7 1104 l 7 981 q 7 979 7 979 q 8 979 7 979 l 131 979 q 132 979 132 979 q 132 981 132 979 l 132 1103 q 132 1104 132 1104 q 131 1104 132 1104 l 8 1104 m 564 1104 l 564 1104 q 563 1104 563 1104 q 563 1103 563 1104 l 563 981 q 563 979 563 979 q 564 979 563 979 l 686 979 q 688 979 688 979 q 688 981 688 979 l 688 1103 q 688 1104 688 1104 q 686 1104 688 1104 l 564 1104 m 147 965 l 147 965 q 146 965 146 965 q 146 964 146 965 l 146 842 q 146 840 146 840 q 147 840 146 840 l 269 840 q 271 840 271 840 q 271 842 271 840 l 271 964 q 271 965 271 965 q 269 965 271 965 l 147 965 m 286 965 l 286 965 q 285 965 285 965 q 285 964 285 965 l 285 842 q 285 840 285 840 q 286 840 285 840 l 408 840 q 410 840 410 840 q 410 842 410 840 l 410 964 q 410 965 410 965 q 408 965 410 965 l 286 965 m 425 965 l 425 965 q 424 965 424 965 q 424 964 424 965 l 424 842 q 424 840 424 840 q 425 840 424 840 l 547 840 q 549 840 549 840 q 549 842 549 840 l 549 964 q 549 965 549 965 q 547 965 549 965 l 425 965 m 147 826 l 147 826 q 146 826 146 826 q 146 825 146 826 l 146 703 q 146 701 146 701 q 147 701 146 701 l 269 701 q 271 701 271 701 q 271 703 271 701 l 271 825 q 271 826 271 826 q 269 826 271 826 l 147 826 m 286 826 l 286 826 q 285 826 285 826 q 285 825 285 826 l 285 703 q 285 701 285 701 q 286 701 285 701 l 408 701 q 410 701 410 701 q 410 703 410 701 l 410 825 q 410 826 410 826 q 408 826 410 826 l 286 826 m 425 826 l 425 826 q 424 826 424 826 q 424 825 424 826 l 424 703 q 424 701 424 701 q 425 701 424 701 l 547 701 q 549 701 549 701 q 549 703 549 701 l 549 825 q 549 826 549 826 q 547 826 549 826 l 425 826 m 8 688 l 8 688 q 7 688 7 688 q 7 686 7 688 l 7 564 q 7 563 7 563 q 8 563 7 563 l 131 563 q 132 563 132 563 q 132 564 132 563 l 132 686 q 132 688 132 688 q 131 688 132 688 l 8 688 m 564 688 l 564 688 q 563 688 563 688 q 563 686 563 688 l 563 564 q 563 563 563 563 q 564 563 563 563 l 686 563 q 688 563 688 563 q 688 564 688 563 l 688 686 q 688 688 688 688 q 686 688 688 688 l 564 688 m 8 549 l 8 549 q 7 549 7 549 q 7 547 7 549 l 7 425 q 7 424 7 424 q 8 424 7 424 l 131 424 q 132 424 132 424 q 132 425 132 424 l 132 547 q 132 549 132 549 q 131 549 132 549 l 8 549 m 8 410 l 8 410 q 7 410 7 410 q 7 408 7 410 l 7 286 q 7 285 7 285 q 8 285 7 285 l 131 285 q 132 285 132 285 q 132 286 132 285 l 132 408 q 132 410 132 410 q 131 410 132 410 l 8 410 m 425 410 l 425 410 q 424 410 424 410 q 424 408 424 410 l 424 286 q 424 285 424 285 q 425 285 424 285 l 547 285 q 549 285 549 285 q 549 286 549 285 l 549 408 q 549 410 549 410 q 547 410 549 410 l 425 410 m 564 410 l 564 410 q 563 410 563 410 q 563 408 563 410 l 563 286 q 563 285 563 285 q 564 285 563 285 l 686 285 q 688 285 688 285 q 688 286 688 285 l 688 408 q 688 410 688 410 q 686 410 688 410 l 564 410 m 8 271 l 8 271 q 7 271 7 271 q 7 269 7 271 l 7 147 q 7 146 7 146 q 8 146 7 146 l 131 146 q 132 146 132 146 q 132 147 132 146 l 132 269 q 132 271 132 271 q 131 271 132 271 l 8 271 m 564 271 l 564 271 q 563 271 563 271 q 563 269 563 271 l 563 147 q 563 146 563 146 q 564 146 563 146 l 686 146 q 688 146 688 146 q 688 147 688 146 l 688 269 q 688 271 688 271 q 686 271 688 271 l 564 271 m 147 132 l 147 132 q 146 132 146 132 q 146 131 146 132 l 146 8 q 146 7 146 7 q 147 7 146 7 l 269 7 q 271 7 271 7 q 271 8 271 7 l 271 131 q 271 132 271 132 q 269 132 271 132 l 147 132 m 286 132 l 286 132 q 285 132 285 132 q 285 131 285 132 l 285 8 q 285 7 285 7 q 286 7 285 7 l 408 7 q 410 7 410 7 q 410 8 410 7 l 410 131 q 410 132 410 132 q 408 132 410 132 l 286 132 m 425 132 l 425 132 q 424 132 424 132 q 424 131 424 132 l 424 8 q 424 7 424 7 q 425 7 424 7 l 547 7 q 549 7 549 7 q 549 8 549 7 l 549 131 q 549 132 549 132 q 547 132 549 132 l 425 132 z "},"Ġ":{"ha":833,"x_min":7,"x_max":688,"o":"m 286 1104 l 286 1104 q 285 1104 285 1104 q 285 1103 285 1104 l 285 981 q 285 979 285 979 q 286 979 285 979 l 408 979 q 410 979 410 979 q 410 981 410 979 l 410 1103 q 410 1104 410 1104 q 408 1104 410 1104 l 286 1104 m 147 826 l 147 826 q 146 826 146 826 q 146 825 146 826 l 146 703 q 146 701 146 701 q 147 701 146 701 l 269 701 q 271 701 271 701 q 271 703 271 701 l 271 825 q 271 826 271 826 q 269 826 271 826 l 147 826 m 286 826 l 286 826 q 285 826 285 826 q 285 825 285 826 l 285 703 q 285 701 285 701 q 286 701 285 701 l 408 701 q 410 701 410 701 q 410 703 410 701 l 410 825 q 410 826 410 826 q 408 826 410 826 l 286 826 m 425 826 l 425 826 q 424 826 424 826 q 424 825 424 826 l 424 703 q 424 701 424 701 q 425 701 424 701 l 547 701 q 549 701 549 701 q 549 703 549 701 l 549 825 q 549 826 549 826 q 547 826 549 826 l 425 826 m 8 688 l 8 688 q 7 688 7 688 q 7 686 7 688 l 7 564 q 7 563 7 563 q 8 563 7 563 l 131 563 q 132 563 132 563 q 132 564 132 563 l 132 686 q 132 688 132 688 q 131 688 132 688 l 8 688 m 564 688 l 564 688 q 563 688 563 688 q 563 686 563 688 l 563 564 q 563 563 563 563 q 564 563 563 563 l 686 563 q 688 563 688 563 q 688 564 688 563 l 688 686 q 688 688 688 688 q 686 688 688 688 l 564 688 m 8 549 l 8 549 q 7 549 7 549 q 7 547 7 549 l 7 425 q 7 424 7 424 q 8 424 7 424 l 131 424 q 132 424 132 424 q 132 425 132 424 l 132 547 q 132 549 132 549 q 131 549 132 549 l 8 549 m 8 410 l 8 410 q 7 410 7 410 q 7 408 7 410 l 7 286 q 7 285 7 285 q 8 285 7 285 l 131 285 q 132 285 132 285 q 132 286 132 285 l 132 408 q 132 410 132 410 q 131 410 132 410 l 8 410 m 425 410 l 425 410 q 424 410 424 410 q 424 408 424 410 l 424 286 q 424 285 424 285 q 425 285 424 285 l 547 285 q 549 285 549 285 q 549 286 549 285 l 549 408 q 549 410 549 410 q 547 410 549 410 l 425 410 m 564 410 l 564 410 q 563 410 563 410 q 563 408 563 410 l 563 286 q 563 285 563 285 q 564 285 563 285 l 686 285 q 688 285 688 285 q 688 286 688 285 l 688 408 q 688 410 688 410 q 686 410 688 410 l 564 410 m 8 271 l 8 271 q 7 271 7 271 q 7 269 7 271 l 7 147 q 7 146 7 146 q 8 146 7 146 l 131 146 q 132 146 132 146 q 132 147 132 146 l 132 269 q 132 271 132 271 q 131 271 132 271 l 8 271 m 564 271 l 564 271 q 563 271 563 271 q 563 269 563 271 l 563 147 q 563 146 563 146 q 564 146 563 146 l 686 146 q 688 146 688 146 q 688 147 688 146 l 688 269 q 688 271 688 271 q 686 271 688 271 l 564 271 m 147 132 l 147 132 q 146 132 146 132 q 146 131 146 132 l 146 8 q 146 7 146 7 q 147 7 146 7 l 269 7 q 271 7 271 7 q 271 8 271 7 l 271 131 q 271 132 271 132 q 269 132 271 132 l 147 132 m 286 132 l 286 132 q 285 132 285 132 q 285 131 285 132 l 285 8 q 285 7 285 7 q 286 7 285 7 l 408 7 q 410 7 410 7 q 410 8 410 7 l 410 131 q 410 132 410 132 q 408 132 410 132 l 286 132 m 425 132 l 425 132 q 424 132 424 132 q 424 131 424 132 l 424 8 q 424 7 424 7 q 425 7 424 7 l 547 7 q 549 7 549 7 q 549 8 549 7 l 549 131 q 549 132 549 132 q 547 132 549 132 l 425 132 z "},"H":{"ha":833,"x_min":7,"x_max":688,"o":"m 8 965 l 8 965 q 7 965 7 965 q 7 964 7 965 l 7 842 q 7 840 7 840 q 8 840 7 840 l 131 840 q 132 840 132 840 q 132 842 132 840 l 132 964 q 132 965 132 965 q 131 965 132 965 l 8 965 m 564 965 l 564 965 q 563 965 563 965 q 563 964 563 965 l 563 842 q 563 840 563 840 q 564 840 563 840 l 686 840 q 688 840 688 840 q 688 842 688 840 l 688 964 q 688 965 688 965 q 686 965 688 965 l 564 965 m 8 826 l 8 826 q 7 826 7 826 q 7 825 7 826 l 7 703 q 7 701 7 701 q 8 701 7 701 l 131 701 q 132 701 132 701 q 132 703 132 701 l 132 825 q 132 826 132 826 q 131 826 132 826 l 8 826 m 564 826 l 564 826 q 563 826 563 826 q 563 825 563 826 l 563 703 q 563 701 563 701 q 564 701 563 701 l 686 701 q 688 701 688 701 q 688 703 688 701 l 688 825 q 688 826 688 826 q 686 826 688 826 l 564 826 m 8 688 l 8 688 q 7 688 7 688 q 7 686 7 688 l 7 564 q 7 563 7 563 q 8 563 7 563 l 131 563 q 132 563 132 563 q 132 564 132 563 l 132 686 q 132 688 132 688 q 131 688 132 688 l 8 688 m 564 688 l 564 688 q 563 688 563 688 q 563 686 563 688 l 563 564 q 563 563 563 563 q 564 563 563 563 l 686 563 q 688 563 688 563 q 688 564 688 563 l 688 686 q 688 688 688 688 q 686 688 688 688 l 564 688 m 8 549 l 8 549 q 7 549 7 549 q 7 547 7 549 l 7 425 q 7 424 7 424 q 8 424 7 424 l 131 424 q 132 424 132 424 q 132 425 132 424 l 132 547 q 132 549 132 549 q 131 549 132 549 l 8 549 m 147 549 l 147 549 q 146 549 146 549 q 146 547 146 549 l 146 425 q 146 424 146 424 q 147 424 146 424 l 269 424 q 271 424 271 424 q 271 425 271 424 l 271 547 q 271 549 271 549 q 269 549 271 549 l 147 549 m 286 549 l 286 549 q 285 549 285 549 q 285 547 285 549 l 285 425 q 285 424 285 424 q 286 424 285 424 l 408 424 q 410 424 410 424 q 410 425 410 424 l 410 547 q 410 549 410 549 q 408 549 410 549 l 286 549 m 425 549 l 425 549 q 424 549 424 549 q 424 547 424 549 l 424 425 q 424 424 424 424 q 425 424 424 424 l 547 424 q 549 424 549 424 q 549 425 549 424 l 549 547 q 549 549 549 549 q 547 549 549 549 l 425 549 m 564 549 l 564 549 q 563 549 563 549 q 563 547 563 549 l 563 425 q 563 424 563 424 q 564 424 563 424 l 686 424 q 688 424 688 424 q 688 425 688 424 l 688 547 q 688 549 688 549 q 686 549 688 549 l 564 549 m 8 410 l 8 410 q 7 410 7 410 q 7 408 7 410 l 7 286 q 7 285 7 285 q 8 285 7 285 l 131 285 q 132 285 132 285 q 132 286 132 285 l 132 408 q 132 410 132 410 q 131 410 132 410 l 8 410 m 564 410 l 564 410 q 563 410 563 410 q 563 408 563 410 l 563 286 q 563 285 563 285 q 564 285 563 285 l 686 285 q 688 285 688 285 q 688 286 688 285 l 688 408 q 688 410 688 410 q 686 410 688 410 l 564 410 m 8 271 l 8 271 q 7 271 7 271 q 7 269 7 271 l 7 147 q 7 146 7 146 q 8 146 7 146 l 131 146 q 132 146 132 146 q 132 147 132 146 l 132 269 q 132 271 132 271 q 131 271 132 271 l 8 271 m 564 271 l 564 271 q 563 271 563 271 q 563 269 563 271 l 563 147 q 563 146 563 146 q 564 146 563 146 l 686 146 q 688 146 688 146 q 688 147 688 146 l 688 269 q 688 271 688 271 q 686 271 688 271 l 564 271 m 8 132 l 8 132 q 7 132 7 132 q 7 131 7 132 l 7 8 q 7 7 7 7 q 8 7 7 7 l 131 7 q 132 7 132 7 q 132 8 132 7 l 132 131 q 132 132 132 132 q 131 132 132 132 l 8 132 m 564 132 l 564 132 q 563 132 563 132 q 563 131 563 132 l 563 8 q 563 7 563 7 q 564 7 563 7 l 686 7 q 688 7 688 7 q 688 8 688 7 l 688 131 q 688 132 688 132 q 686 132 688 132 l 564 132 z "},"Ħ":{"ha":833,"x_min":7,"x_max":688,"o":"m 147 965 l 147 965 q 146 965 146 965 q 146 964 146 965 l 146 842 q 146 840 146 840 q 147 840 146 840 l 269 840 q 271 840 271 840 q 271 842 271 840 l 271 964 q 271 965 271 965 q 269 965 271 965 l 147 965 m 425 965 l 425 965 q 424 965 424 965 q 424 964 424 965 l 424 842 q 424 840 424 840 q 425 840 424 840 l 547 840 q 549 840 549 840 q 549 842 549 840 l 549 964 q 549 965 549 965 q 547 965 549 965 l 425 965 m 8 826 l 8 826 q 7 826 7 826 q 7 825 7 826 l 7 703 q 7 701 7 701 q 8 701 7 701 l 131 701 q 132 701 132 701 q 132 703 132 701 l 132 825 q 132 826 132 826 q 131 826 132 826 l 8 826 m 147 826 l 147 826 q 146 826 146 826 q 146 825 146 826 l 146 703 q 146 701 146 701 q 147 701 146 701 l 269 701 q 271 701 271 701 q 271 703 271 701 l 271 825 q 271 826 271 826 q 269 826 271 826 l 147 826 m 286 826 l 286 826 q 285 826 285 826 q 285 825 285 826 l 285 703 q 285 701 285 701 q 286 701 285 701 l 408 701 q 410 701 410 701 q 410 703 410 701 l 410 825 q 410 826 410 826 q 408 826 410 826 l 286 826 m 425 826 l 425 826 q 424 826 424 826 q 424 825 424 826 l 424 703 q 424 701 424 701 q 425 701 424 701 l 547 701 q 549 701 549 701 q 549 703 549 701 l 549 825 q 549 826 549 826 q 547 826 549 826 l 425 826 m 564 826 l 564 826 q 563 826 563 826 q 563 825 563 826 l 563 703 q 563 701 563 701 q 564 701 563 701 l 686 701 q 688 701 688 701 q 688 703 688 701 l 688 825 q 688 826 688 826 q 686 826 688 826 l 564 826 m 147 688 l 147 688 q 146 688 146 688 q 146 686 146 688 l 146 564 q 146 563 146 563 q 147 563 146 563 l 269 563 q 271 563 271 563 q 271 564 271 563 l 271 686 q 271 688 271 688 q 269 688 271 688 l 147 688 m 425 688 l 425 688 q 424 688 424 688 q 424 686 424 688 l 424 564 q 424 563 424 563 q 425 563 424 563 l 547 563 q 549 563 549 563 q 549 564 549 563 l 549 686 q 549 688 549 688 q 547 688 549 688 l 425 688 m 147 549 l 147 549 q 146 549 146 549 q 146 547 146 549 l 146 425 q 146 424 146 424 q 147 424 146 424 l 269 424 q 271 424 271 424 q 271 425 271 424 l 271 547 q 271 549 271 549 q 269 549 271 549 l 147 549 m 286 549 l 286 549 q 285 549 285 549 q 285 547 285 549 l 285 425 q 285 424 285 424 q 286 424 285 424 l 408 424 q 410 424 410 424 q 410 425 410 424 l 410 547 q 410 549 410 549 q 408 549 410 549 l 286 549 m 425 549 l 425 549 q 424 549 424 549 q 424 547 424 549 l 424 425 q 424 424 424 424 q 425 424 424 424 l 547 424 q 549 424 549 424 q 549 425 549 424 l 549 547 q 549 549 549 549 q 547 549 549 549 l 425 549 m 147 410 l 147 410 q 146 410 146 410 q 146 408 146 410 l 146 286 q 146 285 146 285 q 147 285 146 285 l 269 285 q 271 285 271 285 q 271 286 271 285 l 271 408 q 271 410 271 410 q 269 410 271 410 l 147 410 m 425 410 l 425 410 q 424 410 424 410 q 424 408 424 410 l 424 286 q 424 285 424 285 q 425 285 424 285 l 547 285 q 549 285 549 285 q 549 286 549 285 l 549 408 q 549 410 549 410 q 547 410 549 410 l 425 410 m 147 271 l 147 271 q 146 271 146 271 q 146 269 146 271 l 146 147 q 146 146 146 146 q 147 146 146 146 l 269 146 q 271 146 271 146 q 271 147 271 146 l 271 269 q 271 271 271 271 q 269 271 271 271 l 147 271 m 425 271 l 425 271 q 424 271 424 271 q 424 269 424 271 l 424 147 q 424 146 424 146 q 425 146 424 146 l 547 146 q 549 146 549 146 q 549 147 549 146 l 549 269 q 549 271 549 271 q 547 271 549 271 l 425 271 m 147 132 l 147 132 q 146 132 146 132 q 146 131 146 132 l 146 8 q 146 7 146 7 q 147 7 146 7 l 269 7 q 271 7 271 7 q 271 8 271 7 l 271 131 q 271 132 271 132 q 269 132 271 132 l 147 132 m 425 132 l 425 132 q 424 132 424 132 q 424 131 424 132 l 424 8 q 424 7 424 7 q 425 7 424 7 l 547 7 q 549 7 549 7 q 549 8 549 7 l 549 131 q 549 132 549 132 q 547 132 549 132 l 425 132 z "},"I":{"ha":833,"x_min":146,"x_max":549,"o":"m 147 965 l 147 965 q 146 965 146 965 q 146 964 146 965 l 146 842 q 146 840 146 840 q 147 840 146 840 l 269 840 q 271 840 271 840 q 271 842 271 840 l 271 964 q 271 965 271 965 q 269 965 271 965 l 147 965 m 286 965 l 286 965 q 285 965 285 965 q 285 964 285 965 l 285 842 q 285 840 285 840 q 286 840 285 840 l 408 840 q 410 840 410 840 q 410 842 410 840 l 410 964 q 410 965 410 965 q 408 965 410 965 l 286 965 m 425 965 l 425 965 q 424 965 424 965 q 424 964 424 965 l 424 842 q 424 840 424 840 q 425 840 424 840 l 547 840 q 549 840 549 840 q 549 842 549 840 l 549 964 q 549 965 549 965 q 547 965 549 965 l 425 965 m 286 826 l 286 826 q 285 826 285 826 q 285 825 285 826 l 285 703 q 285 701 285 701 q 286 701 285 701 l 408 701 q 410 701 410 701 q 410 703 410 701 l 410 825 q 410 826 410 826 q 408 826 410 826 l 286 826 m 286 688 l 286 688 q 285 688 285 688 q 285 686 285 688 l 285 564 q 285 563 285 563 q 286 563 285 563 l 408 563 q 410 563 410 563 q 410 564 410 563 l 410 686 q 410 688 410 688 q 408 688 410 688 l 286 688 m 286 549 l 286 549 q 285 549 285 549 q 285 547 285 549 l 285 425 q 285 424 285 424 q 286 424 285 424 l 408 424 q 410 424 410 424 q 410 425 410 424 l 410 547 q 410 549 410 549 q 408 549 410 549 l 286 549 m 286 410 l 286 410 q 285 410 285 410 q 285 408 285 410 l 285 286 q 285 285 285 285 q 286 285 285 285 l 408 285 q 410 285 410 285 q 410 286 410 285 l 410 408 q 410 410 410 410 q 408 410 410 410 l 286 410 m 286 271 l 286 271 q 285 271 285 271 q 285 269 285 271 l 285 147 q 285 146 285 146 q 286 146 285 146 l 408 146 q 410 146 410 146 q 410 147 410 146 l 410 269 q 410 271 410 271 q 408 271 410 271 l 286 271 m 147 132 l 147 132 q 146 132 146 132 q 146 131 146 132 l 146 8 q 146 7 146 7 q 147 7 146 7 l 269 7 q 271 7 271 7 q 271 8 271 7 l 271 131 q 271 132 271 132 q 269 132 271 132 l 147 132 m 286 132 l 286 132 q 285 132 285 132 q 285 131 285 132 l 285 8 q 285 7 285 7 q 286 7 285 7 l 408 7 q 410 7 410 7 q 410 8 410 7 l 410 131 q 410 132 410 132 q 408 132 410 132 l 286 132 m 425 132 l 425 132 q 424 132 424 132 q 424 131 424 132 l 424 8 q 424 7 424 7 q 425 7 424 7 l 547 7 q 549 7 549 7 q 549 8 549 7 l 549 131 q 549 132 549 132 q 547 132 549 132 l 425 132 z "},"Í":{"ha":833,"x_min":146,"x_max":549,"o":"m 425 1104 l 425 1104 q 424 1104 424 1104 q 424 1103 424 1104 l 424 981 q 424 979 424 979 q 425 979 424 979 l 547 979 q 549 979 549 979 q 549 981 549 979 l 549 1103 q 549 1104 549 1104 q 547 1104 549 1104 l 425 1104 m 286 965 l 286 965 q 285 965 285 965 q 285 964 285 965 l 285 842 q 285 840 285 840 q 286 840 285 840 l 408 840 q 410 840 410 840 q 410 842 410 840 l 410 964 q 410 965 410 965 q 408 965 410 965 l 286 965 m 147 826 l 147 826 q 146 826 146 826 q 146 825 146 826 l 146 703 q 146 701 146 701 q 147 701 146 701 l 269 701 q 271 701 271 701 q 271 703 271 701 l 271 825 q 271 826 271 826 q 269 826 271 826 l 147 826 m 286 826 l 286 826 q 285 826 285 826 q 285 825 285 826 l 285 703 q 285 701 285 701 q 286 701 285 701 l 408 701 q 410 701 410 701 q 410 703 410 701 l 410 825 q 410 826 410 826 q 408 826 410 826 l 286 826 m 425 826 l 425 826 q 424 826 424 826 q 424 825 424 826 l 424 703 q 424 701 424 701 q 425 701 424 701 l 547 701 q 549 701 549 701 q 549 703 549 701 l 549 825 q 549 826 549 826 q 547 826 549 826 l 425 826 m 286 688 l 286 688 q 285 688 285 688 q 285 686 285 688 l 285 564 q 285 563 285 563 q 286 563 285 563 l 408 563 q 410 563 410 563 q 410 564 410 563 l 410 686 q 410 688 410 688 q 408 688 410 688 l 286 688 m 286 549 l 286 549 q 285 549 285 549 q 285 547 285 549 l 285 425 q 285 424 285 424 q 286 424 285 424 l 408 424 q 410 424 410 424 q 410 425 410 424 l 410 547 q 410 549 410 549 q 408 549 410 549 l 286 549 m 286 410 l 286 410 q 285 410 285 410 q 285 408 285 410 l 285 286 q 285 285 285 285 q 286 285 285 285 l 408 285 q 410 285 410 285 q 410 286 410 285 l 410 408 q 410 410 410 410 q 408 410 410 410 l 286 410 m 286 271 l 286 271 q 285 271 285 271 q 285 269 285 271 l 285 147 q 285 146 285 146 q 286 146 285 146 l 408 146 q 410 146 410 146 q 410 147 410 146 l 410 269 q 410 271 410 271 q 408 271 410 271 l 286 271 m 147 132 l 147 132 q 146 132 146 132 q 146 131 146 132 l 146 8 q 146 7 146 7 q 147 7 146 7 l 269 7 q 271 7 271 7 q 271 8 271 7 l 271 131 q 271 132 271 132 q 269 132 271 132 l 147 132 m 286 132 l 286 132 q 285 132 285 132 q 285 131 285 132 l 285 8 q 285 7 285 7 q 286 7 285 7 l 408 7 q 410 7 410 7 q 410 8 410 7 l 410 131 q 410 132 410 132 q 408 132 410 132 l 286 132 m 425 132 l 425 132 q 424 132 424 132 q 424 131 424 132 l 424 8 q 424 7 424 7 q 425 7 424 7 l 547 7 q 549 7 549 7 q 549 8 549 7 l 549 131 q 549 132 549 132 q 547 132 549 132 l 425 132 z "},"Î":{"ha":833,"x_min":146,"x_max":549,"o":"m 286 1104 l 286 1104 q 285 1104 285 1104 q 285 1103 285 1104 l 285 981 q 285 979 285 979 q 286 979 285 979 l 408 979 q 410 979 410 979 q 410 981 410 979 l 410 1103 q 410 1104 410 1104 q 408 1104 410 1104 l 286 1104 m 147 965 l 147 965 q 146 965 146 965 q 146 964 146 965 l 146 842 q 146 840 146 840 q 147 840 146 840 l 269 840 q 271 840 271 840 q 271 842 271 840 l 271 964 q 271 965 271 965 q 269 965 271 965 l 147 965 m 425 965 l 425 965 q 424 965 424 965 q 424 964 424 965 l 424 842 q 424 840 424 840 q 425 840 424 840 l 547 840 q 549 840 549 840 q 549 842 549 840 l 549 964 q 549 965 549 965 q 547 965 549 965 l 425 965 m 147 826 l 147 826 q 146 826 146 826 q 146 825 146 826 l 146 703 q 146 701 146 701 q 147 701 146 701 l 269 701 q 271 701 271 701 q 271 703 271 701 l 271 825 q 271 826 271 826 q 269 826 271 826 l 147 826 m 286 826 l 286 826 q 285 826 285 826 q 285 825 285 826 l 285 703 q 285 701 285 701 q 286 701 285 701 l 408 701 q 410 701 410 701 q 410 703 410 701 l 410 825 q 410 826 410 826 q 408 826 410 826 l 286 826 m 425 826 l 425 826 q 424 826 424 826 q 424 825 424 826 l 424 703 q 424 701 424 701 q 425 701 424 701 l 547 701 q 549 701 549 701 q 549 703 549 701 l 549 825 q 549 826 549 826 q 547 826 549 826 l 425 826 m 286 688 l 286 688 q 285 688 285 688 q 285 686 285 688 l 285 564 q 285 563 285 563 q 286 563 285 563 l 408 563 q 410 563 410 563 q 410 564 410 563 l 410 686 q 410 688 410 688 q 408 688 410 688 l 286 688 m 286 549 l 286 549 q 285 549 285 549 q 285 547 285 549 l 285 425 q 285 424 285 424 q 286 424 285 424 l 408 424 q 410 424 410 424 q 410 425 410 424 l 410 547 q 410 549 410 549 q 408 549 410 549 l 286 549 m 286 410 l 286 410 q 285 410 285 410 q 285 408 285 410 l 285 286 q 285 285 285 285 q 286 285 285 285 l 408 285 q 410 285 410 285 q 410 286 410 285 l 410 408 q 410 410 410 410 q 408 410 410 410 l 286 410 m 286 271 l 286 271 q 285 271 285 271 q 285 269 285 271 l 285 147 q 285 146 285 146 q 286 146 285 146 l 408 146 q 410 146 410 146 q 410 147 410 146 l 410 269 q 410 271 410 271 q 408 271 410 271 l 286 271 m 147 132 l 147 132 q 146 132 146 132 q 146 131 146 132 l 146 8 q 146 7 146 7 q 147 7 146 7 l 269 7 q 271 7 271 7 q 271 8 271 7 l 271 131 q 271 132 271 132 q 269 132 271 132 l 147 132 m 286 132 l 286 132 q 285 132 285 132 q 285 131 285 132 l 285 8 q 285 7 285 7 q 286 7 285 7 l 408 7 q 410 7 410 7 q 410 8 410 7 l 410 131 q 410 132 410 132 q 408 132 410 132 l 286 132 m 425 132 l 425 132 q 424 132 424 132 q 424 131 424 132 l 424 8 q 424 7 424 7 q 425 7 424 7 l 547 7 q 549 7 549 7 q 549 8 549 7 l 549 131 q 549 132 549 132 q 547 132 549 132 l 425 132 z "},"Ï":{"ha":833,"x_min":146,"x_max":549,"o":"m 147 1104 l 147 1104 q 146 1104 146 1104 q 146 1103 146 1104 l 146 981 q 146 979 146 979 q 147 979 146 979 l 269 979 q 271 979 271 979 q 271 981 271 979 l 271 1103 q 271 1104 271 1104 q 269 1104 271 1104 l 147 1104 m 425 1104 l 425 1104 q 424 1104 424 1104 q 424 1103 424 1104 l 424 981 q 424 979 424 979 q 425 979 424 979 l 547 979 q 549 979 549 979 q 549 981 549 979 l 549 1103 q 549 1104 549 1104 q 547 1104 549 1104 l 425 1104 m 147 826 l 147 826 q 146 826 146 826 q 146 825 146 826 l 146 703 q 146 701 146 701 q 147 701 146 701 l 269 701 q 271 701 271 701 q 271 703 271 701 l 271 825 q 271 826 271 826 q 269 826 271 826 l 147 826 m 286 826 l 286 826 q 285 826 285 826 q 285 825 285 826 l 285 703 q 285 701 285 701 q 286 701 285 701 l 408 701 q 410 701 410 701 q 410 703 410 701 l 410 825 q 410 826 410 826 q 408 826 410 826 l 286 826 m 425 826 l 425 826 q 424 826 424 826 q 424 825 424 826 l 424 703 q 424 701 424 701 q 425 701 424 701 l 547 701 q 549 701 549 701 q 549 703 549 701 l 549 825 q 549 826 549 826 q 547 826 549 826 l 425 826 m 286 688 l 286 688 q 285 688 285 688 q 285 686 285 688 l 285 564 q 285 563 285 563 q 286 563 285 563 l 408 563 q 410 563 410 563 q 410 564 410 563 l 410 686 q 410 688 410 688 q 408 688 410 688 l 286 688 m 286 549 l 286 549 q 285 549 285 549 q 285 547 285 549 l 285 425 q 285 424 285 424 q 286 424 285 424 l 408 424 q 410 424 410 424 q 410 425 410 424 l 410 547 q 410 549 410 549 q 408 549 410 549 l 286 549 m 286 410 l 286 410 q 285 410 285 410 q 285 408 285 410 l 285 286 q 285 285 285 285 q 286 285 285 285 l 408 285 q 410 285 410 285 q 410 286 410 285 l 410 408 q 410 410 410 410 q 408 410 410 410 l 286 410 m 286 271 l 286 271 q 285 271 285 271 q 285 269 285 271 l 285 147 q 285 146 285 146 q 286 146 285 146 l 408 146 q 410 146 410 146 q 410 147 410 146 l 410 269 q 410 271 410 271 q 408 271 410 271 l 286 271 m 147 132 l 147 132 q 146 132 146 132 q 146 131 146 132 l 146 8 q 146 7 146 7 q 147 7 146 7 l 269 7 q 271 7 271 7 q 271 8 271 7 l 271 131 q 271 132 271 132 q 269 132 271 132 l 147 132 m 286 132 l 286 132 q 285 132 285 132 q 285 131 285 132 l 285 8 q 285 7 285 7 q 286 7 285 7 l 408 7 q 410 7 410 7 q 410 8 410 7 l 410 131 q 410 132 410 132 q 408 132 410 132 l 286 132 m 425 132 l 425 132 q 424 132 424 132 q 424 131 424 132 l 424 8 q 424 7 424 7 q 425 7 424 7 l 547 7 q 549 7 549 7 q 549 8 549 7 l 549 131 q 549 132 549 132 q 547 132 549 132 l 425 132 z "},"İ":{"ha":833,"x_min":146,"x_max":549,"o":"m 286 1104 l 286 1104 q 285 1104 285 1104 q 285 1103 285 1104 l 285 981 q 285 979 285 979 q 286 979 285 979 l 408 979 q 410 979 410 979 q 410 981 410 979 l 410 1103 q 410 1104 410 1104 q 408 1104 410 1104 l 286 1104 m 147 826 l 147 826 q 146 826 146 826 q 146 825 146 826 l 146 703 q 146 701 146 701 q 147 701 146 701 l 269 701 q 271 701 271 701 q 271 703 271 701 l 271 825 q 271 826 271 826 q 269 826 271 826 l 147 826 m 286 826 l 286 826 q 285 826 285 826 q 285 825 285 826 l 285 703 q 285 701 285 701 q 286 701 285 701 l 408 701 q 410 701 410 701 q 410 703 410 701 l 410 825 q 410 826 410 826 q 408 826 410 826 l 286 826 m 425 826 l 425 826 q 424 826 424 826 q 424 825 424 826 l 424 703 q 424 701 424 701 q 425 701 424 701 l 547 701 q 549 701 549 701 q 549 703 549 701 l 549 825 q 549 826 549 826 q 547 826 549 826 l 425 826 m 286 688 l 286 688 q 285 688 285 688 q 285 686 285 688 l 285 564 q 285 563 285 563 q 286 563 285 563 l 408 563 q 410 563 410 563 q 410 564 410 563 l 410 686 q 410 688 410 688 q 408 688 410 688 l 286 688 m 286 549 l 286 549 q 285 549 285 549 q 285 547 285 549 l 285 425 q 285 424 285 424 q 286 424 285 424 l 408 424 q 410 424 410 424 q 410 425 410 424 l 410 547 q 410 549 410 549 q 408 549 410 549 l 286 549 m 286 410 l 286 410 q 285 410 285 410 q 285 408 285 410 l 285 286 q 285 285 285 285 q 286 285 285 285 l 408 285 q 410 285 410 285 q 410 286 410 285 l 410 408 q 410 410 410 410 q 408 410 410 410 l 286 410 m 286 271 l 286 271 q 285 271 285 271 q 285 269 285 271 l 285 147 q 285 146 285 146 q 286 146 285 146 l 408 146 q 410 146 410 146 q 410 147 410 146 l 410 269 q 410 271 410 271 q 408 271 410 271 l 286 271 m 147 132 l 147 132 q 146 132 146 132 q 146 131 146 132 l 146 8 q 146 7 146 7 q 147 7 146 7 l 269 7 q 271 7 271 7 q 271 8 271 7 l 271 131 q 271 132 271 132 q 269 132 271 132 l 147 132 m 286 132 l 286 132 q 285 132 285 132 q 285 131 285 132 l 285 8 q 285 7 285 7 q 286 7 285 7 l 408 7 q 410 7 410 7 q 410 8 410 7 l 410 131 q 410 132 410 132 q 408 132 410 132 l 286 132 m 425 132 l 425 132 q 424 132 424 132 q 424 131 424 132 l 424 8 q 424 7 424 7 q 425 7 424 7 l 547 7 q 549 7 549 7 q 549 8 549 7 l 549 131 q 549 132 549 132 q 547 132 549 132 l 425 132 z "},"Ì":{"ha":833,"x_min":146,"x_max":549,"o":"m 147 1104 l 147 1104 q 146 1104 146 1104 q 146 1103 146 1104 l 146 981 q 146 979 146 979 q 147 979 146 979 l 269 979 q 271 979 271 979 q 271 981 271 979 l 271 1103 q 271 1104 271 1104 q 269 1104 271 1104 l 147 1104 m 286 965 l 286 965 q 285 965 285 965 q 285 964 285 965 l 285 842 q 285 840 285 840 q 286 840 285 840 l 408 840 q 410 840 410 840 q 410 842 410 840 l 410 964 q 410 965 410 965 q 408 965 410 965 l 286 965 m 147 826 l 147 826 q 146 826 146 826 q 146 825 146 826 l 146 703 q 146 701 146 701 q 147 701 146 701 l 269 701 q 271 701 271 701 q 271 703 271 701 l 271 825 q 271 826 271 826 q 269 826 271 826 l 147 826 m 286 826 l 286 826 q 285 826 285 826 q 285 825 285 826 l 285 703 q 285 701 285 701 q 286 701 285 701 l 408 701 q 410 701 410 701 q 410 703 410 701 l 410 825 q 410 826 410 826 q 408 826 410 826 l 286 826 m 425 826 l 425 826 q 424 826 424 826 q 424 825 424 826 l 424 703 q 424 701 424 701 q 425 701 424 701 l 547 701 q 549 701 549 701 q 549 703 549 701 l 549 825 q 549 826 549 826 q 547 826 549 826 l 425 826 m 286 688 l 286 688 q 285 688 285 688 q 285 686 285 688 l 285 564 q 285 563 285 563 q 286 563 285 563 l 408 563 q 410 563 410 563 q 410 564 410 563 l 410 686 q 410 688 410 688 q 408 688 410 688 l 286 688 m 286 549 l 286 549 q 285 549 285 549 q 285 547 285 549 l 285 425 q 285 424 285 424 q 286 424 285 424 l 408 424 q 410 424 410 424 q 410 425 410 424 l 410 547 q 410 549 410 549 q 408 549 410 549 l 286 549 m 286 410 l 286 410 q 285 410 285 410 q 285 408 285 410 l 285 286 q 285 285 285 285 q 286 285 285 285 l 408 285 q 410 285 410 285 q 410 286 410 285 l 410 408 q 410 410 410 410 q 408 410 410 410 l 286 410 m 286 271 l 286 271 q 285 271 285 271 q 285 269 285 271 l 285 147 q 285 146 285 146 q 286 146 285 146 l 408 146 q 410 146 410 146 q 410 147 410 146 l 410 269 q 410 271 410 271 q 408 271 410 271 l 286 271 m 147 132 l 147 132 q 146 132 146 132 q 146 131 146 132 l 146 8 q 146 7 146 7 q 147 7 146 7 l 269 7 q 271 7 271 7 q 271 8 271 7 l 271 131 q 271 132 271 132 q 269 132 271 132 l 147 132 m 286 132 l 286 132 q 285 132 285 132 q 285 131 285 132 l 285 8 q 285 7 285 7 q 286 7 285 7 l 408 7 q 410 7 410 7 q 410 8 410 7 l 410 131 q 410 132 410 132 q 408 132 410 132 l 286 132 m 425 132 l 425 132 q 424 132 424 132 q 424 131 424 132 l 424 8 q 424 7 424 7 q 425 7 424 7 l 547 7 q 549 7 549 7 q 549 8 549 7 l 549 131 q 549 132 549 132 q 547 132 549 132 l 425 132 z "},"Ī":{"ha":833,"x_min":146,"x_max":549,"o":"m 147 1104 l 147 1104 q 146 1104 146 1104 q 146 1103 146 1104 l 146 981 q 146 979 146 979 q 147 979 146 979 l 269 979 q 271 979 271 979 q 271 981 271 979 l 271 1103 q 271 1104 271 1104 q 269 1104 271 1104 l 147 1104 m 286 1104 l 286 1104 q 285 1104 285 1104 q 285 1103 285 1104 l 285 981 q 285 979 285 979 q 286 979 285 979 l 408 979 q 410 979 410 979 q 410 981 410 979 l 410 1103 q 410 1104 410 1104 q 408 1104 410 1104 l 286 1104 m 425 1104 l 425 1104 q 424 1104 424 1104 q 424 1103 424 1104 l 424 981 q 424 979 424 979 q 425 979 424 979 l 547 979 q 549 979 549 979 q 549 981 549 979 l 549 1103 q 549 1104 549 1104 q 547 1104 549 1104 l 425 1104 m 147 826 l 147 826 q 146 826 146 826 q 146 825 146 826 l 146 703 q 146 701 146 701 q 147 701 146 701 l 269 701 q 271 701 271 701 q 271 703 271 701 l 271 825 q 271 826 271 826 q 269 826 271 826 l 147 826 m 286 826 l 286 826 q 285 826 285 826 q 285 825 285 826 l 285 703 q 285 701 285 701 q 286 701 285 701 l 408 701 q 410 701 410 701 q 410 703 410 701 l 410 825 q 410 826 410 826 q 408 826 410 826 l 286 826 m 425 826 l 425 826 q 424 826 424 826 q 424 825 424 826 l 424 703 q 424 701 424 701 q 425 701 424 701 l 547 701 q 549 701 549 701 q 549 703 549 701 l 549 825 q 549 826 549 826 q 547 826 549 826 l 425 826 m 286 688 l 286 688 q 285 688 285 688 q 285 686 285 688 l 285 564 q 285 563 285 563 q 286 563 285 563 l 408 563 q 410 563 410 563 q 410 564 410 563 l 410 686 q 410 688 410 688 q 408 688 410 688 l 286 688 m 286 549 l 286 549 q 285 549 285 549 q 285 547 285 549 l 285 425 q 285 424 285 424 q 286 424 285 424 l 408 424 q 410 424 410 424 q 410 425 410 424 l 410 547 q 410 549 410 549 q 408 549 410 549 l 286 549 m 286 410 l 286 410 q 285 410 285 410 q 285 408 285 410 l 285 286 q 285 285 285 285 q 286 285 285 285 l 408 285 q 410 285 410 285 q 410 286 410 285 l 410 408 q 410 410 410 410 q 408 410 410 410 l 286 410 m 286 271 l 286 271 q 285 271 285 271 q 285 269 285 271 l 285 147 q 285 146 285 146 q 286 146 285 146 l 408 146 q 410 146 410 146 q 410 147 410 146 l 410 269 q 410 271 410 271 q 408 271 410 271 l 286 271 m 147 132 l 147 132 q 146 132 146 132 q 146 131 146 132 l 146 8 q 146 7 146 7 q 147 7 146 7 l 269 7 q 271 7 271 7 q 271 8 271 7 l 271 131 q 271 132 271 132 q 269 132 271 132 l 147 132 m 286 132 l 286 132 q 285 132 285 132 q 285 131 285 132 l 285 8 q 285 7 285 7 q 286 7 285 7 l 408 7 q 410 7 410 7 q 410 8 410 7 l 410 131 q 410 132 410 132 q 408 132 410 132 l 286 132 m 425 132 l 425 132 q 424 132 424 132 q 424 131 424 132 l 424 8 q 424 7 424 7 q 425 7 424 7 l 547 7 q 549 7 549 7 q 549 8 549 7 l 549 131 q 549 132 549 132 q 547 132 549 132 l 425 132 z "},"Į":{"ha":833,"x_min":146,"x_max":549,"o":"m 147 965 l 147 965 q 146 965 146 965 q 146 964 146 965 l 146 842 q 146 840 146 840 q 147 840 146 840 l 269 840 q 271 840 271 840 q 271 842 271 840 l 271 964 q 271 965 271 965 q 269 965 271 965 l 147 965 m 286 965 l 286 965 q 285 965 285 965 q 285 964 285 965 l 285 842 q 285 840 285 840 q 286 840 285 840 l 408 840 q 410 840 410 840 q 410 842 410 840 l 410 964 q 410 965 410 965 q 408 965 410 965 l 286 965 m 425 965 l 425 965 q 424 965 424 965 q 424 964 424 965 l 424 842 q 424 840 424 840 q 425 840 424 840 l 547 840 q 549 840 549 840 q 549 842 549 840 l 549 964 q 549 965 549 965 q 547 965 549 965 l 425 965 m 286 826 l 286 826 q 285 826 285 826 q 285 825 285 826 l 285 703 q 285 701 285 701 q 286 701 285 701 l 408 701 q 410 701 410 701 q 410 703 410 701 l 410 825 q 410 826 410 826 q 408 826 410 826 l 286 826 m 286 688 l 286 688 q 285 688 285 688 q 285 686 285 688 l 285 564 q 285 563 285 563 q 286 563 285 563 l 408 563 q 410 563 410 563 q 410 564 410 563 l 410 686 q 410 688 410 688 q 408 688 410 688 l 286 688 m 286 549 l 286 549 q 285 549 285 549 q 285 547 285 549 l 285 425 q 285 424 285 424 q 286 424 285 424 l 408 424 q 410 424 410 424 q 410 425 410 424 l 410 547 q 410 549 410 549 q 408 549 410 549 l 286 549 m 286 410 l 286 410 q 285 410 285 410 q 285 408 285 410 l 285 286 q 285 285 285 285 q 286 285 285 285 l 408 285 q 410 285 410 285 q 410 286 410 285 l 410 408 q 410 410 410 410 q 408 410 410 410 l 286 410 m 286 271 l 286 271 q 285 271 285 271 q 285 269 285 271 l 285 147 q 285 146 285 146 q 286 146 285 146 l 408 146 q 410 146 410 146 q 410 147 410 146 l 410 269 q 410 271 410 271 q 408 271 410 271 l 286 271 m 147 132 l 147 132 q 146 132 146 132 q 146 131 146 132 l 146 8 q 146 7 146 7 q 147 7 146 7 l 269 7 q 271 7 271 7 q 271 8 271 7 l 271 131 q 271 132 271 132 q 269 132 271 132 l 147 132 m 286 132 l 286 132 q 285 132 285 132 q 285 131 285 132 l 285 8 q 285 7 285 7 q 286 7 285 7 l 408 7 q 410 7 410 7 q 410 8 410 7 l 410 131 q 410 132 410 132 q 408 132 410 132 l 286 132 m 425 132 l 425 132 q 424 132 424 132 q 424 131 424 132 l 424 8 q 424 7 424 7 q 425 7 424 7 l 547 7 q 549 7 549 7 q 549 8 549 7 l 549 131 q 549 132 549 132 q 547 132 549 132 l 425 132 m 286 -7 l 286 -7 q 285 -7 285 -7 q 285 -8 285 -7 l 285 -131 q 285 -132 285 -132 q 286 -132 285 -132 l 408 -132 q 410 -132 410 -132 q 410 -131 410 -132 l 410 -8 q 410 -7 410 -7 q 408 -7 410 -7 l 286 -7 m 286 -146 l 286 -146 q 285 -146 285 -146 q 285 -147 285 -146 l 285 -269 q 285 -271 285 -271 q 286 -271 285 -271 l 408 -271 q 410 -271 410 -271 q 410 -269 410 -271 l 410 -147 q 410 -146 410 -146 q 408 -146 410 -146 l 286 -146 m 425 -146 l 425 -146 q 424 -146 424 -146 q 424 -147 424 -146 l 424 -269 q 424 -271 424 -271 q 425 -271 424 -271 l 547 -271 q 549 -271 549 -271 q 549 -269 549 -271 l 549 -147 q 549 -146 549 -146 q 547 -146 549 -146 l 425 -146 z "},"J":{"ha":833,"x_min":7,"x_max":688,"o":"m 286 965 l 286 965 q 285 965 285 965 q 285 964 285 965 l 285 842 q 285 840 285 840 q 286 840 285 840 l 408 840 q 410 840 410 840 q 410 842 410 840 l 410 964 q 410 965 410 965 q 408 965 410 965 l 286 965 m 425 965 l 425 965 q 424 965 424 965 q 424 964 424 965 l 424 842 q 424 840 424 840 q 425 840 424 840 l 547 840 q 549 840 549 840 q 549 842 549 840 l 549 964 q 549 965 549 965 q 547 965 549 965 l 425 965 m 564 965 l 564 965 q 563 965 563 965 q 563 964 563 965 l 563 842 q 563 840 563 840 q 564 840 563 840 l 686 840 q 688 840 688 840 q 688 842 688 840 l 688 964 q 688 965 688 965 q 686 965 688 965 l 564 965 m 425 826 l 425 826 q 424 826 424 826 q 424 825 424 826 l 424 703 q 424 701 424 701 q 425 701 424 701 l 547 701 q 549 701 549 701 q 549 703 549 701 l 549 825 q 549 826 549 826 q 547 826 549 826 l 425 826 m 425 688 l 425 688 q 424 688 424 688 q 424 686 424 688 l 424 564 q 424 563 424 563 q 425 563 424 563 l 547 563 q 549 563 549 563 q 549 564 549 563 l 549 686 q 549 688 549 688 q 547 688 549 688 l 425 688 m 425 549 l 425 549 q 424 549 424 549 q 424 547 424 549 l 424 425 q 424 424 424 424 q 425 424 424 424 l 547 424 q 549 424 549 424 q 549 425 549 424 l 549 547 q 549 549 549 549 q 547 549 549 549 l 425 549 m 425 410 l 425 410 q 424 410 424 410 q 424 408 424 410 l 424 286 q 424 285 424 285 q 425 285 424 285 l 547 285 q 549 285 549 285 q 549 286 549 285 l 549 408 q 549 410 549 410 q 547 410 549 410 l 425 410 m 8 271 l 8 271 q 7 271 7 271 q 7 269 7 271 l 7 147 q 7 146 7 146 q 8 146 7 146 l 131 146 q 132 146 132 146 q 132 147 132 146 l 132 269 q 132 271 132 271 q 131 271 132 271 l 8 271 m 425 271 l 425 271 q 424 271 424 271 q 424 269 424 271 l 424 147 q 424 146 424 146 q 425 146 424 146 l 547 146 q 549 146 549 146 q 549 147 549 146 l 549 269 q 549 271 549 271 q 547 271 549 271 l 425 271 m 147 132 l 147 132 q 146 132 146 132 q 146 131 146 132 l 146 8 q 146 7 146 7 q 147 7 146 7 l 269 7 q 271 7 271 7 q 271 8 271 7 l 271 131 q 271 132 271 132 q 269 132 271 132 l 147 132 m 286 132 l 286 132 q 285 132 285 132 q 285 131 285 132 l 285 8 q 285 7 285 7 q 286 7 285 7 l 408 7 q 410 7 410 7 q 410 8 410 7 l 410 131 q 410 132 410 132 q 408 132 410 132 l 286 132 z "},"K":{"ha":833,"x_min":7,"x_max":688,"o":"m 8 965 l 8 965 q 7 965 7 965 q 7 964 7 965 l 7 842 q 7 840 7 840 q 8 840 7 840 l 131 840 q 132 840 132 840 q 132 842 132 840 l 132 964 q 132 965 132 965 q 131 965 132 965 l 8 965 m 564 965 l 564 965 q 563 965 563 965 q 563 964 563 965 l 563 842 q 563 840 563 840 q 564 840 563 840 l 686 840 q 688 840 688 840 q 688 842 688 840 l 688 964 q 688 965 688 965 q 686 965 688 965 l 564 965 m 8 826 l 8 826 q 7 826 7 826 q 7 825 7 826 l 7 703 q 7 701 7 701 q 8 701 7 701 l 131 701 q 132 701 132 701 q 132 703 132 701 l 132 825 q 132 826 132 826 q 131 826 132 826 l 8 826 m 425 826 l 425 826 q 424 826 424 826 q 424 825 424 826 l 424 703 q 424 701 424 701 q 425 701 424 701 l 547 701 q 549 701 549 701 q 549 703 549 701 l 549 825 q 549 826 549 826 q 547 826 549 826 l 425 826 m 8 688 l 8 688 q 7 688 7 688 q 7 686 7 688 l 7 564 q 7 563 7 563 q 8 563 7 563 l 131 563 q 132 563 132 563 q 132 564 132 563 l 132 686 q 132 688 132 688 q 131 688 132 688 l 8 688 m 286 688 l 286 688 q 285 688 285 688 q 285 686 285 688 l 285 564 q 285 563 285 563 q 286 563 285 563 l 408 563 q 410 563 410 563 q 410 564 410 563 l 410 686 q 410 688 410 688 q 408 688 410 688 l 286 688 m 8 549 l 8 549 q 7 549 7 549 q 7 547 7 549 l 7 425 q 7 424 7 424 q 8 424 7 424 l 131 424 q 132 424 132 424 q 132 425 132 424 l 132 547 q 132 549 132 549 q 131 549 132 549 l 8 549 m 147 549 l 147 549 q 146 549 146 549 q 146 547 146 549 l 146 425 q 146 424 146 424 q 147 424 146 424 l 269 424 q 271 424 271 424 q 271 425 271 424 l 271 547 q 271 549 271 549 q 269 549 271 549 l 147 549 m 8 410 l 8 410 q 7 410 7 410 q 7 408 7 410 l 7 286 q 7 285 7 285 q 8 285 7 285 l 131 285 q 132 285 132 285 q 132 286 132 285 l 132 408 q 132 410 132 410 q 131 410 132 410 l 8 410 m 286 410 l 286 410 q 285 410 285 410 q 285 408 285 410 l 285 286 q 285 285 285 285 q 286 285 285 285 l 408 285 q 410 285 410 285 q 410 286 410 285 l 410 408 q 410 410 410 410 q 408 410 410 410 l 286 410 m 8 271 l 8 271 q 7 271 7 271 q 7 269 7 271 l 7 147 q 7 146 7 146 q 8 146 7 146 l 131 146 q 132 146 132 146 q 132 147 132 146 l 132 269 q 132 271 132 271 q 131 271 132 271 l 8 271 m 425 271 l 425 271 q 424 271 424 271 q 424 269 424 271 l 424 147 q 424 146 424 146 q 425 146 424 146 l 547 146 q 549 146 549 146 q 549 147 549 146 l 549 269 q 549 271 549 271 q 547 271 549 271 l 425 271 m 8 132 l 8 132 q 7 132 7 132 q 7 131 7 132 l 7 8 q 7 7 7 7 q 8 7 7 7 l 131 7 q 132 7 132 7 q 132 8 132 7 l 132 131 q 132 132 132 132 q 131 132 132 132 l 8 132 m 564 132 l 564 132 q 563 132 563 132 q 563 131 563 132 l 563 8 q 563 7 563 7 q 564 7 563 7 l 686 7 q 688 7 688 7 q 688 8 688 7 l 688 131 q 688 132 688 132 q 686 132 688 132 l 564 132 z "},"L":{"ha":833,"x_min":7,"x_max":688,"o":"m 8 965 l 8 965 q 7 965 7 965 q 7 964 7 965 l 7 842 q 7 840 7 840 q 8 840 7 840 l 131 840 q 132 840 132 840 q 132 842 132 840 l 132 964 q 132 965 132 965 q 131 965 132 965 l 8 965 m 8 826 l 8 826 q 7 826 7 826 q 7 825 7 826 l 7 703 q 7 701 7 701 q 8 701 7 701 l 131 701 q 132 701 132 701 q 132 703 132 701 l 132 825 q 132 826 132 826 q 131 826 132 826 l 8 826 m 8 688 l 8 688 q 7 688 7 688 q 7 686 7 688 l 7 564 q 7 563 7 563 q 8 563 7 563 l 131 563 q 132 563 132 563 q 132 564 132 563 l 132 686 q 132 688 132 688 q 131 688 132 688 l 8 688 m 8 549 l 8 549 q 7 549 7 549 q 7 547 7 549 l 7 425 q 7 424 7 424 q 8 424 7 424 l 131 424 q 132 424 132 424 q 132 425 132 424 l 132 547 q 132 549 132 549 q 131 549 132 549 l 8 549 m 8 410 l 8 410 q 7 410 7 410 q 7 408 7 410 l 7 286 q 7 285 7 285 q 8 285 7 285 l 131 285 q 132 285 132 285 q 132 286 132 285 l 132 408 q 132 410 132 410 q 131 410 132 410 l 8 410 m 8 271 l 8 271 q 7 271 7 271 q 7 269 7 271 l 7 147 q 7 146 7 146 q 8 146 7 146 l 131 146 q 132 146 132 146 q 132 147 132 146 l 132 269 q 132 271 132 271 q 131 271 132 271 l 8 271 m 8 132 l 8 132 q 7 132 7 132 q 7 131 7 132 l 7 8 q 7 7 7 7 q 8 7 7 7 l 131 7 q 132 7 132 7 q 132 8 132 7 l 132 131 q 132 132 132 132 q 131 132 132 132 l 8 132 m 147 132 l 147 132 q 146 132 146 132 q 146 131 146 132 l 146 8 q 146 7 146 7 q 147 7 146 7 l 269 7 q 271 7 271 7 q 271 8 271 7 l 271 131 q 271 132 271 132 q 269 132 271 132 l 147 132 m 286 132 l 286 132 q 285 132 285 132 q 285 131 285 132 l 285 8 q 285 7 285 7 q 286 7 285 7 l 408 7 q 410 7 410 7 q 410 8 410 7 l 410 131 q 410 132 410 132 q 408 132 410 132 l 286 132 m 425 132 l 425 132 q 424 132 424 132 q 424 131 424 132 l 424 8 q 424 7 424 7 q 425 7 424 7 l 547 7 q 549 7 549 7 q 549 8 549 7 l 549 131 q 549 132 549 132 q 547 132 549 132 l 425 132 m 564 132 l 564 132 q 563 132 563 132 q 563 131 563 132 l 563 8 q 563 7 563 7 q 564 7 563 7 l 686 7 q 688 7 688 7 q 688 8 688 7 l 688 131 q 688 132 688 132 q 686 132 688 132 l 564 132 z "},"Ĺ":{"ha":833,"x_min":7,"x_max":688,"o":"m 425 1104 l 425 1104 q 424 1104 424 1104 q 424 1103 424 1104 l 424 981 q 424 979 424 979 q 425 979 424 979 l 547 979 q 549 979 549 979 q 549 981 549 979 l 549 1103 q 549 1104 549 1104 q 547 1104 549 1104 l 425 1104 m 8 965 l 8 965 q 7 965 7 965 q 7 964 7 965 l 7 842 q 7 840 7 840 q 8 840 7 840 l 131 840 q 132 840 132 840 q 132 842 132 840 l 132 964 q 132 965 132 965 q 131 965 132 965 l 8 965 m 286 965 l 286 965 q 285 965 285 965 q 285 964 285 965 l 285 842 q 285 840 285 840 q 286 840 285 840 l 408 840 q 410 840 410 840 q 410 842 410 840 l 410 964 q 410 965 410 965 q 408 965 410 965 l 286 965 m 8 826 l 8 826 q 7 826 7 826 q 7 825 7 826 l 7 703 q 7 701 7 701 q 8 701 7 701 l 131 701 q 132 701 132 701 q 132 703 132 701 l 132 825 q 132 826 132 826 q 131 826 132 826 l 8 826 m 8 688 l 8 688 q 7 688 7 688 q 7 686 7 688 l 7 564 q 7 563 7 563 q 8 563 7 563 l 131 563 q 132 563 132 563 q 132 564 132 563 l 132 686 q 132 688 132 688 q 131 688 132 688 l 8 688 m 8 549 l 8 549 q 7 549 7 549 q 7 547 7 549 l 7 425 q 7 424 7 424 q 8 424 7 424 l 131 424 q 132 424 132 424 q 132 425 132 424 l 132 547 q 132 549 132 549 q 131 549 132 549 l 8 549 m 8 410 l 8 410 q 7 410 7 410 q 7 408 7 410 l 7 286 q 7 285 7 285 q 8 285 7 285 l 131 285 q 132 285 132 285 q 132 286 132 285 l 132 408 q 132 410 132 410 q 131 410 132 410 l 8 410 m 8 271 l 8 271 q 7 271 7 271 q 7 269 7 271 l 7 147 q 7 146 7 146 q 8 146 7 146 l 131 146 q 132 146 132 146 q 132 147 132 146 l 132 269 q 132 271 132 271 q 131 271 132 271 l 8 271 m 8 132 l 8 132 q 7 132 7 132 q 7 131 7 132 l 7 8 q 7 7 7 7 q 8 7 7 7 l 131 7 q 132 7 132 7 q 132 8 132 7 l 132 131 q 132 132 132 132 q 131 132 132 132 l 8 132 m 147 132 l 147 132 q 146 132 146 132 q 146 131 146 132 l 146 8 q 146 7 146 7 q 147 7 146 7 l 269 7 q 271 7 271 7 q 271 8 271 7 l 271 131 q 271 132 271 132 q 269 132 271 132 l 147 132 m 286 132 l 286 132 q 285 132 285 132 q 285 131 285 132 l 285 8 q 285 7 285 7 q 286 7 285 7 l 408 7 q 410 7 410 7 q 410 8 410 7 l 410 131 q 410 132 410 132 q 408 132 410 132 l 286 132 m 425 132 l 425 132 q 424 132 424 132 q 424 131 424 132 l 424 8 q 424 7 424 7 q 425 7 424 7 l 547 7 q 549 7 549 7 q 549 8 549 7 l 549 131 q 549 132 549 132 q 547 132 549 132 l 425 132 m 564 132 l 564 132 q 563 132 563 132 q 563 131 563 132 l 563 8 q 563 7 563 7 q 564 7 563 7 l 686 7 q 688 7 688 7 q 688 8 688 7 l 688 131 q 688 132 688 132 q 686 132 688 132 l 564 132 z "},"Ľ":{"ha":833,"x_min":7,"x_max":688,"o":"m 286 1104 l 286 1104 q 285 1104 285 1104 q 285 1103 285 1104 l 285 981 q 285 979 285 979 q 286 979 285 979 l 408 979 q 410 979 410 979 q 410 981 410 979 l 410 1103 q 410 1104 410 1104 q 408 1104 410 1104 l 286 1104 m 8 965 l 8 965 q 7 965 7 965 q 7 964 7 965 l 7 842 q 7 840 7 840 q 8 840 7 840 l 131 840 q 132 840 132 840 q 132 842 132 840 l 132 964 q 132 965 132 965 q 131 965 132 965 l 8 965 m 286 965 l 286 965 q 285 965 285 965 q 285 964 285 965 l 285 842 q 285 840 285 840 q 286 840 285 840 l 408 840 q 410 840 410 840 q 410 842 410 840 l 410 964 q 410 965 410 965 q 408 965 410 965 l 286 965 m 8 826 l 8 826 q 7 826 7 826 q 7 825 7 826 l 7 703 q 7 701 7 701 q 8 701 7 701 l 131 701 q 132 701 132 701 q 132 703 132 701 l 132 825 q 132 826 132 826 q 131 826 132 826 l 8 826 m 8 688 l 8 688 q 7 688 7 688 q 7 686 7 688 l 7 564 q 7 563 7 563 q 8 563 7 563 l 131 563 q 132 563 132 563 q 132 564 132 563 l 132 686 q 132 688 132 688 q 131 688 132 688 l 8 688 m 8 549 l 8 549 q 7 549 7 549 q 7 547 7 549 l 7 425 q 7 424 7 424 q 8 424 7 424 l 131 424 q 132 424 132 424 q 132 425 132 424 l 132 547 q 132 549 132 549 q 131 549 132 549 l 8 549 m 8 410 l 8 410 q 7 410 7 410 q 7 408 7 410 l 7 286 q 7 285 7 285 q 8 285 7 285 l 131 285 q 132 285 132 285 q 132 286 132 285 l 132 408 q 132 410 132 410 q 131 410 132 410 l 8 410 m 8 271 l 8 271 q 7 271 7 271 q 7 269 7 271 l 7 147 q 7 146 7 146 q 8 146 7 146 l 131 146 q 132 146 132 146 q 132 147 132 146 l 132 269 q 132 271 132 271 q 131 271 132 271 l 8 271 m 8 132 l 8 132 q 7 132 7 132 q 7 131 7 132 l 7 8 q 7 7 7 7 q 8 7 7 7 l 131 7 q 132 7 132 7 q 132 8 132 7 l 132 131 q 132 132 132 132 q 131 132 132 132 l 8 132 m 147 132 l 147 132 q 146 132 146 132 q 146 131 146 132 l 146 8 q 146 7 146 7 q 147 7 146 7 l 269 7 q 271 7 271 7 q 271 8 271 7 l 271 131 q 271 132 271 132 q 269 132 271 132 l 147 132 m 286 132 l 286 132 q 285 132 285 132 q 285 131 285 132 l 285 8 q 285 7 285 7 q 286 7 285 7 l 408 7 q 410 7 410 7 q 410 8 410 7 l 410 131 q 410 132 410 132 q 408 132 410 132 l 286 132 m 425 132 l 425 132 q 424 132 424 132 q 424 131 424 132 l 424 8 q 424 7 424 7 q 425 7 424 7 l 547 7 q 549 7 549 7 q 549 8 549 7 l 549 131 q 549 132 549 132 q 547 132 549 132 l 425 132 m 564 132 l 564 132 q 563 132 563 132 q 563 131 563 132 l 563 8 q 563 7 563 7 q 564 7 563 7 l 686 7 q 688 7 688 7 q 688 8 688 7 l 688 131 q 688 132 688 132 q 686 132 688 132 l 564 132 z "},"Ł":{"ha":833,"x_min":7,"x_max":688,"o":"m 147 965 l 147 965 q 146 965 146 965 q 146 964 146 965 l 146 842 q 146 840 146 840 q 147 840 146 840 l 269 840 q 271 840 271 840 q 271 842 271 840 l 271 964 q 271 965 271 965 q 269 965 271 965 l 147 965 m 147 826 l 147 826 q 146 826 146 826 q 146 825 146 826 l 146 703 q 146 701 146 701 q 147 701 146 701 l 269 701 q 271 701 271 701 q 271 703 271 701 l 271 825 q 271 826 271 826 q 269 826 271 826 l 147 826 m 147 688 l 147 688 q 146 688 146 688 q 146 686 146 688 l 146 564 q 146 563 146 563 q 147 563 146 563 l 269 563 q 271 563 271 563 q 271 564 271 563 l 271 686 q 271 688 271 688 q 269 688 271 688 l 147 688 m 286 688 l 286 688 q 285 688 285 688 q 285 686 285 688 l 285 564 q 285 563 285 563 q 286 563 285 563 l 408 563 q 410 563 410 563 q 410 564 410 563 l 410 686 q 410 688 410 688 q 408 688 410 688 l 286 688 m 8 549 l 8 549 q 7 549 7 549 q 7 547 7 549 l 7 425 q 7 424 7 424 q 8 424 7 424 l 131 424 q 132 424 132 424 q 132 425 132 424 l 132 547 q 132 549 132 549 q 131 549 132 549 l 8 549 m 147 549 l 147 549 q 146 549 146 549 q 146 547 146 549 l 146 425 q 146 424 146 424 q 147 424 146 424 l 269 424 q 271 424 271 424 q 271 425 271 424 l 271 547 q 271 549 271 549 q 269 549 271 549 l 147 549 m 147 410 l 147 410 q 146 410 146 410 q 146 408 146 410 l 146 286 q 146 285 146 285 q 147 285 146 285 l 269 285 q 271 285 271 285 q 271 286 271 285 l 271 408 q 271 410 271 410 q 269 410 271 410 l 147 410 m 147 271 l 147 271 q 146 271 146 271 q 146 269 146 271 l 146 147 q 146 146 146 146 q 147 146 146 146 l 269 146 q 271 146 271 146 q 271 147 271 146 l 271 269 q 271 271 271 271 q 269 271 271 271 l 147 271 m 147 132 l 147 132 q 146 132 146 132 q 146 131 146 132 l 146 8 q 146 7 146 7 q 147 7 146 7 l 269 7 q 271 7 271 7 q 271 8 271 7 l 271 131 q 271 132 271 132 q 269 132 271 132 l 147 132 m 286 132 l 286 132 q 285 132 285 132 q 285 131 285 132 l 285 8 q 285 7 285 7 q 286 7 285 7 l 408 7 q 410 7 410 7 q 410 8 410 7 l 410 131 q 410 132 410 132 q 408 132 410 132 l 286 132 m 425 132 l 425 132 q 424 132 424 132 q 424 131 424 132 l 424 8 q 424 7 424 7 q 425 7 424 7 l 547 7 q 549 7 549 7 q 549 8 549 7 l 549 131 q 549 132 549 132 q 547 132 549 132 l 425 132 m 564 132 l 564 132 q 563 132 563 132 q 563 131 563 132 l 563 8 q 563 7 563 7 q 564 7 563 7 l 686 7 q 688 7 688 7 q 688 8 688 7 l 688 131 q 688 132 688 132 q 686 132 688 132 l 564 132 z "},"M":{"ha":833,"x_min":7,"x_max":688,"o":"m 8 965 l 8 965 q 7 965 7 965 q 7 964 7 965 l 7 842 q 7 840 7 840 q 8 840 7 840 l 131 840 q 132 840 132 840 q 132 842 132 840 l 132 964 q 132 965 132 965 q 131 965 132 965 l 8 965 m 564 965 l 564 965 q 563 965 563 965 q 563 964 563 965 l 563 842 q 563 840 563 840 q 564 840 563 840 l 686 840 q 688 840 688 840 q 688 842 688 840 l 688 964 q 688 965 688 965 q 686 965 688 965 l 564 965 m 8 826 l 8 826 q 7 826 7 826 q 7 825 7 826 l 7 703 q 7 701 7 701 q 8 701 7 701 l 131 701 q 132 701 132 701 q 132 703 132 701 l 132 825 q 132 826 132 826 q 131 826 132 826 l 8 826 m 564 826 l 564 826 q 563 826 563 826 q 563 825 563 826 l 563 703 q 563 701 563 701 q 564 701 563 701 l 686 701 q 688 701 688 701 q 688 703 688 701 l 688 825 q 688 826 688 826 q 686 826 688 826 l 564 826 m 8 688 l 8 688 q 7 688 7 688 q 7 686 7 688 l 7 564 q 7 563 7 563 q 8 563 7 563 l 131 563 q 132 563 132 563 q 132 564 132 563 l 132 686 q 132 688 132 688 q 131 688 132 688 l 8 688 m 147 688 l 147 688 q 146 688 146 688 q 146 686 146 688 l 146 564 q 146 563 146 563 q 147 563 146 563 l 269 563 q 271 563 271 563 q 271 564 271 563 l 271 686 q 271 688 271 688 q 269 688 271 688 l 147 688 m 425 688 l 425 688 q 424 688 424 688 q 424 686 424 688 l 424 564 q 424 563 424 563 q 425 563 424 563 l 547 563 q 549 563 549 563 q 549 564 549 563 l 549 686 q 549 688 549 688 q 547 688 549 688 l 425 688 m 564 688 l 564 688 q 563 688 563 688 q 563 686 563 688 l 563 564 q 563 563 563 563 q 564 563 563 563 l 686 563 q 688 563 688 563 q 688 564 688 563 l 688 686 q 688 688 688 688 q 686 688 688 688 l 564 688 m 8 549 l 8 549 q 7 549 7 549 q 7 547 7 549 l 7 425 q 7 424 7 424 q 8 424 7 424 l 131 424 q 132 424 132 424 q 132 425 132 424 l 132 547 q 132 549 132 549 q 131 549 132 549 l 8 549 m 286 549 l 286 549 q 285 549 285 549 q 285 547 285 549 l 285 425 q 285 424 285 424 q 286 424 285 424 l 408 424 q 410 424 410 424 q 410 425 410 424 l 410 547 q 410 549 410 549 q 408 549 410 549 l 286 549 m 564 549 l 564 549 q 563 549 563 549 q 563 547 563 549 l 563 425 q 563 424 563 424 q 564 424 563 424 l 686 424 q 688 424 688 424 q 688 425 688 424 l 688 547 q 688 549 688 549 q 686 549 688 549 l 564 549 m 8 410 l 8 410 q 7 410 7 410 q 7 408 7 410 l 7 286 q 7 285 7 285 q 8 285 7 285 l 131 285 q 132 285 132 285 q 132 286 132 285 l 132 408 q 132 410 132 410 q 131 410 132 410 l 8 410 m 564 410 l 564 410 q 563 410 563 410 q 563 408 563 410 l 563 286 q 563 285 563 285 q 564 285 563 285 l 686 285 q 688 285 688 285 q 688 286 688 285 l 688 408 q 688 410 688 410 q 686 410 688 410 l 564 410 m 8 271 l 8 271 q 7 271 7 271 q 7 269 7 271 l 7 147 q 7 146 7 146 q 8 146 7 146 l 131 146 q 132 146 132 146 q 132 147 132 146 l 132 269 q 132 271 132 271 q 131 271 132 271 l 8 271 m 564 271 l 564 271 q 563 271 563 271 q 563 269 563 271 l 563 147 q 563 146 563 146 q 564 146 563 146 l 686 146 q 688 146 688 146 q 688 147 688 146 l 688 269 q 688 271 688 271 q 686 271 688 271 l 564 271 m 8 132 l 8 132 q 7 132 7 132 q 7 131 7 132 l 7 8 q 7 7 7 7 q 8 7 7 7 l 131 7 q 132 7 132 7 q 132 8 132 7 l 132 131 q 132 132 132 132 q 131 132 132 132 l 8 132 m 564 132 l 564 132 q 563 132 563 132 q 563 131 563 132 l 563 8 q 563 7 563 7 q 564 7 563 7 l 686 7 q 688 7 688 7 q 688 8 688 7 l 688 131 q 688 132 688 132 q 686 132 688 132 l 564 132 z "},"N":{"ha":833,"x_min":7,"x_max":688,"o":"m 8 965 l 8 965 q 7 965 7 965 q 7 964 7 965 l 7 842 q 7 840 7 840 q 8 840 7 840 l 131 840 q 132 840 132 840 q 132 842 132 840 l 132 964 q 132 965 132 965 q 131 965 132 965 l 8 965 m 564 965 l 564 965 q 563 965 563 965 q 563 964 563 965 l 563 842 q 563 840 563 840 q 564 840 563 840 l 686 840 q 688 840 688 840 q 688 842 688 840 l 688 964 q 688 965 688 965 q 686 965 688 965 l 564 965 m 8 826 l 8 826 q 7 826 7 826 q 7 825 7 826 l 7 703 q 7 701 7 701 q 8 701 7 701 l 131 701 q 132 701 132 701 q 132 703 132 701 l 132 825 q 132 826 132 826 q 131 826 132 826 l 8 826 m 564 826 l 564 826 q 563 826 563 826 q 563 825 563 826 l 563 703 q 563 701 563 701 q 564 701 563 701 l 686 701 q 688 701 688 701 q 688 703 688 701 l 688 825 q 688 826 688 826 q 686 826 688 826 l 564 826 m 8 688 l 8 688 q 7 688 7 688 q 7 686 7 688 l 7 564 q 7 563 7 563 q 8 563 7 563 l 131 563 q 132 563 132 563 q 132 564 132 563 l 132 686 q 132 688 132 688 q 131 688 132 688 l 8 688 m 147 688 l 147 688 q 146 688 146 688 q 146 686 146 688 l 146 564 q 146 563 146 563 q 147 563 146 563 l 269 563 q 271 563 271 563 q 271 564 271 563 l 271 686 q 271 688 271 688 q 269 688 271 688 l 147 688 m 564 688 l 564 688 q 563 688 563 688 q 563 686 563 688 l 563 564 q 563 563 563 563 q 564 563 563 563 l 686 563 q 688 563 688 563 q 688 564 688 563 l 688 686 q 688 688 688 688 q 686 688 688 688 l 564 688 m 8 549 l 8 549 q 7 549 7 549 q 7 547 7 549 l 7 425 q 7 424 7 424 q 8 424 7 424 l 131 424 q 132 424 132 424 q 132 425 132 424 l 132 547 q 132 549 132 549 q 131 549 132 549 l 8 549 m 286 549 l 286 549 q 285 549 285 549 q 285 547 285 549 l 285 425 q 285 424 285 424 q 286 424 285 424 l 408 424 q 410 424 410 424 q 410 425 410 424 l 410 547 q 410 549 410 549 q 408 549 410 549 l 286 549 m 564 549 l 564 549 q 563 549 563 549 q 563 547 563 549 l 563 425 q 563 424 563 424 q 564 424 563 424 l 686 424 q 688 424 688 424 q 688 425 688 424 l 688 547 q 688 549 688 549 q 686 549 688 549 l 564 549 m 8 410 l 8 410 q 7 410 7 410 q 7 408 7 410 l 7 286 q 7 285 7 285 q 8 285 7 285 l 131 285 q 132 285 132 285 q 132 286 132 285 l 132 408 q 132 410 132 410 q 131 410 132 410 l 8 410 m 425 410 l 425 410 q 424 410 424 410 q 424 408 424 410 l 424 286 q 424 285 424 285 q 425 285 424 285 l 547 285 q 549 285 549 285 q 549 286 549 285 l 549 408 q 549 410 549 410 q 547 410 549 410 l 425 410 m 564 410 l 564 410 q 563 410 563 410 q 563 408 563 410 l 563 286 q 563 285 563 285 q 564 285 563 285 l 686 285 q 688 285 688 285 q 688 286 688 285 l 688 408 q 688 410 688 410 q 686 410 688 410 l 564 410 m 8 271 l 8 271 q 7 271 7 271 q 7 269 7 271 l 7 147 q 7 146 7 146 q 8 146 7 146 l 131 146 q 132 146 132 146 q 132 147 132 146 l 132 269 q 132 271 132 271 q 131 271 132 271 l 8 271 m 564 271 l 564 271 q 563 271 563 271 q 563 269 563 271 l 563 147 q 563 146 563 146 q 564 146 563 146 l 686 146 q 688 146 688 146 q 688 147 688 146 l 688 269 q 688 271 688 271 q 686 271 688 271 l 564 271 m 8 132 l 8 132 q 7 132 7 132 q 7 131 7 132 l 7 8 q 7 7 7 7 q 8 7 7 7 l 131 7 q 132 7 132 7 q 132 8 132 7 l 132 131 q 132 132 132 132 q 131 132 132 132 l 8 132 m 564 132 l 564 132 q 563 132 563 132 q 563 131 563 132 l 563 8 q 563 7 563 7 q 564 7 563 7 l 686 7 q 688 7 688 7 q 688 8 688 7 l 688 131 q 688 132 688 132 q 686 132 688 132 l 564 132 z "}}}
